<svg width="44" height="44" viewBox="0 0 44 44" fill="none" xmlns="http://www.w3.org/2000/svg">
<g clip-path="url(#clip0_1366_1251)">
<path d="M22.0052 11C20.5548 11 19.137 11.4301 17.931 12.2359C16.7251 13.0417 15.7851 14.187 15.2301 15.527C14.6751 16.867 14.5298 18.3415 14.8128 19.764C15.0957 21.1865 15.7942 22.4932 16.8198 23.5188C17.8453 24.5444 19.152 25.2428 20.5746 25.5258C21.9971 25.8087 23.4716 25.6635 24.8116 25.1085C26.1516 24.5534 27.2969 23.6135 28.1027 22.4075C28.9085 21.2016 29.3385 19.7837 29.3385 18.3333C29.3385 16.3884 28.5659 14.5232 27.1907 13.1479C25.8154 11.7726 23.9501 11 22.0052 11ZM22.0052 22C21.28 22 20.5711 21.785 19.9681 21.3821C19.3651 20.9792 18.8952 20.4065 18.6177 19.7365C18.3401 19.0665 18.2675 18.3293 18.409 17.618C18.5505 16.9067 18.8997 16.2534 19.4125 15.7406C19.9253 15.2278 20.5786 14.8786 21.2899 14.7371C22.0011 14.5956 22.7384 14.6683 23.4084 14.9458C24.0784 15.2233 24.651 15.6933 25.0539 16.2962C25.4568 16.8992 25.6719 17.6081 25.6719 18.3333C25.6719 19.3058 25.2856 20.2384 24.5979 20.9261C23.9103 21.6137 22.9777 22 22.0052 22Z" fill="#FF3600"/>
<path d="M21.9928 44.0005C20.449 44.0084 18.9258 43.6463 17.5507 42.9446C16.1756 42.2428 14.9887 41.2219 14.0893 39.9672C7.10243 30.3293 3.55859 23.084 3.55859 18.431C3.55859 13.5419 5.50076 8.85315 8.95784 5.39607C12.4149 1.93899 17.1037 -0.00317383 21.9928 -0.00317383C26.8818 -0.00317383 31.5706 1.93899 35.0277 5.39607C38.4848 8.85315 40.4269 13.5419 40.4269 18.431C40.4269 23.084 36.8831 30.3293 29.8963 39.9672C28.9968 41.2219 27.8099 42.2428 26.4348 42.9446C25.0597 43.6463 23.5365 44.0084 21.9928 44.0005ZM21.9928 3.99899C18.1655 4.00336 14.4963 5.52566 11.79 8.23193C9.08376 10.9382 7.56146 14.6074 7.55709 18.4347C7.55709 22.1197 11.0276 28.9342 17.3269 37.6223C17.8617 38.3589 18.5633 38.9584 19.3742 39.3718C20.1852 39.7852 21.0825 40.0007 21.9928 40.0007C22.903 40.0007 23.8003 39.7852 24.6113 39.3718C25.4223 38.9584 26.1238 38.3589 26.6586 37.6223C32.9579 28.9342 36.4284 22.1197 36.4284 18.4347C36.4241 14.6074 34.9018 10.9382 32.1955 8.23193C29.4892 5.52566 25.82 4.00336 21.9928 3.99899Z" fill="#FF3600"/>
</g>
<defs>
<clipPath id="clip0_1366_1251">
<rect width="44" height="44" fill="white"/>
</clipPath>
</defs>
</svg>
