<svg width="46" height="40" viewBox="0 0 46 40" fill="none" xmlns="http://www.w3.org/2000/svg">
<path d="M36.4167 0H9.58333C7.04261 0.00288701 4.60682 0.961604 2.81025 2.66585C1.01369 4.37011 0.00304339 6.68074 0 9.09091L0 30.9091C0.00304339 33.3193 1.01369 35.6299 2.81025 37.3341C4.60682 39.0384 7.04261 39.9971 9.58333 40H36.4167C38.9574 39.9971 41.3932 39.0384 43.1897 37.3341C44.9863 35.6299 45.997 33.3193 46 30.9091V9.09091C45.997 6.68074 44.9863 4.37011 43.1897 2.66585C41.3932 0.961604 38.9574 0.00288701 36.4167 0ZM9.58333 3.63636H36.4167C37.5643 3.63851 38.6851 3.96639 39.6347 4.57783C40.5842 5.18926 41.3192 6.05627 41.745 7.06727L27.0672 20.9927C25.987 22.0133 24.5245 22.5863 23 22.5863C21.4755 22.5863 20.013 22.0133 18.9328 20.9927L4.255 7.06727C4.68078 6.05627 5.41576 5.18926 6.36534 4.57783C7.31492 3.96639 8.43566 3.63851 9.58333 3.63636ZM36.4167 36.3636H9.58333C8.05834 36.3636 6.5958 35.789 5.51747 34.766C4.43914 33.7431 3.83333 32.3557 3.83333 30.9091V11.8182L16.2227 23.5636C18.0217 25.2659 20.459 26.2219 23 26.2219C25.541 26.2219 27.9783 25.2659 29.7773 23.5636L42.1667 11.8182V30.9091C42.1667 32.3557 41.5609 33.7431 40.4825 34.766C39.4042 35.789 37.9417 36.3636 36.4167 36.3636Z" fill="#FF3600"/>
</svg>
