<svg width="42" height="40" viewBox="0 0 42 40" fill="none" xmlns="http://www.w3.org/2000/svg">
<path d="M28.8122 27.3315L29.7943 26.352L27.5136 24.0514L26.5358 25.0309L28.8122 27.3315ZM33.0872 25.9412L37.2028 28.1877L38.7427 25.3379L34.6292 23.0936L33.0872 25.9412ZM37.9932 32.6506L34.935 35.7058L37.2114 38.0042L40.2696 34.9512L37.9932 32.6506ZM33.07 36.6874C29.9472 36.9815 21.871 36.7199 13.1229 27.9888L10.8444 30.2873C20.3893 39.8162 29.4755 40.2832 33.3715 39.9178L33.07 36.6874ZM13.1229 27.9888C4.78617 19.6643 3.40353 12.6652 3.23124 9.62726L0.00508165 9.81105C0.220446 13.6339 1.93259 21.3919 10.8444 30.2873L13.1229 27.9888ZM16.0842 14.6263L16.7023 14.0079L14.428 11.7095L13.8099 12.3257L16.0842 14.6263ZM17.1933 6.14825L14.4797 2.50707L11.8932 4.45307L14.6068 8.09208L17.1933 6.14825ZM5.34612 1.71354L1.9649 5.0866L4.24345 7.3872L7.62252 4.01414L5.34612 1.71354ZM14.9471 13.476C13.8056 12.3257 13.8056 12.3257 13.8056 12.33H13.8013L13.7949 12.3387C13.6932 12.4429 13.6016 12.5565 13.5214 12.6781C13.4051 12.8511 13.278 13.0782 13.1703 13.3657C12.9081 14.1081 12.8427 14.9061 12.9808 15.6815C13.2694 17.5518 14.5529 20.0232 17.8394 23.3055L20.118 21.0049C17.0404 17.9345 16.3082 16.0663 16.1725 15.1842C16.1079 14.7647 16.1746 14.5571 16.194 14.5095C16.2048 14.4793 16.2091 14.4771 16.194 14.4966C16.175 14.5266 16.1534 14.5548 16.1294 14.5809L16.1079 14.6025C16.1009 14.6092 16.0937 14.6157 16.0863 14.622L14.9471 13.476ZM17.8394 23.3055C21.128 26.5877 23.6026 27.8677 25.4676 28.1531C26.4217 28.3002 27.1905 28.1834 27.7742 27.965C28.1005 27.8438 28.4058 27.6716 28.6787 27.4548C28.7158 27.4236 28.7517 27.3912 28.7864 27.3575L28.8015 27.3445L28.8079 27.338L28.8101 27.3337C28.8101 27.3337 28.8122 27.3315 27.6729 26.1812C26.5315 25.0309 26.538 25.0287 26.538 25.0287L26.5423 25.0244L26.5466 25.0201L26.5595 25.0093L26.581 24.9877C26.6069 24.9643 26.6343 24.9427 26.6629 24.9228C26.6844 24.9077 26.678 24.9141 26.6478 24.9271C26.594 24.9466 26.3829 25.0136 25.9586 24.9487C25.067 24.8104 23.1934 24.0752 20.118 21.0049L17.8394 23.3055ZM14.4797 2.50491C12.283 -0.435707 7.9671 -0.902746 5.34612 1.71354L7.62252 4.01414C8.76826 2.87033 10.8013 2.98925 11.8932 4.45307L14.4797 2.50491ZM3.23339 9.62942C3.19032 8.88129 3.53275 8.09857 4.24345 7.38936L1.96274 5.08876C0.806237 6.24339 -0.104754 7.87802 0.00508165 9.81105L3.23339 9.62942ZM34.935 35.7058C34.3449 36.2982 33.7075 36.6312 33.0721 36.6896L33.3715 39.9178C34.9544 39.7686 36.2488 38.9686 37.2136 38.0064L34.935 35.7058ZM16.7023 14.0079C18.8236 11.8911 18.9808 8.54615 17.1955 6.15041L14.6089 8.09425C15.4769 9.25968 15.3476 10.7884 14.4259 11.7116L16.7023 14.0079ZM37.205 28.1899C38.9645 29.1499 39.238 31.4116 37.9954 32.6527L40.2739 34.9512C43.1598 32.0689 42.2703 27.2623 38.7448 25.3401L37.205 28.1899ZM29.7943 26.3542C30.6213 25.5282 31.9522 25.325 33.0894 25.9434L34.6314 23.0957C32.2968 21.82 29.4023 22.1725 27.5157 24.0536L29.7943 26.3542Z" fill="#FF3600"/>
</svg>
