<svg width="47" height="21" viewBox="0 0 47 21" fill="none" xmlns="http://www.w3.org/2000/svg">
<path d="M0.774131 17.795H4.50805C5.77778 20.0093 8.6024 20.7749 10.8167 19.5049C11.5285 19.0969 12.1186 18.5064 12.5269 17.795H33.9323C35.2014 20.009 38.0254 20.7749 40.2394 19.5058C40.9584 19.0937 41.5532 18.4957 41.9619 17.7748C42.0498 17.7594 42.1345 17.7288 42.212 17.6841L46.0836 15.3611C46.3165 15.2212 46.4592 14.9694 46.4592 14.6975V7.72877C46.4573 7.6374 46.4387 7.54729 46.405 7.46222C46.3965 7.43922 46.3871 7.41748 46.3763 7.39511C46.3656 7.37274 46.3609 7.351 46.3483 7.32989L44.2446 3.82314L44.8293 2.65486C45.0203 2.27205 44.8649 1.807 44.4824 1.61607C44.4134 1.58172 44.34 1.55778 44.2641 1.54518L40.2816 0.88069L38.3915 0.566248C29.1205 -0.953342 19.6066 0.605317 11.3051 5.00403L9.02239 6.2221L5.53801 6.99623C3.16931 7.51799 1.16387 9.08358 0.083494 11.2551C0.0293016 11.3622 0.000630143 11.4803 0 11.6004V17.0205C0 17.4481 0.346579 17.795 0.774131 17.795ZM11.353 16.7108C10.6655 18.273 8.84186 18.9822 7.27973 18.2947C5.71761 17.6072 5.00838 15.7836 5.69587 14.2215C6.38335 12.6593 8.20699 11.9501 9.76911 12.6376C10.8927 13.1319 11.617 14.2445 11.6148 15.472C11.6135 15.8986 11.5241 16.3205 11.3523 16.7108H11.353ZM40.7772 16.7108C40.0897 18.273 38.2661 18.9822 36.704 18.2947C35.1418 17.6072 34.4326 15.7836 35.1201 14.2215C35.8076 12.6593 37.6312 11.9501 39.1933 12.6376C40.3169 13.1319 41.0412 14.2445 41.039 15.472C41.0378 15.8986 40.9483 16.3205 40.7766 16.7108H40.7772ZM44.9106 10.0518H42.9748L41.8132 8.5029H44.9106V10.0518ZM29.3111 1.61166C32.2624 1.45349 35.2222 1.61607 38.1382 2.09718L38.5449 2.16524L34.5237 6.1802H28.6573L29.3111 1.61166ZM34.8444 7.72877C35.0498 7.72877 35.2467 7.64717 35.3917 7.50192L40.4193 2.47338L42.9748 2.89998L42.6648 3.51091C42.5466 3.74784 42.5577 4.02889 42.6944 4.25574L44.3173 6.95433H40.2646C39.8367 6.95433 39.4901 7.30122 39.4901 7.72877C39.4901 7.89639 39.5446 8.05928 39.6451 8.19319L41.9682 11.2907C42.1144 11.4857 42.3437 11.6004 42.5876 11.6004H44.9106V14.2593L42.5876 15.6553C42.5876 15.5942 42.5914 15.5331 42.5914 15.472C42.5914 12.906 40.5113 10.8259 37.9457 10.8259C35.3797 10.8259 33.2996 12.906 33.2996 15.472C33.3012 15.7039 33.321 15.9354 33.3585 16.1642C33.3623 16.1913 33.3585 16.2193 33.3648 16.2464H27.2197L28.4362 7.72877H34.8444ZM27.7307 1.72004L27.0933 6.1802H12.393C17.167 3.71035 22.3767 2.19548 27.7307 1.72004ZM1.54858 13.1489H3.09715V11.6004H1.66232C2.56815 10.0231 4.09593 8.90052 5.87168 8.50763L9.37685 7.72877H26.8687L25.6553 16.2461H13.0982C13.0982 16.219 13.0982 16.1913 13.1045 16.1642C13.1416 15.9351 13.1612 15.7039 13.1634 15.4717C13.1634 12.906 11.0833 10.8259 8.51733 10.8259C5.9517 10.8259 3.8716 12.906 3.8716 15.4717C3.87318 15.7039 3.89303 15.9351 3.93052 16.1642C3.9343 16.1913 3.93052 16.219 3.93651 16.2461H1.54858V13.1489Z" fill="#FF3600"/>
<path d="M20.1321 9.27734H23.2295V10.8259H20.1321V9.27734Z" fill="#FF3600"/>
</svg>
