<svg width="44" height="26" viewBox="0 0 44 26" fill="none" xmlns="http://www.w3.org/2000/svg">
<path fill-rule="evenodd" clip-rule="evenodd" d="M43.0565 20.9261H38.8684C38.5626 20.9261 38.3148 20.6784 38.3148 20.3725C38.3148 18.1322 36.4923 16.3097 34.2521 16.3097C32.0117 16.3097 30.1891 18.1323 30.1891 20.3725C30.1891 20.6784 29.9413 20.9261 29.6355 20.9261H13.9749C13.6691 20.9261 13.4213 20.6784 13.4213 20.3725C13.4213 18.1322 11.5987 16.3097 9.35835 16.3097C7.11814 16.3097 5.29562 18.1323 5.29562 20.3725C5.29562 20.6784 5.04774 20.9261 4.74191 20.9261H3.25983C1.46236 20.9261 0 19.4638 0 17.6662V9.07022C0 8.76439 0.247885 8.5166 0.553717 8.5166H37.4056C40.8268 8.5166 43.6102 11.3 43.6102 14.7212V20.3726C43.6101 20.6783 43.3623 20.9261 43.0565 20.9261ZM39.3927 19.8189H42.5029V14.7212C42.5029 11.9104 40.2162 9.62376 37.4056 9.62376H1.10746V17.6662C1.10746 18.8532 2.07314 19.8188 3.25995 19.8188H4.21789C4.49505 17.2274 6.69482 15.2023 9.35857 15.2023C12.0224 15.2023 14.2221 17.2274 14.4994 19.8188H29.1115C29.3887 17.2274 31.5884 15.2023 34.2522 15.2023C36.9159 15.2024 39.1154 17.2274 39.3927 19.8189Z" fill="#FF3600"/>
<path fill-rule="evenodd" clip-rule="evenodd" d="M33.9035 9.62395H0.553961C0.248129 9.62395 0.000244141 9.37607 0.000244141 9.07034V2.94162C0.000244141 1.3196 1.31985 0 2.94186 0H25.3873C30.3886 0 34.4573 4.06897 34.4573 9.07034C34.4572 9.37607 34.2092 9.62395 33.9035 9.62395ZM1.10744 8.51672H33.3309C33.0458 4.38295 29.5919 1.10733 25.3871 1.10733H2.94164C1.93018 1.10733 1.10745 1.93016 1.10745 2.94172L1.10744 8.51672Z" fill="#FF3600"/>
<path fill-rule="evenodd" clip-rule="evenodd" d="M9.35831 25.5426C6.50753 25.5426 4.18823 23.2233 4.18823 20.3726C4.18823 17.5217 6.50752 15.2024 9.35831 15.2024C12.2092 15.2024 14.5285 17.5217 14.5285 20.3726C14.5285 23.2234 12.2092 25.5426 9.35831 25.5426ZM9.35831 16.3097C7.11809 16.3097 5.29557 18.1324 5.29557 20.3726C5.29557 22.6128 7.11809 24.4353 9.35831 24.4353C11.5986 24.4353 13.4212 22.6128 13.4212 20.3726C13.4212 18.1323 11.5986 16.3097 9.35831 16.3097Z" fill="#FF3600"/>
<path fill-rule="evenodd" clip-rule="evenodd" d="M34.252 25.5426C31.4012 25.5426 29.0819 23.2233 29.0819 20.3726C29.0819 17.5217 31.4012 15.2024 34.252 15.2024C37.1029 15.2024 39.4221 17.5217 39.4221 20.3726C39.4221 23.2234 37.1029 25.5426 34.252 25.5426ZM34.252 16.3097C32.0117 16.3097 30.1891 18.1324 30.1891 20.3726C30.1891 22.6128 32.0117 24.4353 34.252 24.4353C36.4923 24.4353 38.3148 22.6128 38.3148 20.3726C38.3148 18.1323 36.4923 16.3097 34.252 16.3097Z" fill="#FF3600"/>
<path fill-rule="evenodd" clip-rule="evenodd" d="M9.35832 23.0052C7.90663 23.0052 6.72546 21.8242 6.72546 20.3724C6.72546 18.9206 7.90664 17.7395 9.35832 17.7395C10.8102 17.7395 11.9913 18.9206 11.9913 20.3724C11.9913 21.8243 10.8102 23.0052 9.35832 23.0052ZM9.35832 18.8467C8.51719 18.8467 7.83279 19.5311 7.83279 20.3724C7.83279 21.2136 8.51719 21.898 9.35832 21.898C10.1996 21.898 10.8841 21.2136 10.8841 20.3724C10.8841 19.5311 10.1997 18.8467 9.35832 18.8467Z" fill="#FF3600"/>
<path fill-rule="evenodd" clip-rule="evenodd" d="M34.252 23.0052C32.8002 23.0052 31.619 21.8242 31.619 20.3724C31.619 18.9206 32.8002 17.7395 34.252 17.7395C35.7038 17.7395 36.8848 18.9206 36.8848 20.3724C36.8848 21.8243 35.7038 23.0052 34.252 23.0052ZM34.252 18.8467C33.4107 18.8467 32.7263 19.5311 32.7263 20.3724C32.7263 21.2136 33.4107 21.898 34.252 21.898C35.0932 21.898 35.7776 21.2136 35.7776 20.3724C35.7776 19.5311 35.0932 18.8467 34.252 18.8467Z" fill="#FF3600"/>
<path fill-rule="evenodd" clip-rule="evenodd" d="M17.2285 9.62394C16.9227 9.62394 16.6748 9.37605 16.6748 9.07032V0.553717C16.6748 0.247885 16.9227 0 17.2285 0C17.5343 0 17.7821 0.247885 17.7821 0.553717V9.07032C17.7821 9.37605 17.5343 9.62394 17.2285 9.62394Z" fill="#FF3600"/>
<path fill-rule="evenodd" clip-rule="evenodd" d="M43.0333 17.8559H40.7773C40.4715 17.8559 40.2236 17.608 40.2236 17.3022V14.2079C40.2236 13.9021 40.4715 13.6543 40.7773 13.6543H43.0333C43.3391 13.6543 43.5869 13.9022 43.5869 14.2079V17.3022C43.5869 17.608 43.339 17.8559 43.0333 17.8559ZM41.3309 16.7485H42.4795V14.7615H41.3309V16.7485Z" fill="#FF3600"/>
</svg>
