<svg width="46" height="18" viewBox="0 0 46 18" fill="none" xmlns="http://www.w3.org/2000/svg">
<path d="M12.9922 13.4729C12.9922 15.4208 11.4131 17 9.46503 17C7.51715 17 5.93799 15.4208 5.93799 13.4729C5.93799 11.5249 7.51715 9.94575 9.46503 9.94575C11.4131 9.94575 12.9922 11.5249 12.9922 13.4729Z" stroke="#FF3600" stroke-width="1.5" stroke-miterlimit="10" stroke-linecap="round" stroke-linejoin="round"/>
<path d="M12.9922 14.8838H33.4494" stroke="#FF3600" stroke-width="1.5" stroke-miterlimit="10" stroke-linecap="round" stroke-linejoin="round"/>
<path d="M9.96388 12.9741L8.96631 13.9717" stroke="#FF3600" stroke-width="1.5" stroke-miterlimit="10" stroke-linecap="round" stroke-linejoin="round"/>
<path d="M40.5034 13.4729C40.5034 15.4208 38.9243 17 36.9763 17C35.0284 17 33.4492 15.4208 33.4492 13.4729C33.4492 11.5249 35.0284 9.94575 36.9763 9.94575C38.9243 9.94575 40.5034 11.5249 40.5034 13.4729Z" stroke="#FF3600" stroke-width="1.5" stroke-miterlimit="10" stroke-linecap="round" stroke-linejoin="round"/>
<path d="M36.4775 12.9741L37.4751 13.9717" stroke="#FF3600" stroke-width="1.5" stroke-miterlimit="10" stroke-linecap="round" stroke-linejoin="round"/>
<path d="M5.93794 14.1784L2.53489 13.2061C1.62638 12.9465 1 12.1161 1 11.1712V6.95878C1 6.2473 1.52985 5.64714 2.23587 5.55887L4.84489 5.23275C6.03518 5.08394 7.19159 4.73387 8.26448 4.19734L11.6123 2.52349C12.9836 1.8378 14.4958 1.48087 16.0289 1.48087H22.3138C24.0579 1.48087 25.7657 1.97824 27.2372 2.91456L32.7439 6.41881C32.7439 6.41881 39.1384 6.41881 43.1277 8.27138C44.1156 8.73022 44.736 9.73262 44.736 10.822V13.1638C44.736 14.2558 44.1043 14.8838 43.3252 14.8838" stroke="#FF3600" stroke-width="1.5" stroke-miterlimit="10" stroke-linecap="round" stroke-linejoin="round"/>
<path d="M14.403 6.41895H13.0424C12.1069 6.41895 11.2098 6.04732 10.5483 5.38583L9.46509 4.30272" stroke="#FF3600" stroke-width="1.5" stroke-miterlimit="10" stroke-linecap="round" stroke-linejoin="round"/>
<path d="M32.7438 6.41895H17.2246" stroke="#FF3600" stroke-width="1.5" stroke-miterlimit="10" stroke-linecap="round" stroke-linejoin="round"/>
<path d="M15.814 12.062H30.6277" stroke="#FF3600" stroke-width="1.5" stroke-miterlimit="10" stroke-linecap="round" stroke-linejoin="round"/>
<path d="M1 8.53491H2.41082" stroke="#FF3600" stroke-width="1.5" stroke-miterlimit="10" stroke-linecap="round" stroke-linejoin="round"/>
<path d="M42.6196 9.9458H44.3244" stroke="#FF3600" stroke-width="1.5" stroke-miterlimit="10" stroke-linecap="round" stroke-linejoin="round"/>
<path d="M20.0464 6.41895V1.481" stroke="#FF3600" stroke-width="1.5" stroke-miterlimit="10" stroke-linecap="round" stroke-linejoin="round"/>
<path d="M11.9341 6.13208L12.8524 2.07546" stroke="#FF3600" stroke-width="1.5" stroke-miterlimit="10" stroke-linecap="round" stroke-linejoin="round"/>
</svg>
