<svg width="49" height="19" viewBox="0 0 49 19" fill="none" xmlns="http://www.w3.org/2000/svg">
<path d="M33.5398 7.24951H29.8343V8.19965H33.5398V7.24951Z" fill="#FF3600"/>
<path d="M8.99787 18.1002C11.8103 18.1002 14.1001 15.8104 14.1001 12.998C14.1001 10.1856 11.8103 7.89575 8.99787 7.89575C6.18547 7.89575 3.89564 10.1856 3.89564 12.998C3.89564 15.8104 6.18547 18.1002 8.99787 18.1002ZM8.99787 8.84589C11.2877 8.84589 13.15 10.7082 13.15 12.998C13.15 15.2878 11.2877 17.1501 8.99787 17.1501C6.70805 17.1501 4.84578 15.2878 4.84578 12.998C4.84578 10.7082 6.70805 8.84589 8.99787 8.84589Z" fill="#FF3600"/>
<path d="M39.8011 18.1002C42.6135 18.1002 44.9033 15.8104 44.9033 12.998C44.9033 10.1856 42.6135 7.89575 39.8011 7.89575C36.9887 7.89575 34.6989 10.1856 34.6989 12.998C34.6989 15.8104 36.9887 18.1002 39.8011 18.1002ZM39.8011 8.84589C42.0909 8.84589 43.9532 10.7082 43.9532 12.998C43.9532 15.2878 42.0909 17.1501 39.8011 17.1501C37.5113 17.1501 35.649 15.2878 35.649 12.998C35.649 10.7082 37.5113 8.84589 39.8011 8.84589Z" fill="#FF3600"/>
<path d="M40.9509 15.4967C41.92 15.0501 42.5471 14.0715 42.5471 12.9978C42.5471 11.4871 41.3119 10.252 39.8012 10.252C38.2905 10.252 37.0553 11.4871 37.0553 12.9978C37.0553 14.0715 37.6824 15.0501 38.6516 15.4967L39.0506 14.6321C38.414 14.3375 38.0055 13.7009 38.0055 12.9978C38.0055 12.0097 38.8131 11.2021 39.8012 11.2021C40.7894 11.2021 41.597 12.0097 41.597 12.9978C41.597 13.7009 41.1884 14.3375 40.5518 14.6321L40.9509 15.4967Z" fill="#FF3600"/>
<path d="M9.0168 15.7437C10.5275 15.7437 11.7627 14.5086 11.7627 12.9978C11.7627 11.4871 10.5275 10.252 9.0168 10.252C7.50609 10.252 6.27091 11.4871 6.27091 12.9978C6.27091 14.5086 7.50609 15.7437 9.0168 15.7437ZM9.0168 11.2021C10.0049 11.2021 10.8126 12.0097 10.8126 12.9978C10.8126 13.986 10.0049 14.7936 9.0168 14.7936C8.02866 14.7936 7.22105 13.986 7.22105 12.9978C7.22105 12.0097 8.02866 11.2021 9.0168 11.2021Z" fill="#FF3600"/>
<path d="M4.40866 14.4896L4.56069 13.5489L1.78629 13.1024L0.978676 10.4515C2.35637 7.76261 5.07376 6.09987 8.10469 6.09987H35.1741C35.3071 6.09987 35.4306 6.04286 35.5256 5.94785L36.6373 4.72217L47.6968 7.88612V9.1213L46.7182 13.1309L44.2573 13.5299L44.4094 14.4706L47.1838 14.024C47.3738 13.9955 47.5258 13.853 47.5733 13.6724L48.647 9.30183C48.647 9.25432 48.647 9.21631 48.647 9.17831V7.53457C48.647 7.32554 48.5045 7.13552 48.3049 7.07851L36.6183 3.73403C36.4472 3.68652 36.2572 3.73403 36.1337 3.86705L34.965 5.14973H8.11419C4.69371 5.14973 1.61527 7.05951 0.0950508 10.1189L0.057045 10.195C3.8147e-05 10.2995 -0.00946426 10.4325 0.0285416 10.5465L0.978676 13.6629C1.03569 13.834 1.1782 13.967 1.35873 13.9955L4.40866 14.4896Z" fill="#FF3600"/>
<path d="M35.7727 14.7935H13.0455V15.7436H35.7727V14.7935Z" fill="#FF3600"/>
<path d="M15.3918 8.7356L14.4987 9.06054L16.0195 13.2404L16.9126 12.9154L15.3918 8.7356Z" fill="#FF3600"/>
<path d="M17.3875 8.73486L16.4943 9.05981L18.0151 13.2396L18.9082 12.9147L17.3875 8.73486Z" fill="#FF3600"/>
<path d="M18.4518 6.09987H21.6632C21.8438 6.09987 22.0053 6.00486 22.0813 5.84333L22.9174 4.2186L22.0718 3.78154L21.3687 5.14973H19.4589L22.9269 0.950136H23.5445L23.0599 1.88127L23.9056 2.31833L24.7417 0.693599C24.8177 0.551079 24.8082 0.370554 24.7227 0.228033C24.6372 0.0855131 24.4851 0 24.3141 0H22.6989C22.5564 0 22.4233 0.0665098 22.3283 0.171025L18.0812 5.32076C17.9672 5.46328 17.9387 5.66281 18.0147 5.82433C18.1097 5.99536 18.2713 6.09987 18.4518 6.09987Z" fill="#FF3600"/>
<path d="M48.647 11.4302H45.5115V12.3803H48.647V11.4302Z" fill="#FF3600"/>
<path d="M2.6604 11.4302H2.09808e-05V12.3803H2.6604V11.4302Z" fill="#FF3600"/>
<path d="M31.687 6.09991H35.174C35.3071 6.09991 35.4306 6.0429 35.5256 5.94789L36.8368 4.50368C36.9603 4.36116 36.9983 4.16163 36.9223 3.99061C36.8463 3.81958 36.6753 3.70557 36.4852 3.70557H33.1313C32.0766 3.70557 31.212 4.56069 31.212 5.62484C31.212 5.89088 31.421 6.09991 31.687 6.09991ZM34.965 5.14977H32.2856C32.4472 4.85523 32.7702 4.6557 33.1313 4.6557H35.4116L34.965 5.14977Z" fill="#FF3600"/>
<path d="M2.49885 8.22802H5.06421C6.46091 8.22802 7.60107 7.08786 7.60107 5.69116C7.60107 5.55814 7.54406 5.42512 7.43955 5.33961C7.33504 5.2541 7.20202 5.20659 7.069 5.22559C5.27324 5.43462 3.53449 6.21374 2.1853 7.40141C2.03328 7.53443 1.98577 7.74345 2.05228 7.92398C2.11879 8.10451 2.29932 8.22802 2.49885 8.22802ZM6.54642 6.26124C6.31839 6.85033 5.73881 7.27789 5.06421 7.27789H3.94305C4.74117 6.79332 5.62479 6.44177 6.54642 6.26124Z" fill="#FF3600"/>
</svg>
