<svg width="54" height="16" viewBox="0 0 54 16" fill="none" xmlns="http://www.w3.org/2000/svg">
<path d="M53.3307 9.22972C53.2782 9.11597 53.1819 9.01972 53.0682 8.98472C52.7269 8.87097 52.2457 8.66097 51.6419 8.38972C51.4669 8.31097 51.2744 8.22347 51.0819 8.13597C48.6494 7.04222 44.8782 5.35347 41.2644 4.89847C25.8994 -2.14528 15.5219 -0.0190278 7.18319 1.69597C4.79444 2.18597 2.53694 2.64972 0.401943 2.84222C0.244443 2.85972 0.113193 2.94722 0.0431931 3.08722C-0.0268068 3.22722 -0.00930689 3.39347 0.0781931 3.51597L1.32069 5.37097V9.64097L0.218193 10.3322C0.0344432 10.446 -0.0355569 10.6647 0.0431931 10.866L0.918193 13.0535C0.961943 13.176 1.06694 13.2635 1.18944 13.3072L3.88444 14.1997L6.50069 14.611C7.29694 15.4335 8.40819 15.9497 9.64194 15.9497C10.6219 15.9497 11.5144 15.6172 12.2407 15.0747H38.5432C39.2694 15.6172 40.1619 15.9497 41.1419 15.9497C42.1219 15.9497 43.0144 15.6172 43.7407 15.0747H52.0094C52.1582 15.0747 52.2982 14.996 52.3769 14.8735C52.4557 14.751 52.4644 14.5935 52.4032 14.4535L51.6857 12.896L53.3394 9.57972C53.3919 9.46597 53.4007 9.33472 53.3482 9.21222L53.3307 9.22972ZM50.4694 8.82722L50.2857 8.92347C49.0257 8.40722 48.1857 7.97847 47.6432 7.61097C48.6932 8.03097 49.6557 8.45972 50.4782 8.82722H50.4694ZM2.17819 6.68347L3.31569 8.38972L2.17819 9.09847V6.68347ZM6.11569 11.5835C6.11569 9.64972 7.68194 8.08347 9.61569 8.08347C11.5494 8.08347 13.1157 9.64972 13.1157 11.5835C13.1157 13.5172 11.5494 15.0835 9.61569 15.0835C7.68194 15.0835 6.11569 13.5172 6.11569 11.5835ZM37.6157 11.5835C37.6157 9.64972 39.1819 8.08347 41.1157 8.08347C43.0494 8.08347 44.6157 9.64972 44.6157 11.5835C44.6157 13.5172 43.0494 15.0835 41.1157 15.0835C39.1819 15.0835 37.6157 13.5172 37.6157 11.5835ZM50.9944 12.2747L48.3782 10.7085H48.5532C48.7982 10.7085 48.9907 10.516 48.9907 10.271C48.9907 10.026 48.7982 9.83347 48.5532 9.83347H46.8032C46.6107 9.83347 46.4357 9.96472 46.3832 10.1572C46.3307 10.3497 46.4094 10.551 46.5757 10.6472L50.8369 13.2022L51.3007 14.2085H44.5894C45.1407 13.4735 45.4907 12.5722 45.4907 11.5835C45.4907 9.16847 43.5307 7.20847 41.1157 7.20847C38.7007 7.20847 36.7407 9.16847 36.7407 11.5835C36.7407 12.5722 37.0819 13.4735 37.6419 14.2085H13.0894C13.6407 13.4735 13.9907 12.5722 13.9907 11.5835C13.9907 9.16847 12.0307 7.20847 9.61569 7.20847C7.20069 7.20847 5.24069 9.16847 5.24069 11.5835C5.24069 12.3272 5.44194 13.0097 5.76569 13.6222L4.06819 13.3597L1.63569 12.546L0.970693 10.8835L4.16444 8.88847C4.26944 8.82722 4.33944 8.72222 4.35694 8.60847C4.38319 8.49472 4.35694 8.37222 4.29569 8.27597L1.70569 4.39972L5.48569 6.28972C5.54694 6.32472 5.61694 6.33347 5.67819 6.33347C5.83569 6.33347 5.99319 6.24597 6.07194 6.08847C6.17694 5.86972 6.08944 5.60722 5.87944 5.50222L1.93319 3.52472C3.67444 3.28847 5.46819 2.92097 7.34944 2.53597C15.1544 0.934722 24.7619 -1.03403 38.6569 4.70597C23.6157 -0.412779 17.1757 1.87097 16.8957 1.97597L12.6257 3.68222C11.1119 3.49847 9.25694 3.32347 6.93819 3.17472C6.71944 3.16597 6.49194 3.34097 6.47444 3.58597C6.45694 3.83097 6.64069 4.03222 6.88569 4.04972C9.23944 4.20722 11.1207 4.38222 12.6344 4.56597L34.5094 7.19097C34.5094 7.19097 34.5269 7.19097 34.5357 7.19097H34.5619C34.5707 7.19097 34.5794 7.19097 34.5969 7.18222C34.6582 7.18222 34.7194 7.15597 34.7719 7.12972C34.7807 7.12972 34.7982 7.12972 34.8069 7.12097C34.8069 7.12097 34.8069 7.11222 34.8244 7.10347C34.8244 7.10347 34.8419 7.10347 34.8419 7.09472C35.8919 6.23722 37.1957 5.76472 38.8232 5.65097H38.8494C41.0982 5.51097 43.6094 6.12347 45.8932 6.92847C46.2432 7.86472 47.5732 8.75722 50.1544 9.78972C50.2069 9.80722 50.2594 9.82472 50.3207 9.82472C50.3907 9.82472 50.4519 9.80722 50.5132 9.78097L51.5194 9.28222C51.8169 9.41347 52.0969 9.53597 52.3332 9.63222L51.0119 12.2747H50.9944ZM34.9207 5.96597C34.4569 4.19847 31.9982 3.83972 31.1144 3.70847C30.9657 3.69097 30.7907 3.75222 30.6944 3.88347C30.5982 4.01472 30.5894 4.18972 30.6594 4.33847L31.4644 5.95722L18.5582 4.40847L17.6832 2.67597C19.3282 2.29097 25.3832 1.37222 36.9682 5.08222C36.2157 5.28347 35.5332 5.58097 34.9207 5.96597ZM31.8319 4.73222C33.3544 5.08222 33.8882 5.62472 34.0544 6.14097L32.2344 5.53722L31.8319 4.73222ZM16.8344 2.94722L17.5082 4.28597L14.4194 3.91847L16.8344 2.95597V2.94722Z" fill="#FF3600"/>
<path d="M35.4281 12.4585H23.2481L18.1994 10.7785L16.1431 7.82104L18.3131 7.21729L34.5006 8.95854C34.7369 8.98479 34.9556 8.80979 34.9819 8.57354C35.0081 8.33729 34.8331 8.11854 34.5969 8.09229L18.3219 6.34229C18.2694 6.34229 18.2081 6.34229 18.1556 6.35979L15.3119 7.14729C15.1719 7.18229 15.0669 7.28729 15.0144 7.41854C14.9619 7.54979 14.9881 7.69854 15.0669 7.82104L17.5606 11.4085C17.6131 11.4873 17.6919 11.5398 17.7794 11.5748L23.0294 13.3248C23.0731 13.3423 23.1169 13.351 23.1694 13.351H35.4194C35.6644 13.351 35.8569 13.1585 35.8569 12.9135C35.8569 12.6685 35.6644 12.476 35.4194 12.476L35.4281 12.4585Z" fill="#FF3600"/>
<path d="M41.1157 8.9585C39.672 8.9585 38.4907 10.1397 38.4907 11.5835C38.4907 13.0272 39.672 14.2085 41.1157 14.2085C42.5595 14.2085 43.7407 13.0272 43.7407 11.5835C43.7407 10.1397 42.5595 8.9585 41.1157 8.9585ZM41.1157 13.3335C40.1532 13.3335 39.3657 12.546 39.3657 11.5835C39.3657 10.621 40.1532 9.8335 41.1157 9.8335C42.0782 9.8335 42.8657 10.621 42.8657 11.5835C42.8657 12.546 42.0782 13.3335 41.1157 13.3335Z" fill="#FF3600"/>
<path d="M9.61572 8.9585C8.17197 8.9585 6.99072 10.1397 6.99072 11.5835C6.99072 13.0272 8.17197 14.2085 9.61572 14.2085C11.0595 14.2085 12.2407 13.0272 12.2407 11.5835C12.2407 10.1397 11.0595 8.9585 9.61572 8.9585ZM9.61572 13.3335C8.65322 13.3335 7.86572 12.546 7.86572 11.5835C7.86572 10.621 8.65322 9.8335 9.61572 9.8335C10.5782 9.8335 11.3657 10.621 11.3657 11.5835C11.3657 12.546 10.5782 13.3335 9.61572 13.3335Z" fill="#FF3600"/>
</svg>
