<svg width="208" height="85" viewBox="0 0 208 85" fill="none" xmlns="http://www.w3.org/2000/svg">
<path d="M0.522694 83.9404L10.2796 59.339H15.2278L24.8802 83.9404H19.0958L11.7083 63.5205H13.6946L6.20264 83.9404H0.522694ZM6.06325 79.4801V75.0198H19.4791V79.4801H6.06325ZM37.1415 84.3237C35.1204 84.3237 33.3316 83.894 31.7752 83.0344C30.2419 82.1749 29.0339 80.9901 28.1512 79.4801C27.2916 77.9469 26.8618 76.2046 26.8618 74.2532V59.339H32.3676V74.5668C32.3676 75.5425 32.5766 76.3904 32.9948 77.1106C33.4129 77.8307 33.9821 78.3883 34.7023 78.7832C35.4456 79.1549 36.2587 79.3407 37.1415 79.3407C38.0707 79.3407 38.8838 79.1549 39.5807 78.7832C40.2777 78.3883 40.8236 77.8423 41.2185 77.1454C41.6367 76.4253 41.8457 75.5773 41.8457 74.6016V59.339H47.3514V74.288C47.3514 76.2394 46.9217 77.9701 46.0621 79.4801C45.2026 80.9901 44.0062 82.1749 42.473 83.0344C40.9397 83.894 39.1626 84.3237 37.1415 84.3237ZM57.6047 83.9404V59.6874H63.0755V83.9404H57.6047ZM49.9037 64.1129V59.339H70.7766V64.1129H49.9037ZM84.2817 84.3586C82.4232 84.3586 80.7041 84.0334 79.1244 83.3829C77.568 82.7324 76.1973 81.8264 75.0126 80.6649C73.8278 79.5033 72.9102 78.1559 72.2597 76.6227C71.6093 75.0662 71.284 73.3936 71.284 71.6049C71.284 69.7928 71.6093 68.1202 72.2597 66.587C72.9102 65.0538 73.8162 63.718 74.9777 62.5797C76.1393 61.4181 77.4983 60.5237 79.0547 59.8965C80.6344 59.246 82.3535 58.9208 84.212 58.9208C86.0472 58.9208 87.7431 59.246 89.2995 59.8965C90.8792 60.5237 92.2499 61.4181 93.4114 62.5797C94.5962 63.718 95.5138 65.0654 96.1643 66.6218C96.8147 68.1551 97.14 69.8277 97.14 71.6397C97.14 73.4285 96.8147 75.1011 96.1643 76.6576C95.5138 78.1908 94.6078 79.5382 93.4463 80.6997C92.2847 81.838 90.9141 82.7324 89.3344 83.3829C87.7779 84.0334 86.0937 84.3586 84.2817 84.3586ZM84.212 79.3756C85.6755 79.3756 86.9532 79.0503 88.0451 78.3999C89.1602 77.7494 90.0197 76.8434 90.6237 75.6819C91.2277 74.4971 91.5297 73.1381 91.5297 71.6049C91.5297 70.4433 91.3555 69.3979 91.007 68.4687C90.6585 67.5162 90.1591 66.7031 89.5086 66.0295C88.8582 65.3325 88.0799 64.8098 87.1739 64.4614C86.2912 64.0897 85.3038 63.9038 84.212 63.9038C82.7484 63.9038 81.4591 64.2291 80.3441 64.8795C79.2522 65.5068 78.4043 66.4011 77.8003 67.5627C77.1963 68.701 76.8943 70.0484 76.8943 71.6049C76.8943 72.7664 77.0685 73.8234 77.417 74.7759C77.7654 75.7283 78.2533 76.553 78.8805 77.2499C79.531 77.9236 80.3092 78.4463 81.2152 78.818C82.1212 79.1897 83.1201 79.3756 84.212 79.3756Z" fill="#FF3600"/>
<path d="M107.258 83.9404L97.78 59.339H103.634L110.847 79.2362H108.443L115.761 59.339H121.545L111.962 83.9404H107.258ZM119.456 83.9404L129.213 59.339H134.161L143.814 83.9404H138.029L130.642 63.5205H132.628L125.136 83.9404H119.456ZM124.997 79.4801V75.0198H138.412V79.4801H124.997ZM156.075 84.3237C154.054 84.3237 152.265 83.894 150.708 83.0344C149.175 82.1749 147.967 80.9901 147.084 79.4801C146.225 77.9469 145.795 76.2046 145.795 74.2532V59.339H151.301V74.5668C151.301 75.5425 151.51 76.3904 151.928 77.1106C152.346 77.8307 152.915 78.3883 153.636 78.7832C154.379 79.1549 155.192 79.3407 156.075 79.3407C157.004 79.3407 157.817 79.1549 158.514 78.7832C159.211 78.3883 159.757 77.8423 160.152 77.1454C160.57 76.4253 160.779 75.5773 160.779 74.6016V59.339H166.285V74.288C166.285 76.2394 165.855 77.9701 164.995 79.4801C164.136 80.9901 162.939 82.1749 161.406 83.0344C159.873 83.894 158.096 84.3237 156.075 84.3237ZM170.646 83.9404V59.339H176.117V83.9404H170.646ZM174.862 83.9404V79.1316H187.023V83.9404H174.862ZM193.655 83.9404V59.6874H199.126V83.9404H193.655ZM185.954 64.1129V59.339H206.827V64.1129H185.954Z" fill="#050B20"/>
<path d="M201.614 19.7558C205.378 17.8191 188.557 20.6458 167.096 9.95158C145.629 -0.756828 132.343 0.012127 113.097 0.012127C93.8517 0.012127 82.2674 8.61303 71.8764 15.1064C61.4855 21.5998 71.7051 19.4994 39.0025 23.7073C6.29987 27.901 6.29987 41.6567 6.29987 41.6567C6.29987 41.6567 14.7992 29.3819 50.4027 29.3819C86.0061 29.3819 180.781 30.4784 201.614 19.7558ZM72.5429 21.2509C76.0912 17.9473 90.3288 5.43041 103.303 4.2129C118.264 2.81027 138.139 2.17659 149.831 7.65184C161.523 13.1271 163.18 19.592 163.18 19.592L72.8032 22.0128C72.435 22.027 72.2573 21.5144 72.5429 21.2509Z" fill="#FF3600"/>
<path d="M57.1374 32.4708C23.7556 29.2098 9.20703 41.6555 9.20703 41.6555C9.20703 41.6555 28.8146 31.2319 57.7468 37.1059C86.6789 42.9798 123.501 41.4206 142.277 39.427C178.566 35.5608 202.763 22.04 202.763 22.04C128.497 40.203 90.5192 35.7388 57.1374 32.4708Z" fill="#FF3600"/>
<path d="M76.8593 20.8302H83.0175C83.7793 20.8302 84.4903 20.2462 84.611 19.3988C84.7697 18.3235 84.0332 17.3906 83.1 17.3906H79.4241C78.6623 17.3906 77.9322 17.7467 77.4053 18.3662L76.3831 19.5839C75.9895 20.0611 76.2815 20.8302 76.8593 20.8302Z" fill="#FF3600"/>
<path d="M199.703 25.6001C180.178 36.4224 160.653 38.3092 160.653 38.3092C192.048 38.1383 199.703 25.6001 199.703 25.6001Z" fill="#FF3600"/>
</svg>
