<svg width="99" height="41" viewBox="0 0 99 41" fill="none" xmlns="http://www.w3.org/2000/svg">
<path d="M0.248908 40.0007L4.89518 28.2855H7.25151L11.848 40.0007H9.09342L5.57553 30.2767H6.52138L2.9537 40.0007H0.248908ZM2.88733 37.8767V35.7527H9.27595V37.8767H2.88733ZM17.6868 40.1833C16.7244 40.1833 15.8726 39.9786 15.1314 39.5693C14.4012 39.16 13.826 38.5958 13.4056 37.8767C12.9963 37.1466 12.7916 36.3169 12.7916 35.3876V28.2855H15.4135V35.537C15.4135 36.0016 15.513 36.4054 15.7122 36.7483C15.9113 37.0913 16.1823 37.3568 16.5253 37.5448C16.8793 37.7218 17.2664 37.8103 17.6868 37.8103C18.1293 37.8103 18.5165 37.7218 18.8484 37.5448C19.1803 37.3568 19.4402 37.0968 19.6283 36.7649C19.8274 36.422 19.927 36.0182 19.927 35.5536V28.2855H22.5488V35.4042C22.5488 36.3335 22.3442 37.1577 21.9348 37.8767C21.5255 38.5958 20.9558 39.16 20.2257 39.5693C19.4956 39.9786 18.6493 40.1833 17.6868 40.1833ZM27.4314 40.0007V28.4514H30.0367V40.0007H27.4314ZM23.7642 30.5588V28.2855H33.7039V30.5588H23.7642ZM40.135 40.1999C39.25 40.1999 38.4314 40.045 37.6792 39.7352C36.938 39.4255 36.2853 38.994 35.7211 38.4409C35.1569 37.8878 34.7199 37.2462 34.4102 36.516C34.1004 35.7748 33.9455 34.9783 33.9455 34.1265C33.9455 33.2636 34.1004 32.4671 34.4102 31.737C34.7199 31.0069 35.1514 30.3708 35.7045 29.8287C36.2576 29.2756 36.9048 28.8497 37.646 28.551C38.3982 28.2412 39.2168 28.0864 40.1019 28.0864C40.9758 28.0864 41.7834 28.2412 42.5246 28.551C43.2768 28.8497 43.9295 29.2756 44.4826 29.8287C45.0468 30.3708 45.4838 31.0124 45.7935 31.7536C46.1033 32.4837 46.2582 33.2802 46.2582 34.1431C46.2582 34.9949 46.1033 35.7914 45.7935 36.5326C45.4838 37.2627 45.0523 37.9044 44.4992 38.4575C43.9461 38.9996 43.2934 39.4255 42.5411 39.7352C41.8 40.045 40.9979 40.1999 40.135 40.1999ZM40.1019 37.8269C40.7988 37.8269 41.4072 37.6721 41.9272 37.3623C42.4582 37.0526 42.8675 36.6211 43.1551 36.068C43.4427 35.5038 43.5866 34.8566 43.5866 34.1265C43.5866 33.5734 43.5036 33.0756 43.3376 32.6331C43.1717 32.1795 42.9339 31.7923 42.6241 31.4715C42.3144 31.1396 41.9438 30.8907 41.5123 30.7248C41.0919 30.5478 40.6218 30.4593 40.1019 30.4593C39.4049 30.4593 38.7909 30.6142 38.2599 30.9239C37.74 31.2226 37.3362 31.6485 37.0486 32.2016C36.761 32.7437 36.6171 33.3853 36.6171 34.1265C36.6171 34.6796 36.7001 35.183 36.8661 35.6366C37.032 36.0901 37.2643 36.4828 37.563 36.8147C37.8727 37.1355 38.2433 37.3844 38.6748 37.5614C39.1062 37.7384 39.5819 37.8269 40.1019 37.8269ZM51.0765 40.0007L46.5629 28.2855H49.3507L52.7856 37.7606H51.6407L55.1254 28.2855H57.8799L53.3166 40.0007H51.0765ZM56.8851 40.0007L61.5314 28.2855H63.8877L68.4842 40.0007H65.7296L62.2117 30.2767H63.1576L59.5899 40.0007H56.8851ZM59.5235 37.8767V35.7527H65.9121V37.8767H59.5235ZM74.323 40.1833C73.3606 40.1833 72.5087 39.9786 71.7676 39.5693C71.0374 39.16 70.4622 38.5958 70.0418 37.8767C69.6325 37.1466 69.4278 36.3169 69.4278 35.3876V28.2855H72.0496V35.537C72.0496 36.0016 72.1492 36.4054 72.3483 36.7483C72.5475 37.0913 72.8185 37.3568 73.1614 37.5448C73.5154 37.7218 73.9026 37.8103 74.323 37.8103C74.7655 37.8103 75.1527 37.7218 75.4846 37.5448C75.8164 37.3568 76.0764 37.0968 76.2645 36.7649C76.4636 36.422 76.5632 36.0182 76.5632 35.5536V28.2855H79.185V35.4042C79.185 36.3335 78.9803 37.1577 78.571 37.8767C78.1617 38.5958 77.592 39.16 76.8619 39.5693C76.1317 39.9786 75.2854 40.1833 74.323 40.1833ZM81.2617 40.0007V28.2855H83.8669V40.0007H81.2617ZM83.2695 40.0007V37.7108H89.0608V40.0007H83.2695ZM92.2187 40.0007V28.4514H94.8239V40.0007H92.2187ZM88.5514 30.5588V28.2855H98.4911V30.5588H88.5514Z" fill="white"/>
<path d="M96.0089 9.38528C97.8014 8.46526 89.7912 9.80809 79.5714 4.72766C69.3486 -0.359543 63.022 0.0057611 53.8571 0.0057611C44.6923 0.0057611 39.1758 4.09176 34.2276 7.17655C29.2795 10.2613 34.146 9.26352 18.573 11.2625C3 13.2548 3 19.7897 3 19.7897C3 19.7897 7.04741 13.9584 24.0018 13.9584C40.9562 13.9584 86.0883 14.4792 96.0089 9.38528ZM34.545 10.0956C36.2347 8.52614 43.0147 2.5798 49.1931 2.0014C56.3176 1.33506 65.7817 1.03402 71.3496 3.63513C76.9174 6.23623 77.7064 9.30749 77.7064 9.30749L34.669 10.4575C34.4936 10.4643 34.409 10.2207 34.545 10.0956Z" fill="white"/>
<path d="M27.2088 15.4255C11.3123 13.8763 4.38428 19.7889 4.38428 19.7889C4.38428 19.7889 13.7214 14.837 27.499 17.6275C41.2765 20.418 58.8112 19.6772 67.7524 18.7301C85.0333 16.8935 96.5559 10.4702 96.5559 10.4702C61.1901 19.0988 43.1052 16.978 27.2088 15.4255Z" fill="white"/>
<path d="M36.6005 9.89572H39.533C39.8958 9.89572 40.2344 9.61831 40.2918 9.21573C40.3674 8.7049 40.0167 8.26172 39.5723 8.26172H37.8219C37.4591 8.26172 37.1114 8.43087 36.8605 8.72519L36.3737 9.30369C36.1863 9.53035 36.3254 9.89572 36.6005 9.89572Z" fill="white"/>
<path d="M95.0989 12.1616C85.801 17.3029 76.5032 18.1993 76.5032 18.1993C91.4535 18.1181 95.0989 12.1616 95.0989 12.1616Z" fill="white"/>
</svg>
