<svg width="99" height="41" viewBox="0 0 99 41" fill="none" xmlns="http://www.w3.org/2000/svg">
<path d="M0.248908 40.0005L4.89518 28.2852H7.25151L11.848 40.0005H9.09342L5.57553 30.2765H6.52138L2.9537 40.0005H0.248908ZM2.88733 37.8765V35.7525H9.27595V37.8765H2.88733ZM17.6868 40.183C16.7244 40.183 15.8726 39.9784 15.1314 39.569C14.4012 39.1597 13.826 38.5955 13.4056 37.8765C12.9963 37.1463 12.7916 36.3167 12.7916 35.3874V28.2852H15.4135V35.5367C15.4135 36.0014 15.513 36.4052 15.7122 36.7481C15.9113 37.091 16.1823 37.3565 16.5253 37.5446C16.8793 37.7216 17.2664 37.8101 17.6868 37.8101C18.1293 37.8101 18.5165 37.7216 18.8484 37.5446C19.1803 37.3565 19.4402 37.0966 19.6283 36.7647C19.8274 36.4218 19.927 36.018 19.927 35.5533V28.2852H22.5488V35.404C22.5488 36.3333 22.3442 37.1574 21.9348 37.8765C21.5255 38.5955 20.9558 39.1597 20.2257 39.569C19.4956 39.9784 18.6493 40.183 17.6868 40.183ZM27.4314 40.0005V28.4512H30.0367V40.0005H27.4314ZM23.7642 30.5586V28.2852H33.7039V30.5586H23.7642ZM40.135 40.1996C39.25 40.1996 38.4314 40.0447 37.6792 39.735C36.938 39.4252 36.2853 38.9938 35.7211 38.4407C35.1569 37.8875 34.7199 37.2459 34.4102 36.5158C34.1004 35.7746 33.9455 34.9781 33.9455 34.1263C33.9455 33.2634 34.1004 32.4669 34.4102 31.7368C34.7199 31.0066 35.1514 30.3705 35.7045 29.8285C36.2576 29.2753 36.9048 28.8494 37.646 28.5507C38.3982 28.241 39.2168 28.0861 40.1019 28.0861C40.9758 28.0861 41.7834 28.241 42.5246 28.5507C43.2768 28.8494 43.9295 29.2753 44.4826 29.8285C45.0468 30.3705 45.4838 31.0122 45.7935 31.7534C46.1033 32.4835 46.2582 33.28 46.2582 34.1429C46.2582 34.9947 46.1033 35.7912 45.7935 36.5324C45.4838 37.2625 45.0523 37.9041 44.4992 38.4573C43.9461 38.9993 43.2934 39.4252 42.5411 39.735C41.8 40.0447 40.9979 40.1996 40.135 40.1996ZM40.1019 37.8267C40.7988 37.8267 41.4072 37.6718 41.9272 37.3621C42.4582 37.0523 42.8675 36.6209 43.1551 36.0677C43.4427 35.5036 43.5866 34.8564 43.5866 34.1263C43.5866 33.5731 43.5036 33.0753 43.3376 32.6328C43.1717 32.1793 42.9339 31.7921 42.6241 31.4713C42.3144 31.1394 41.9438 30.8905 41.5123 30.7245C41.0919 30.5475 40.6218 30.459 40.1019 30.459C39.4049 30.459 38.7909 30.6139 38.2599 30.9237C37.74 31.2223 37.3362 31.6483 37.0486 32.2014C36.761 32.7435 36.6171 33.3851 36.6171 34.1263C36.6171 34.6794 36.7001 35.1827 36.8661 35.6363C37.032 36.0899 37.2643 36.4826 37.563 36.8145C37.8727 37.1353 38.2433 37.3842 38.6748 37.5612C39.1062 37.7382 39.5819 37.8267 40.1019 37.8267Z" fill="#FF3600"/>
<path d="M51.0765 40.0005L46.5629 28.2852H49.3507L52.7856 37.7603H51.6407L55.1254 28.2852H57.8799L53.3166 40.0005H51.0765ZM56.8851 40.0005L61.5314 28.2852H63.8877L68.4842 40.0005H65.7296L62.2117 30.2765H63.1576L59.5899 40.0005H56.8851ZM59.5235 37.8765V35.7525H65.9121V37.8765H59.5235ZM74.323 40.183C73.3606 40.183 72.5087 39.9784 71.7676 39.569C71.0374 39.1597 70.4622 38.5955 70.0418 37.8765C69.6325 37.1463 69.4278 36.3167 69.4278 35.3874V28.2852H72.0496V35.5367C72.0496 36.0014 72.1492 36.4052 72.3483 36.7481C72.5475 37.091 72.8185 37.3565 73.1614 37.5446C73.5154 37.7216 73.9026 37.8101 74.323 37.8101C74.7655 37.8101 75.1527 37.7216 75.4846 37.5446C75.8164 37.3565 76.0764 37.0966 76.2645 36.7647C76.4636 36.4218 76.5632 36.018 76.5632 35.5533V28.2852H79.185V35.404C79.185 36.3333 78.9803 37.1574 78.571 37.8765C78.1617 38.5955 77.592 39.1597 76.8619 39.569C76.1317 39.9784 75.2854 40.183 74.323 40.183ZM81.2617 40.0005V28.2852H83.8669V40.0005H81.2617ZM83.2695 40.0005V37.7105H89.0608V40.0005H83.2695ZM92.2187 40.0005V28.4512H94.8239V40.0005H92.2187ZM88.5514 30.5586V28.2852H98.4911V30.5586H88.5514Z" fill="white"/>
<path d="M96.0089 9.38528C97.8014 8.46526 89.7912 9.80809 79.5714 4.72766C69.3486 -0.359543 63.022 0.0057611 53.8571 0.0057611C44.6923 0.0057611 39.1758 4.09176 34.2276 7.17655C29.2795 10.2613 34.146 9.26352 18.573 11.2625C3 13.2548 3 19.7897 3 19.7897C3 19.7897 7.04741 13.9584 24.0018 13.9584C40.9562 13.9584 86.0883 14.4792 96.0089 9.38528ZM34.545 10.0956C36.2347 8.52614 43.0147 2.5798 49.1931 2.0014C56.3176 1.33506 65.7817 1.03402 71.3496 3.63513C76.9174 6.23623 77.7064 9.30749 77.7064 9.30749L34.669 10.4575C34.4936 10.4643 34.409 10.2207 34.545 10.0956Z" fill="#FF3600"/>
<path d="M27.2089 15.4255C11.3125 13.8763 4.3844 19.7889 4.3844 19.7889C4.3844 19.7889 13.7216 14.837 27.4991 17.6275C41.2766 20.418 58.8114 19.6772 67.7526 18.7302C85.0334 16.8935 96.556 10.4702 96.556 10.4702C61.1903 19.0988 43.1054 16.978 27.2089 15.4255Z" fill="#FF3600"/>
<path d="M36.6005 9.89572H39.533C39.8958 9.89572 40.2344 9.61831 40.2918 9.21573C40.3674 8.7049 40.0167 8.26172 39.5723 8.26172H37.8219C37.4591 8.26172 37.1114 8.43087 36.8605 8.72519L36.3737 9.30369C36.1863 9.53035 36.3254 9.89572 36.6005 9.89572Z" fill="#FF3600"/>
<path d="M95.0989 12.1616C85.801 17.3029 76.5032 18.1993 76.5032 18.1993C91.4535 18.1181 95.0989 12.1616 95.0989 12.1616Z" fill="#FF3600"/>
</svg>
