<svg width="16" height="15" viewBox="0 0 16 15" fill="none" xmlns="http://www.w3.org/2000/svg">
<path d="M11.6277 1.375C12.0372 1.37466 12.4427 1.45607 12.8204 1.61448C13.1981 1.77289 13.5403 2.0051 13.8271 2.2975C14.4179 2.89734 14.7491 3.70553 14.7491 4.5475C14.7491 5.38948 14.4179 6.19766 13.8271 6.7975L7.99957 12.6981L2.17207 6.7975C1.58121 6.19766 1.25001 5.38948 1.25001 4.5475C1.25001 3.70553 1.58121 2.89734 2.17207 2.2975C2.459 2.00531 2.80127 1.77322 3.17889 1.61479C3.55652 1.45636 3.96193 1.37476 4.37144 1.37476C4.78096 1.37476 5.18637 1.45636 5.56399 1.61479C5.94162 1.77322 6.28389 2.00531 6.57082 2.2975L7.99957 3.76L9.4227 2.30875C9.70858 2.01287 10.0512 1.77767 10.4301 1.61724C10.8089 1.4568 11.2163 1.37441 11.6277 1.375V1.375ZM11.6277 0.250002C11.0684 0.249527 10.5146 0.360733 9.99876 0.577096C9.48296 0.79346 9.01556 1.11063 8.62395 1.51L7.99957 2.14L7.37519 1.51C6.9831 1.11135 6.51558 0.794732 5.99988 0.578609C5.48417 0.362486 4.9306 0.25118 4.37144 0.25118C3.81228 0.25118 3.25872 0.362486 2.74301 0.578609C2.22731 0.794732 1.75978 1.11135 1.36769 1.51C0.57 2.32204 0.123047 3.41483 0.123047 4.55313C0.123047 5.69142 0.57 6.78421 1.36769 7.59625L7.99957 14.3125L14.6314 7.59625C15.4291 6.78421 15.8761 5.69142 15.8761 4.55313C15.8761 3.41483 15.4291 2.32204 14.6314 1.51C14.2395 1.11113 13.772 0.794301 13.2563 0.577973C12.7406 0.361646 12.1869 0.250155 11.6277 0.250002V0.250002Z" fill="#FF3600"/>
</svg>
