<svg width="18" height="14" viewBox="0 0 18 14" fill="none" xmlns="http://www.w3.org/2000/svg">
<path fill-rule="evenodd" clip-rule="evenodd" d="M14.0998 2.5518C15.5934 3.61747 16.7419 5.09743 17.4035 6.80875C17.4482 6.93234 17.4482 7.06766 17.4035 7.19125C16.7419 8.90257 15.5934 10.3825 14.0998 11.4482C12.6063 12.5139 10.8332 13.1186 8.99976 13.1875C7.1663 13.1186 5.39323 12.5139 3.89969 11.4482C2.40614 10.3825 1.2576 8.90257 0.596011 7.19125C0.55133 7.06766 0.55133 6.93234 0.596011 6.80875C1.2576 5.09743 2.40614 3.61747 3.89969 2.5518C5.39323 1.48612 7.1663 0.881447 8.99976 0.8125C10.8332 0.881447 12.6063 1.48612 14.0998 2.5518ZM1.72664 7C2.86851 9.85188 6.01851 12.0625 8.99976 12.0625C11.981 12.0625 15.131 9.85188 16.2729 7C15.131 4.14812 11.981 1.9375 8.99976 1.9375C6.01851 1.9375 2.86851 4.14812 1.72664 7ZM7.12471 4.19379C7.67973 3.82294 8.33225 3.625 8.99976 3.625C9.89487 3.625 10.7533 3.98058 11.3862 4.61351C12.0192 5.24645 12.3748 6.10489 12.3748 7C12.3748 7.66751 12.1768 8.32003 11.806 8.87505C11.4351 9.43007 10.908 9.86265 10.2913 10.1181C9.67462 10.3735 8.99602 10.4404 8.34133 10.3102C7.68665 10.1799 7.08528 9.85849 6.61328 9.38649C6.14127 8.91448 5.81984 8.31312 5.68961 7.65843C5.55939 7.00374 5.62622 6.32514 5.88167 5.70844C6.13711 5.09174 6.5697 4.56464 7.12471 4.19379ZM7.74973 8.87081C8.11974 9.11804 8.55475 9.25 8.99976 9.25C9.5965 9.25 10.1688 9.01295 10.5908 8.59099C11.0127 8.16903 11.2498 7.59674 11.2498 7C11.2498 6.55499 11.1178 6.11998 10.8706 5.74997C10.6233 5.37996 10.2719 5.09157 9.8608 4.92127C9.44967 4.75097 8.99727 4.70642 8.56081 4.79323C8.12435 4.88005 7.72344 5.09434 7.40877 5.40901C7.0941 5.72368 6.87981 6.12459 6.79299 6.56105C6.70618 6.9975 6.75073 7.4499 6.92103 7.86104C7.09133 8.27217 7.37972 8.62357 7.74973 8.87081Z" fill="#FF3600"/>
</svg>
