<svg width="18" height="18" viewBox="0 0 18 18" fill="none" xmlns="http://www.w3.org/2000/svg">
<path d="M13.1893 10.3703C13.0812 10.3095 12.9588 10.2406 12.8113 10.1518C12.7289 10.1021 12.6254 10.0341 12.5157 9.96213C11.9527 9.59256 11.526 9.33098 11.1628 9.33098C11.0778 9.33098 10.9973 9.34539 10.924 9.37368C10.6058 9.49621 10.3445 9.82354 10.0918 10.1401C9.99923 10.256 9.86669 10.4221 9.78627 10.4962C9.46725 10.4382 8.79437 10.0214 8.06827 9.29531C7.34131 8.56836 6.92439 7.89471 6.86716 7.57645C6.94127 7.49574 7.10858 7.36222 7.22527 7.26902C7.54059 7.01728 7.86665 6.75698 7.98985 6.43978C8.14702 6.03224 7.85898 5.54483 7.40149 4.84788C7.32951 4.73818 7.26149 4.63458 7.21214 4.55288C7.12303 4.40479 7.05416 4.28227 6.99339 4.17428C6.74395 3.73098 6.57916 3.43799 5.95989 3.43799C5.55797 3.43799 4.98972 3.81779 4.60481 4.19443C4.04542 4.74193 3.7373 5.37402 3.7373 5.97551C3.73837 7.60918 4.65011 9.48159 6.23878 11.1145C6.2415 11.1172 6.24423 11.1179 6.24704 11.1207C7.87995 12.7094 9.75337 13.618 11.387 13.618H11.3876C11.9883 13.618 12.6206 13.3134 13.1681 12.7543C13.545 12.3695 13.9253 11.8053 13.9253 11.4037C13.9254 10.7845 13.6326 10.6198 13.1893 10.3703ZM11.3872 12.774C9.99565 12.773 8.29819 11.9297 6.84564 10.5181C5.43388 9.06535 4.59058 7.36776 4.58968 5.97637C4.58968 5.13473 5.68186 4.33452 5.96748 4.29066C6.02582 4.29092 6.05642 4.29437 6.07099 4.29684C6.10875 4.34031 6.1838 4.4737 6.25062 4.59247C6.3111 4.69995 6.3864 4.83377 6.48229 4.99311C6.54025 5.08913 6.61253 5.19921 6.68902 5.31572C6.83379 5.53631 7.12482 5.97969 7.17387 6.16895C7.09184 6.28508 6.83729 6.48828 6.69358 6.603C6.32576 6.89667 6.00809 7.15024 6.00809 7.50861C6.00899 8.37424 7.12397 9.55642 7.46567 9.89812C7.80737 10.2398 8.98956 11.3548 9.85702 11.3557C10.2131 11.3545 10.4656 11.0382 10.758 10.6719C10.8733 10.5274 11.0778 10.2714 11.1944 10.1898C11.3834 10.2385 11.8274 10.5298 12.0481 10.6748C12.1646 10.7512 12.2747 10.8235 12.3713 10.8818C12.5301 10.9773 12.6638 11.0527 12.7714 11.1131C12.8901 11.1799 13.0235 11.255 13.067 11.2928C13.0695 11.3073 13.0729 11.3379 13.0732 11.3962C13.029 11.6816 12.2285 12.773 11.3872 12.774Z" fill="white"/>
<path d="M17.3052 8.73165C17.2752 6.4286 16.3508 4.25234 14.7022 2.60371C13.0232 0.924697 10.8069 0 8.46156 0C6.19755 0 4.07959 0.87117 2.49774 2.45297C1.09403 3.85668 0.232833 5.72883 0.0726368 7.72462C-0.0792917 9.61816 0.402746 11.5344 1.43207 13.1455L0.0264829 16.9449C-0.0324986 17.1044 0.00892492 17.2837 0.131959 17.4011C0.212803 17.4783 0.318706 17.519 0.42627 17.519C0.482354 17.519 0.538949 17.5027 0.592603 17.4799L4.25333 15.9221C5.65082 16.7919 7.24878 17.2402 8.8896 17.2402H8.88977C11.1534 17.2402 13.2713 16.3794 14.853 14.7978C16.4642 13.1865 17.3351 11.0388 17.3052 8.73165ZM14.2502 14.2055C12.8294 15.6262 10.9257 16.4086 8.88956 16.4086C7.33946 16.4085 5.83134 15.9548 4.52821 15.0965C4.45755 15.0499 4.3759 15.0262 4.29378 15.0262C4.2374 15.0262 4.1808 15.0374 4.1274 15.0601L1.16827 16.3151L2.30613 13.2394C2.35374 13.1107 2.33644 12.9669 2.25968 12.8532C0.168226 9.7547 0.521817 5.63427 3.10042 3.0557C4.52127 1.63486 6.42521 0.852334 8.46156 0.852334C10.5792 0.852334 12.5815 1.68835 14.0995 3.20639C15.5901 4.69696 16.4259 6.66312 16.4529 8.74273C16.4798 10.8181 15.6976 12.7581 14.2502 14.2055Z" fill="white"/>
</svg>
