<svg width="42" height="33" viewBox="0 0 42 33" fill="none" xmlns="http://www.w3.org/2000/svg">
<path d="M15.75 0.53125H3.9375C1.76623 0.53125 0 2.29748 0 4.46875V16.2812C0 18.4525 1.76623 20.2188 3.9375 20.2188H9.23556L7.2431 30.4682C7.16811 30.8533 7.26937 31.2513 7.51867 31.5538C7.76797 31.8563 8.13904 32.0312 8.53125 32.0312H12.7834C13.9248 32.0312 14.9393 31.2846 15.2847 30.2035L19.1056 21.1403C19.1274 21.0884 19.146 21.0352 19.1607 20.9814C19.5106 19.724 19.6875 18.4237 19.6875 17.1169V4.46875C19.6875 2.29748 17.9213 0.53125 15.75 0.53125Z" fill="#D0D0D0"/>
<path d="M38.0625 0.53125H26.25C24.0787 0.53125 22.3125 2.29748 22.3125 4.46875V16.2812C22.3125 18.4525 24.0787 20.2188 26.25 20.2188H31.5487L29.5556 30.4682C29.48 30.8533 29.5812 31.2513 29.8312 31.5538C30.0798 31.8563 30.4515 32.0312 30.8438 32.0312H35.0966C36.2386 32.0312 37.2524 31.2846 37.5972 30.2028L41.4181 21.1403C41.4399 21.0884 41.4578 21.0352 41.4732 20.9814C41.8231 19.7227 42 18.4224 42 17.1169V4.46875C42 2.29748 40.2338 0.53125 38.0625 0.53125Z" fill="#D0D0D0"/>
</svg>
