<svg width="42" height="32" viewBox="0 0 42 32" fill="none" xmlns="http://www.w3.org/2000/svg">
<path d="M26.25 0H38.0625C40.2338 0 42 1.76623 42 3.9375V15.75C42 17.9213 40.2338 19.6875 38.0625 19.6875H32.7644L34.7569 29.9369C34.8319 30.3221 34.7306 30.7201 34.4813 31.0226C34.232 31.325 33.861 31.5 33.4688 31.5H29.2166C28.0752 31.5 27.0607 30.7534 26.7153 29.6722L22.8944 20.6091C22.8726 20.5572 22.854 20.504 22.8393 20.4501C22.4894 19.1928 22.3125 17.8924 22.3125 16.5857V3.9375C22.3125 1.76623 24.0787 0 26.25 0Z" fill="#F6F6F6"/>
<path d="M3.9375 0H15.75C17.9213 0 19.6875 1.76623 19.6875 3.9375V15.75C19.6875 17.9213 17.9213 19.6875 15.75 19.6875H10.4513L12.4444 29.9369C12.52 30.3221 12.4188 30.7201 12.1688 31.0226C11.9202 31.325 11.5485 31.5 11.1562 31.5H6.90345C5.76141 31.5 4.74756 30.7534 4.40278 29.6716L0.581924 20.6091C0.560137 20.5571 0.542194 20.504 0.526812 20.4501C0.176886 19.1915 0 17.8911 0 16.5857V3.9375C0 1.76623 1.76623 0 3.9375 0Z" fill="#F6F6F6"/>
</svg>
