<svg width="198" height="149" viewBox="0 0 198 149" fill="none" xmlns="http://www.w3.org/2000/svg">
<path d="M74.25 0H18.5625C8.32652 0 0 8.32652 0 18.5625V74.25C0 84.486 8.32652 92.8125 18.5625 92.8125H43.5391L34.146 141.131C33.7925 142.947 34.2699 144.823 35.4452 146.249C36.6204 147.675 38.3697 148.5 40.2188 148.5H60.2647C65.6455 148.5 70.4282 144.98 72.0566 139.883L90.0692 97.1571C90.1719 96.9123 90.2595 96.6616 90.329 96.4078C91.9786 90.4801 92.8125 84.35 92.8125 78.1897V18.5625C92.8125 8.32652 84.486 0 74.25 0Z" fill="#FD643B"/>
<path d="M179.438 0H123.75C113.514 0 105.188 8.32652 105.188 18.5625V74.25C105.188 84.486 113.514 92.8125 123.75 92.8125H148.73L139.334 141.131C138.977 142.947 139.454 144.823 140.633 146.249C141.805 147.675 143.557 148.5 145.406 148.5H165.455C170.839 148.5 175.619 144.98 177.244 139.88L195.257 97.157C195.359 96.9123 195.444 96.6615 195.516 96.4078C197.166 90.4741 198 84.344 198 78.1897V18.5625C198 8.32652 189.673 0 179.438 0Z" fill="#FD643B"/>
</svg>
