<svg width="42" height="32" viewBox="0 0 42 32" fill="none" xmlns="http://www.w3.org/2000/svg">
<path d="M15.75 0.25H3.9375C1.76623 0.25 0 2.01623 0 4.1875V16C0 18.1713 1.76623 19.9375 3.9375 19.9375H9.23556L7.2431 30.1869C7.16811 30.5721 7.26937 30.9701 7.51867 31.2726C7.76797 31.575 8.13904 31.75 8.53125 31.75H12.7834C13.9248 31.75 14.9393 31.0034 15.2847 29.9222L19.1056 20.8591C19.1274 20.8072 19.146 20.754 19.1607 20.7001C19.5106 19.4428 19.6875 18.1424 19.6875 16.8357V4.1875C19.6875 2.01623 17.9213 0.25 15.75 0.25Z" fill="#FF3600"/>
<path d="M38.0625 0.25H26.25C24.0787 0.25 22.3125 2.01623 22.3125 4.1875V16C22.3125 18.1713 24.0787 19.9375 26.25 19.9375H31.5487L29.5556 30.1869C29.48 30.5721 29.5812 30.9701 29.8312 31.2726C30.0798 31.575 30.4515 31.75 30.8438 31.75H35.0966C36.2386 31.75 37.2524 31.0034 37.5972 29.9216L41.4181 20.8591C41.4399 20.8071 41.4578 20.754 41.4732 20.7001C41.8231 19.4415 42 18.1411 42 16.8357V4.1875C42 2.01623 40.2338 0.25 38.0625 0.25Z" fill="#FF3600"/>
</svg>
