<svg width="60" height="45" viewBox="0 0 60 45" fill="none" xmlns="http://www.w3.org/2000/svg">
<path d="M22.5 0H5.625C2.52319 0 0 2.52319 0 5.625V22.5C0 25.6018 2.52319 28.125 5.625 28.125H13.1937L10.3473 42.767C10.2402 43.3173 10.3848 43.8858 10.741 44.3179C11.0971 44.7501 11.6272 45 12.1875 45H18.262C19.8926 45 21.3419 43.9334 21.8353 42.3889L27.2937 29.4415C27.3248 29.3674 27.3514 29.2914 27.3724 29.2145C27.8723 27.4182 28.125 25.5606 28.125 23.6939V5.625C28.125 2.52319 25.6018 0 22.5 0Z" fill="#FF3600"/>
<path d="M54.375 0H37.5C34.3982 0 31.875 2.52319 31.875 5.625V22.5C31.875 25.6018 34.3982 28.125 37.5 28.125H45.0696L42.2223 42.767C42.1143 43.3173 42.2589 43.8858 42.616 44.3179C42.9712 44.7501 43.5022 45 44.0625 45H50.1379C51.7694 45 53.2178 43.9334 53.7103 42.388L59.1687 29.4415C59.1998 29.3674 59.2254 29.2914 59.2474 29.2145C59.7473 27.4164 60 25.5588 60 23.6939V5.625C60 2.52319 57.4768 0 54.375 0Z" fill="#FF3600"/>
</svg>
