<svg width="32" height="32" viewBox="0 0 32 32" fill="none" xmlns="http://www.w3.org/2000/svg">
<path d="M11.7388 14.8643V15.5886" stroke="#FF3600" stroke-miterlimit="10" stroke-linecap="round" stroke-linejoin="round"/>
<path d="M19.2837 14.8643V15.5886" stroke="#FF3600" stroke-miterlimit="10" stroke-linecap="round" stroke-linejoin="round"/>
<path d="M14.457 15.5664C14.6987 15.8437 15.0541 16.0192 15.4508 16.0192C15.8475 16.0192 16.203 15.8437 16.4446 15.5664" stroke="#FF3600" stroke-miterlimit="10" stroke-linecap="round" stroke-linejoin="round"/>
<path d="M24.5123 21.9786C24.5305 21.4784 24.5407 20.9762 24.5407 20.4716C24.5407 16.825 23.9833 13.3826 23.7771 12.6663C23.3365 11.1353 21.9212 10.0623 20.3 10.0623H10.6728C8.93419 10.0623 7.43197 11.296 7.11519 13.0055C6.67207 15.3966 6.43213 17.9108 6.43213 20.4716C6.43213 20.9759 6.4413 21.478 6.45947 21.978C6.45947 21.9783 6.45947 21.9786 6.45953 21.9789" stroke="#FF3600" stroke-miterlimit="10" stroke-linecap="round" stroke-linejoin="round"/>
<path d="M7.81787 27.9521C8.54481 28.7179 9.58183 29.1896 10.7546 29.1896H20.2188C21.3913 29.1896 22.4284 28.718 23.1555 27.9522" stroke="#FF3600" stroke-miterlimit="10" stroke-linecap="round" stroke-linejoin="round"/>
<path d="M24.5407 20.4717H13.4744H6.43213" stroke="#FF3600" stroke-miterlimit="10" stroke-linecap="round" stroke-linejoin="round"/>
<path d="M6.45975 21.9795C6.05895 21.7474 5.59476 21.6143 5.10154 21.6143C3.60137 21.6143 2.38525 22.8304 2.38525 24.3305C2.38525 25.1619 2.38525 27.3781 2.38525 28.2843C2.38525 29.7844 3.60137 31.0006 5.10154 31.0006C6.58862 31.0006 7.81783 29.7951 7.81783 28.2843C7.81783 28.1787 7.81783 28.0676 7.81783 27.9523C7.81783 26.8479 7.81783 25.3409 7.81783 24.3305C7.81789 23.3212 7.26854 22.4479 6.45975 21.9795Z" stroke="#FF3600" stroke-miterlimit="10" stroke-linecap="round" stroke-linejoin="round"/>
<path d="M23.1553 24.3305C23.1553 25.0732 23.1553 26.9206 23.1553 27.9523C23.1553 28.0755 23.1553 28.1877 23.1553 28.2843C23.1553 29.7844 24.3714 31.0006 25.8716 31.0006C27.3586 31.0006 28.5879 29.7951 28.5879 28.2843C28.5879 27.1683 28.5879 25.4465 28.5879 24.3305C28.5879 22.821 27.3602 21.6143 25.8716 21.6143C25.3762 21.6143 24.9122 21.7475 24.5123 21.9791C23.7013 22.4491 23.1553 23.3258 23.1553 24.3305Z" stroke="#FF3600" stroke-miterlimit="10" stroke-linecap="round" stroke-linejoin="round"/>
<path d="M28.3198 8.90899C29.8199 8.90899 31.0361 7.69287 31.0361 6.1927C31.0361 5.19262 30.2253 4.38184 29.2252 4.38184H24.2742C23.2741 4.38184 22.4634 5.19256 22.4634 6.1927C22.4634 7.69287 23.6795 8.90899 25.1797 8.90899H25.3915H28.1078H28.3198Z" stroke="#FF3600" stroke-miterlimit="10" stroke-linecap="round" stroke-linejoin="round"/>
<path d="M29.2254 6.19238H24.2744" stroke="#FF3600" stroke-miterlimit="10" stroke-linecap="round" stroke-linejoin="round"/>
<path d="M14.0583 8.25088C13.734 5.6972 11.5492 3.71582 8.90883 3.71582C6.04562 3.71582 3.71631 6.04519 3.71631 8.90834C3.71631 11.0933 5.07349 12.966 6.98853 13.7313" stroke="#FF3600" stroke-miterlimit="10" stroke-linejoin="round"/>
<path d="M6.98853 13.7313C5.07349 12.966 3.71631 11.0933 3.71631 8.90834C3.71631 6.04513 6.04568 3.71582 8.90883 3.71582C11.5492 3.71582 13.734 5.6972 14.0583 8.25088" stroke="#FF3600" stroke-miterlimit="10" stroke-linejoin="round"/>
<path d="M16.7902 8.25135C16.4548 4.19689 13.0484 1 8.90881 1C4.56854 1 1 4.52949 1 8.90881C1 12.4943 3.38865 15.501 6.6264 16.4805" stroke="#FF3600" stroke-miterlimit="10" stroke-linecap="round" stroke-linejoin="round"/>
<path d="M19.3903 10.0618C19.3903 9.0617 18.5796 8.25098 17.5794 8.25098H13.3944C12.3943 8.25098 11.5835 9.0617 11.5835 10.0618" stroke="#FF3600" stroke-miterlimit="10" stroke-linecap="round" stroke-linejoin="round"/>
<path d="M24.2627 15.6903C26.5579 14.3102 28.1079 11.7974 28.1079 8.90918" stroke="#FF3600" stroke-miterlimit="10" stroke-linejoin="round"/>
<path d="M25.3921 8.90918C25.3921 10.3862 24.7711 11.7202 23.7778 12.6666" stroke="#FF3600" stroke-miterlimit="10" stroke-linejoin="round"/>
</svg>
