<svg width="60" height="60" viewBox="0 0 60 60" fill="none" xmlns="http://www.w3.org/2000/svg">
<rect width="60" height="60" rx="30" fill="#FF3600"/>
<path d="M46.9375 22.9531C46.9375 17.3875 42.4094 12.8594 36.8438 12.8594C31.2781 12.8594 26.75 17.3875 26.75 22.9531C26.75 23.1446 26.7554 23.3306 26.7669 23.5165C26.7848 23.8097 27.0421 24.041 27.3292 24.0146C27.6221 23.9969 27.8452 23.7451 27.8273 23.4522C27.8174 23.2875 27.8125 23.1228 27.8125 22.9531C27.8125 17.9732 31.8638 13.9219 36.8438 13.9219C41.8237 13.9219 45.875 17.9732 45.875 22.9531C45.875 25.2283 45.0179 27.4047 43.4963 29.0558C43.4923 29.0411 43.4856 29.0275 43.4815 29.013C43.4117 28.7657 43.3272 28.5241 43.2304 28.2877C43.209 28.2357 43.1854 28.1849 43.1628 28.1334C43.0687 27.919 42.9649 27.7091 42.8487 27.5053C42.8327 27.4771 42.819 27.4479 42.8025 27.42C42.6722 27.1988 42.526 26.9863 42.3701 26.7795C42.333 26.7303 42.2948 26.6821 42.2563 26.6337C42.0919 26.4273 41.9194 26.2259 41.7295 26.0361C40.4271 24.7331 38.6917 24.0156 36.8438 24.0156C36.6746 24.0156 36.5107 24.0213 36.347 24.0372C36.2845 24.0383 36.2248 24.0464 36.1643 24.0528C36.1142 24.0577 36.0641 24.0621 36.0141 24.068C35.923 24.0782 35.8322 24.0885 35.7384 24.1049C35.6357 24.122 35.5333 24.1396 35.4596 24.1578C35.4392 24.1616 35.4208 24.1667 35.4009 24.1706C35.356 24.1801 35.3112 24.1894 35.2665 24.1999C35.237 24.2067 35.2059 24.2117 35.1766 24.2195L35.1133 24.2356C35.0401 24.2535 34.9686 24.2722 34.9341 24.2859C34.8434 24.3119 34.7524 24.3422 34.6615 24.3722C34.6223 24.3853 34.583 24.3978 34.544 24.4116C34.4546 24.4428 34.3675 24.4767 34.2944 24.5074C34.164 24.5527 34.0344 24.6104 33.9089 24.6715C33.8994 24.676 33.8895 24.6788 33.8801 24.6833C33.8795 24.6836 33.8792 24.6842 33.8787 24.6844C33.8759 24.6858 33.873 24.6866 33.8703 24.688C33.8374 24.7044 33.8149 24.7311 33.7871 24.7529C33.7608 24.7735 33.73 24.7896 33.7085 24.8143C33.6844 24.8419 33.6713 24.8755 33.6536 24.907C33.6379 24.9349 33.6171 24.9598 33.6067 24.9901C33.595 25.0239 33.5954 25.0599 33.5907 25.0955C33.5864 25.1276 33.5765 25.1585 33.5783 25.1913C33.5802 25.2278 33.5955 25.2632 33.6052 25.2994C33.6134 25.33 33.6139 25.3613 33.628 25.391C33.6288 25.3926 33.6303 25.3935 33.6311 25.3951C33.632 25.397 33.6317 25.399 33.6326 25.4008C33.6493 25.4342 33.6764 25.4573 33.6987 25.4855C33.719 25.5112 33.7346 25.5413 33.7587 25.5625C33.788 25.5881 33.8235 25.6025 33.8572 25.6209C33.8833 25.6352 33.9062 25.6547 33.9342 25.6644C33.9708 25.6771 34.0098 25.6772 34.0484 25.6817C34.0777 25.6852 34.1056 25.6947 34.1354 25.6931C34.1734 25.6911 34.2101 25.6755 34.2477 25.665C34.2771 25.6569 34.3071 25.6567 34.3356 25.6431C34.5257 25.5529 34.7192 25.4747 34.9152 25.406C34.9365 25.399 34.9592 25.3916 34.9808 25.3845C35.1647 25.3224 35.3507 25.2686 35.5392 25.2255C35.5548 25.2221 35.573 25.2182 35.59 25.2147C35.7721 25.1748 35.9564 25.1446 36.1422 25.1224C36.158 25.1206 36.1712 25.1184 36.1875 25.1165C36.2172 25.1128 36.2471 25.1113 36.277 25.1092C36.4645 25.0911 36.6531 25.0781 36.8438 25.0781C38.4079 25.0781 39.8764 25.6851 40.9783 26.7873C41.0904 26.8994 41.1968 27.0155 41.2984 27.1345C41.3323 27.1741 41.3626 27.2159 41.3953 27.2562C41.4608 27.3372 41.5263 27.4181 41.5871 27.5019C41.6233 27.5519 41.6561 27.6038 41.6906 27.6548C41.7427 27.7317 41.795 27.8086 41.8432 27.8877C41.8773 27.9437 41.9082 28.0013 41.9403 28.0584C41.9837 28.1355 42.027 28.2127 42.0667 28.2917C42.0968 28.3515 42.1243 28.4126 42.1523 28.4735C42.1885 28.5524 42.2241 28.6315 42.2567 28.7121C42.2822 28.7749 42.3055 28.8386 42.3288 28.9024C42.3582 28.9834 42.3864 29.0648 42.4123 29.1472C42.4328 29.2127 42.4518 29.2786 42.47 29.3449C42.4928 29.4282 42.5137 29.5121 42.5329 29.5966C42.5481 29.6637 42.5625 29.7311 42.5753 29.799C42.5823 29.8359 42.5872 29.8734 42.5935 29.9104C41.652 30.6923 40.5459 31.2824 39.3776 31.6233C39.0961 31.7055 38.9342 32.0005 39.0165 32.2822C39.0842 32.5141 39.2961 32.6648 39.5262 32.6648C39.5755 32.6648 39.6255 32.6578 39.6754 32.6432C41.0843 32.2322 42.4121 31.4976 43.5153 30.5196C43.5154 30.5194 43.5156 30.5194 43.5158 30.5193C43.5161 30.519 43.5163 30.5187 43.5166 30.5184C43.5171 30.518 43.5176 30.5176 43.5181 30.5172C43.5186 30.5168 43.5189 30.5162 43.5194 30.5157C45.6916 28.6088 46.9375 25.8528 46.9375 22.9531Z" fill="white"/>
<path d="M36.8438 22.4219C38.6014 22.4219 40.0312 20.9921 40.0312 19.2344C40.0312 17.4767 38.6014 16.0469 36.8438 16.0469C35.0861 16.0469 33.6562 17.4767 33.6562 19.2344C33.6562 20.9921 35.0861 22.4219 36.8438 22.4219ZM36.8438 17.1094C38.0155 17.1094 38.9688 18.0627 38.9688 19.2344C38.9688 20.4061 38.0155 21.3594 36.8438 21.3594C35.672 21.3594 34.7188 20.4061 34.7188 19.2344C34.7188 18.0627 35.672 17.1094 36.8438 17.1094Z" fill="white"/>
<path d="M37.2827 32.3185L34.6031 31.5507L32.8096 26.1658C32.5875 25.5152 31.98 25.0781 31.2975 25.0781H22.2025C21.52 25.0781 20.9125 25.5152 20.6891 26.1694L18.8969 31.5509L16.2212 32.3172C15.539 32.5078 15.0625 33.1377 15.0625 33.8492V37.8281C15.0625 38.707 15.7774 39.4219 16.6562 39.4219H18.25V41.5469C18.25 42.4257 18.9649 43.1406 19.8438 43.1406H23.0312C23.9101 43.1406 24.625 42.4257 24.625 41.5469V39.4219H28.875V41.5469C28.875 42.4257 29.5899 43.1406 30.4688 43.1406H33.6562C34.5351 43.1406 35.25 42.4257 35.25 41.5469V39.4219H36.8438C37.7226 39.4219 38.4375 38.707 38.4375 37.8281V33.8492C38.4375 33.1377 37.961 32.5078 37.2827 32.3185ZM23.5625 41.5469C23.5625 41.8397 23.3241 42.0781 23.0312 42.0781H19.8438C19.5509 42.0781 19.3125 41.8397 19.3125 41.5469V39.4219H23.5625V41.5469ZM34.1875 41.5469C34.1875 41.8397 33.9491 42.0781 33.6562 42.0781H30.4688C30.1759 42.0781 29.9375 41.8397 29.9375 41.5469V39.4219H34.1875V41.5469ZM37.375 37.8281C37.375 38.121 37.1366 38.3594 36.8438 38.3594H34.7188H29.4062H24.0938H18.7812H16.6562C16.3634 38.3594 16.125 38.121 16.125 37.8281V33.8492C16.125 33.6126 16.2822 33.4035 16.5105 33.3397L19.4588 32.4951C19.6274 32.4469 19.7613 32.3185 19.8165 32.1522L21.6959 26.5087C21.7711 26.2885 21.9747 26.1406 22.2025 26.1406H31.2975C31.5253 26.1406 31.7289 26.2885 31.8026 26.5048L33.6835 32.1522C33.739 32.3187 33.8728 32.4469 34.0415 32.4951L36.9929 33.3408C37.2178 33.4035 37.375 33.6126 37.375 33.8492V37.8281Z" fill="white"/>
<path d="M32.3768 32.2951C32.4767 32.1566 32.5039 31.9787 32.45 31.8168L31.037 27.5668C30.9649 27.3497 30.7618 27.2031 30.533 27.2031H22.9679C22.7391 27.2031 22.536 27.3497 22.4639 27.5668L21.0507 31.8168C20.9967 31.9787 21.0239 32.1566 21.1238 32.2951C21.2237 32.4337 21.384 32.5156 21.5547 32.5156H31.9459C32.1166 32.5156 32.2769 32.4337 32.3768 32.2951ZM22.2911 31.4531L23.351 28.2656H30.1499L31.2095 31.4531H22.2911Z" fill="white"/>
<path d="M32.5938 33.0469C31.422 33.0469 30.4688 34.0002 30.4688 35.1719C30.4688 36.3436 31.422 37.2969 32.5938 37.2969C33.7655 37.2969 34.7188 36.3436 34.7188 35.1719C34.7188 34.0002 33.7655 33.0469 32.5938 33.0469ZM32.5938 36.2344C32.0078 36.2344 31.5312 35.7579 31.5312 35.1719C31.5312 34.5859 32.0078 34.1094 32.5938 34.1094C33.1797 34.1094 33.6562 34.5859 33.6562 35.1719C33.6562 35.7579 33.1797 36.2344 32.5938 36.2344Z" fill="white"/>
<path d="M20.9062 33.0469C19.7345 33.0469 18.7812 34.0002 18.7812 35.1719C18.7812 36.3436 19.7345 37.2969 20.9062 37.2969C22.078 37.2969 23.0312 36.3436 23.0312 35.1719C23.0312 34.0002 22.078 33.0469 20.9062 33.0469ZM20.9062 36.2344C20.3203 36.2344 19.8438 35.7579 19.8438 35.1719C19.8438 34.5859 20.3203 34.1094 20.9062 34.1094C21.4922 34.1094 21.9688 34.5859 21.9688 35.1719C21.9688 35.7579 21.4922 36.2344 20.9062 36.2344Z" fill="white"/>
</svg>
