<svg width="60" height="60" viewBox="0 0 60 60" fill="none" xmlns="http://www.w3.org/2000/svg">
<rect width="60" height="60" rx="30" fill="#FF3600"/>
<path fill-rule="evenodd" clip-rule="evenodd" d="M26.8556 32.6221H34.1437C34.3835 32.6221 34.5774 32.8224 34.5774 33.0701V45.552C34.5774 45.7997 34.3835 46 34.1437 46H26.8556C26.6159 46 26.422 45.7997 26.422 45.552V33.0701C26.422 32.8224 26.6165 32.6221 26.8556 32.6221ZM39.9154 16.4838V16.2125C39.9154 15.9648 40.1093 15.7645 40.349 15.7645C40.5887 15.7645 40.7826 15.9648 40.7826 16.2125V16.4838C40.9877 16.5542 41.1717 16.6733 41.3216 16.8282C41.5706 17.0854 41.7242 17.4406 41.7242 17.833C41.7242 18.0806 41.5303 18.281 41.2906 18.281C41.0509 18.281 40.857 18.0806 40.857 17.833C40.857 17.6883 40.8 17.5571 40.7083 17.4618C40.6166 17.3664 40.4896 17.3082 40.349 17.3082C40.209 17.3082 40.082 17.367 39.9897 17.4618C39.898 17.5565 39.841 17.6877 39.841 17.833C39.841 18.2202 40.1452 18.295 40.4487 18.3699C41.0862 18.5267 41.7242 18.6835 41.7242 19.7786C41.7242 20.1709 41.57 20.5261 41.3216 20.7834C41.1723 20.9376 40.9883 21.0566 40.7826 21.1277V21.399C40.7826 21.6467 40.5887 21.847 40.349 21.847C40.1093 21.847 39.9154 21.6467 39.9154 21.399V21.1277C39.7103 21.0573 39.5263 20.9382 39.3764 20.7834C39.1274 20.5261 38.9738 20.1709 38.9738 19.7786C38.9738 19.5309 39.1677 19.3306 39.4074 19.3306C39.6471 19.3306 39.841 19.5309 39.841 19.7786C39.841 19.9232 39.898 20.0544 39.9897 20.1498C40.0814 20.2445 40.2084 20.3034 40.349 20.3034C40.489 20.3034 40.616 20.2445 40.7083 20.1498C40.8006 20.055 40.857 19.9238 40.857 19.7786C40.857 19.3914 40.5528 19.3165 40.2493 19.2416C39.6118 19.0848 38.9738 18.928 38.9738 17.833C38.9738 17.4406 39.1274 17.0854 39.3764 16.8282C39.5263 16.6733 39.7103 16.5542 39.9154 16.4838ZM40.349 14C39.0648 14 37.9021 14.5376 37.0602 15.4074C36.2184 16.2771 35.698 17.4784 35.698 18.8051C35.698 20.1318 36.2184 21.3331 37.0602 22.2029C37.9021 23.0726 39.0648 23.6102 40.349 23.6102C41.6332 23.6102 42.7959 23.0726 43.6378 22.2029C44.4796 21.3331 45 20.1318 45 18.8051C45 17.4784 44.4796 16.2771 43.6378 15.4074C42.7959 14.5376 41.6332 14 40.349 14ZM43.0245 16.041C42.34 15.3338 41.394 14.896 40.349 14.896C39.3039 14.896 38.358 15.3338 37.6735 16.041C36.989 16.7482 36.5653 17.7254 36.5653 18.8051C36.5653 19.8848 36.989 20.8621 37.6735 21.5693C38.358 22.2765 39.3039 22.7142 40.349 22.7142C41.394 22.7142 42.34 22.2765 43.0245 21.5693C43.709 20.8621 44.1327 19.8848 44.1327 18.8051C44.1327 17.7254 43.709 16.7482 43.0245 16.041ZM30.0664 23.1834V22.912C30.0664 22.6643 30.2603 22.464 30.5 22.464C30.7397 22.464 30.9336 22.6643 30.9336 22.912V23.1834C31.1387 23.2538 31.3227 23.3728 31.4726 23.5277C31.7216 23.785 31.8752 24.1402 31.8752 24.5325C31.8752 24.7802 31.6813 24.9805 31.4416 24.9805C31.2019 24.9805 31.008 24.7802 31.008 24.5325C31.008 24.3878 30.951 24.2566 30.8593 24.1613C30.7676 24.0659 30.6406 24.0077 30.5 24.0077C30.36 24.0077 30.233 24.0666 30.1407 24.1613C30.049 24.256 29.992 24.3872 29.992 24.5325C29.992 24.9197 30.2962 24.9946 30.5997 25.0694C31.2372 25.2262 31.8752 25.383 31.8752 26.4781C31.8752 26.8704 31.721 27.2256 31.4726 27.4829C31.3233 27.6371 31.1393 27.7562 30.9336 27.8272V28.0986C30.9336 28.3462 30.7397 28.5466 30.5 28.5466C30.2603 28.5466 30.0664 28.3462 30.0664 28.0986V27.8272C29.8613 27.7568 29.6773 27.6378 29.5274 27.4829C29.2784 27.2256 29.1248 26.8704 29.1248 26.4781C29.1248 26.2304 29.3187 26.0301 29.5584 26.0301C29.7981 26.0301 29.992 26.2304 29.992 26.4781C29.992 26.6227 30.049 26.7539 30.1407 26.8493C30.2324 26.944 30.3594 27.0029 30.5 27.0029C30.6406 27.0029 30.767 26.944 30.8593 26.8493C30.951 26.7546 31.008 26.6234 31.008 26.4781C31.008 26.0909 30.7038 26.016 30.4003 25.9411C29.7628 25.7843 29.1248 25.6275 29.1248 24.5325C29.1248 24.1402 29.2784 23.785 29.5274 23.5277C29.6773 23.3728 29.8613 23.2538 30.0664 23.1834ZM30.5 20.6995C29.2158 20.6995 28.0531 21.2371 27.2112 22.1069C26.3694 22.9766 25.849 24.1779 25.849 25.5046C25.849 26.8314 26.3694 28.0326 27.2112 28.9024C28.0531 29.7722 29.2158 30.3098 30.5 30.3098C31.7842 30.3098 32.9469 29.7722 33.7888 28.9024C34.6306 28.0326 35.151 26.8314 35.151 25.5046C35.151 24.1779 34.6306 22.9766 33.7888 22.1069C32.9469 21.2378 31.7842 20.6995 30.5 20.6995ZM33.1755 22.7405C32.491 22.0333 31.5451 21.5955 30.5 21.5955C29.4549 21.5955 28.509 22.0333 27.8245 22.7405C27.14 23.4477 26.7163 24.425 26.7163 25.5046C26.7163 26.5843 27.14 27.5616 27.8245 28.2688C28.509 28.976 29.4549 29.4138 30.5 29.4138C31.5451 29.4138 32.491 28.976 33.1755 28.2688C33.86 27.5616 34.2837 26.5843 34.2837 25.5046C34.2837 24.425 33.86 23.4477 33.1755 22.7405ZM20.2174 18.2317V17.9603C20.2174 17.7126 20.4113 17.5123 20.651 17.5123C20.8907 17.5123 21.0846 17.7126 21.0846 17.9603V18.2317C21.2897 18.3021 21.4737 18.4211 21.6236 18.576C21.8726 18.8333 22.0262 19.1885 22.0262 19.5808C22.0262 19.8285 21.8323 20.0288 21.5926 20.0288C21.3529 20.0288 21.159 19.8285 21.159 19.5808C21.159 19.4362 21.102 19.305 21.0103 19.2096C20.9186 19.1149 20.7916 19.056 20.651 19.056C20.511 19.056 20.384 19.1149 20.2917 19.2096C20.2 19.3043 20.143 19.4355 20.143 19.5808C20.143 19.968 20.4472 20.0429 20.7507 20.1178C21.3882 20.2746 22.0262 20.4314 22.0262 21.5264C22.0262 21.9187 21.872 22.2739 21.6236 22.5312C21.4743 22.6854 21.2903 22.8045 21.0846 22.8755V23.1469C21.0846 23.3946 20.8907 23.5949 20.651 23.5949C20.4113 23.5949 20.2174 23.3946 20.2174 23.1469V22.8755C20.0123 22.8051 19.8283 22.6861 19.6784 22.5312C19.4294 22.2739 19.2758 21.9187 19.2758 21.5264C19.2758 21.2787 19.4697 21.0784 19.7094 21.0784C19.9491 21.0784 20.143 21.2787 20.143 21.5264C20.143 21.671 20.2 21.8022 20.2917 21.8976C20.3834 21.9923 20.5104 22.0512 20.651 22.0512C20.791 22.0512 20.918 21.9923 21.0103 21.8976C21.102 21.8029 21.159 21.6717 21.159 21.5264C21.159 21.1392 20.8548 21.0643 20.5513 20.9894C19.9138 20.8326 19.2758 20.6758 19.2758 19.5808C19.2758 19.1885 19.4294 18.8333 19.6784 18.576C19.8283 18.4211 20.0117 18.3021 20.2174 18.2317ZM20.651 15.7478C19.3668 15.7478 18.2041 16.2854 17.3622 17.1552C16.5204 18.025 16 19.2262 16 20.553C16 21.8797 16.5204 23.081 17.3622 23.9507C18.2041 24.8205 19.3668 25.3581 20.651 25.3581C21.9352 25.3581 23.0979 24.8205 23.9398 23.9507C24.7816 23.081 25.302 21.8797 25.302 20.553C25.302 19.2262 24.7816 18.025 23.9398 17.1552C23.0979 16.2854 21.9352 15.7478 20.651 15.7478ZM23.3265 17.7888C22.642 17.0816 21.6961 16.6438 20.651 16.6438C19.606 16.6438 18.66 17.081 17.9755 17.7888C17.291 18.4966 16.8673 19.4733 16.8673 20.553C16.8673 21.6326 17.291 22.6099 17.9755 23.3171C18.66 24.0243 19.606 24.4621 20.651 24.4621C21.6961 24.4621 22.642 24.0243 23.3265 23.3171C24.011 22.6099 24.4347 21.6326 24.4347 20.553C24.4341 19.4733 24.011 18.496 23.3265 17.7888ZM17.0066 27.577H24.2947C24.5345 27.577 24.7284 27.7773 24.7284 28.025V45.552C24.7284 45.7997 24.5345 46 24.2947 46H17.0066C16.7669 46 16.573 45.7997 16.573 45.552V28.025C16.573 27.7773 16.7675 27.577 17.0066 27.577ZM23.8617 28.473H17.4403V45.104H23.8611V28.473H23.8617ZM43.9934 46H36.7046C36.4649 46 36.271 45.7997 36.271 45.552V26.8288C36.271 26.5811 36.4649 26.3808 36.7046 26.3808H43.9927C44.2325 26.3808 44.4264 26.5811 44.4264 26.8288V45.552C44.427 45.7997 44.2325 46 43.9934 46ZM37.1383 45.104H43.5591V27.2768H37.1383V45.104ZM33.7107 33.5181H27.2893V45.104H33.7101V33.5181H33.7107Z" fill="white"/>
</svg>
