<svg width="60" height="60" viewBox="0 0 60 60" fill="none" xmlns="http://www.w3.org/2000/svg">
<rect width="60" height="60" rx="30" fill="#FF3600"/>
<g clip-path="url(#clip0_1196_130)">
<path d="M42.1912 39.4123C41.615 39.4128 41.0517 39.2423 40.5724 38.9225C40.0931 38.6027 39.7195 38.148 39.4987 37.6158C39.2779 37.0836 39.2199 36.4979 39.3321 35.9327C39.4442 35.3676 39.7215 34.8484 40.1287 34.4409C40.536 34.0333 41.055 33.7557 41.62 33.6431C42.1851 33.5306 42.7708 33.5881 43.3032 33.8085C43.8355 34.0289 44.2905 34.4022 44.6107 34.8813C44.9308 35.3603 45.1017 35.9235 45.1017 36.4997C45.1013 37.2717 44.7946 38.012 44.2489 38.5581C43.7032 39.1042 42.9632 39.4114 42.1912 39.4123ZM42.1912 34.6495C41.8251 34.6491 41.4672 34.7572 41.1627 34.9603C40.8581 35.1633 40.6207 35.4521 40.4803 35.7902C40.34 36.1282 40.303 36.5003 40.3742 36.8593C40.4453 37.2184 40.6214 37.5482 40.88 37.8072C41.1387 38.0661 41.4683 38.2426 41.8273 38.3141C42.1863 38.3857 42.5584 38.3492 42.8966 38.2092C43.2348 38.0692 43.5239 37.8321 43.7272 37.5278C43.9306 37.2235 44.0392 36.8657 44.0392 36.4997C44.039 36.0094 43.8443 35.5392 43.4978 35.1924C43.1514 34.8455 42.6814 34.6503 42.1912 34.6495Z" fill="white"/>
<path d="M26.8423 39.4123C26.2661 39.4129 25.7027 39.2425 25.2233 38.9228C24.7439 38.6031 24.3702 38.1484 24.1493 37.6163C23.9284 37.0841 23.8703 36.4984 23.9824 35.9332C24.0944 35.368 24.3716 34.8487 24.7789 34.4411C25.1861 34.0335 25.7051 33.7558 26.2701 33.6432C26.8352 33.5306 27.421 33.5881 27.9534 33.8084C28.4858 34.0288 28.9408 34.4021 29.261 34.8812C29.5812 35.3602 29.7521 35.9235 29.7521 36.4997C29.7515 37.2715 29.4449 38.0116 28.8994 38.5576C28.3539 39.1036 27.6141 39.411 26.8423 39.4123ZM26.8423 34.6495C26.4762 34.6489 26.1182 34.757 25.8136 34.9599C25.509 35.1629 25.2714 35.4517 25.1309 35.7897C24.9904 36.1277 24.9534 36.4998 25.0245 36.8589C25.0955 37.218 25.2715 37.5479 25.5302 37.8069C25.7888 38.066 26.1185 38.2425 26.4774 38.3141C26.8364 38.3857 27.2086 38.3492 27.5468 38.2093C27.885 38.0693 28.1742 37.8322 28.3776 37.5279C28.581 37.2235 28.6896 36.8657 28.6896 36.4997C28.6892 36.0096 28.4946 35.5396 28.1483 35.1928C27.802 34.846 27.3323 34.6506 26.8423 34.6495Z" fill="white"/>
<path d="M46.0236 37.0304H44.5708C44.4299 37.0304 44.2948 36.9745 44.1952 36.8748C44.0955 36.7752 44.0396 36.6401 44.0396 36.4992C44.0396 36.3583 44.0955 36.2232 44.1952 36.1235C44.2948 36.0239 44.4299 35.9679 44.5708 35.9679H45.8734V33.1509C45.8731 32.77 45.7756 32.3955 45.5901 32.0629L42.7143 26.9069C42.6897 26.8629 42.6538 26.8263 42.6104 26.8007C42.5669 26.7752 42.5175 26.7618 42.4671 26.7617H38.5479V35.9701H39.8129C39.9538 35.9701 40.089 36.026 40.1886 36.1257C40.2882 36.2253 40.3442 36.3604 40.3442 36.5013C40.3442 36.6422 40.2882 36.7773 40.1886 36.877C40.089 36.9766 39.9538 37.0326 39.8129 37.0326H38.0166C37.8757 37.0326 37.7406 36.9766 37.641 36.877C37.5413 36.7773 37.4854 36.6422 37.4854 36.5013V26.2305C37.4854 26.0896 37.5413 25.9544 37.641 25.8548C37.7406 25.7552 37.8757 25.6992 38.0166 25.6992H42.4671C42.7067 25.6991 42.9421 25.763 43.1488 25.8843C43.3555 26.0056 43.5261 26.1799 43.6429 26.3891L46.518 31.5458C46.7914 32.0366 46.935 32.5891 46.9352 33.1509V36.1188C46.9349 36.3605 46.8387 36.5921 46.6678 36.763C46.4969 36.9339 46.2653 37.0301 46.0236 37.0304Z" fill="white"/>
<path d="M24.4628 37.0309H19.3691C19.2282 37.0309 19.0931 36.9749 18.9935 36.8753C18.8939 36.7757 18.8379 36.6406 18.8379 36.4997V32.414C18.8379 32.2731 18.8939 32.138 18.9935 32.0384C19.0931 31.9387 19.2282 31.8828 19.3691 31.8828C19.51 31.8828 19.6452 31.9387 19.7448 32.0384C19.8444 32.138 19.9004 32.2731 19.9004 32.414V35.9684H24.4628C24.6037 35.9684 24.7388 36.0244 24.8384 36.124C24.938 36.2236 24.994 36.3588 24.994 36.4997C24.994 36.6406 24.938 36.7757 24.8384 36.8753C24.7388 36.9749 24.6037 37.0309 24.4628 37.0309Z" fill="white"/>
<path d="M19.3691 30.5291C19.2282 30.5291 19.0931 30.4732 18.9935 30.3735C18.8939 30.2739 18.8379 30.1388 18.8379 29.9979V26.4307C18.8379 26.2898 18.8939 26.1547 18.9935 26.0551C19.0931 25.9554 19.2282 25.8995 19.3691 25.8995C19.51 25.8995 19.6452 25.9554 19.7448 26.0551C19.8444 26.1547 19.9004 26.2898 19.9004 26.4307V30C19.8998 30.1405 19.8436 30.2751 19.744 30.3743C19.6445 30.4735 19.5097 30.5291 19.3691 30.5291Z" fill="white"/>
<path d="M38.016 37.0309H29.2206C29.0797 37.0309 28.9446 36.9749 28.845 36.8753C28.7454 36.7757 28.6894 36.6405 28.6894 36.4996C28.6894 36.3588 28.7454 36.2236 28.845 36.124C28.9446 36.0244 29.0797 35.9684 29.2206 35.9684H37.4848V22.0702H19.9004V24.2582C19.9004 24.3991 19.8444 24.5343 19.7448 24.6339C19.6452 24.7335 19.51 24.7895 19.3691 24.7895C19.2282 24.7895 19.0931 24.7335 18.9935 24.6339C18.8939 24.5343 18.8379 24.3991 18.8379 24.2582V21.9724C18.8383 21.7166 18.9401 21.4713 19.1211 21.2904C19.3021 21.1096 19.5475 21.0079 19.8033 21.0077H37.5825C37.8383 21.0081 38.0834 21.1098 38.2643 21.2907C38.4451 21.4715 38.5469 21.7167 38.5473 21.9724V36.4996C38.5473 36.6405 38.4913 36.7757 38.3917 36.8753C38.292 36.9749 38.1569 37.0309 38.016 37.0309Z" fill="white"/>
<path d="M21.4692 32.9453H14.7266C14.5857 32.9453 14.4505 32.8893 14.3509 32.7897C14.2513 32.69 14.1953 32.5549 14.1953 32.414C14.1953 32.2731 14.2513 32.138 14.3509 32.0384C14.4505 31.9387 14.5857 31.8828 14.7266 31.8828H21.4692C21.6101 31.8828 21.7452 31.9387 21.8448 32.0384C21.9445 32.138 22.0004 32.2731 22.0004 32.414C22.0004 32.5549 21.9445 32.69 21.8448 32.7897C21.7452 32.8893 21.6101 32.9453 21.4692 32.9453Z" fill="white"/>
<path d="M26.8424 30.5291H17.4336C17.2927 30.5291 17.1576 30.4731 17.0579 30.3735C16.9583 30.2739 16.9023 30.1388 16.9023 29.9979C16.9023 29.857 16.9583 29.7218 17.0579 29.6222C17.1576 29.5226 17.2927 29.4666 17.4336 29.4666H26.8424C26.9833 29.4666 27.1184 29.5226 27.218 29.6222C27.3177 29.7218 27.3736 29.857 27.3736 29.9979C27.3736 30.1388 27.3177 30.2739 27.218 30.3735C27.1184 30.4731 26.9833 30.5291 26.8424 30.5291Z" fill="white"/>
<path d="M17.1409 27.7246H13.4668C13.3259 27.7246 13.1908 27.6686 13.0911 27.569C12.9915 27.4694 12.9355 27.3343 12.9355 27.1934C12.9355 27.0525 12.9915 26.9173 13.0911 26.8177C13.1908 26.7181 13.3259 26.6621 13.4668 26.6621H17.1409C17.2818 26.6621 17.4169 26.7181 17.5166 26.8177C17.6162 26.9173 17.6722 27.0525 17.6722 27.1934C17.6722 27.3343 17.6162 27.4694 17.5166 27.569C17.4169 27.6686 17.2818 27.7246 17.1409 27.7246Z" fill="white"/>
<path d="M23.0324 24.7891H16.5469C16.406 24.7891 16.2709 24.7331 16.1712 24.6335C16.0716 24.5338 16.0156 24.3987 16.0156 24.2578C16.0156 24.1169 16.0716 23.9818 16.1712 23.8822C16.2709 23.7825 16.406 23.7266 16.5469 23.7266H23.0324C23.1733 23.7266 23.3084 23.7825 23.408 23.8822C23.5077 23.9818 23.5636 24.1169 23.5636 24.2578C23.5636 24.3987 23.5077 24.5338 23.408 24.6335C23.3084 24.7331 23.1733 24.7891 23.0324 24.7891Z" fill="white"/>
</g>
<defs>
<clipPath id="clip0_1196_130">
<rect width="34" height="34" fill="white" transform="translate(13 13)"/>
</clipPath>
</defs>
</svg>
