<svg width="47" height="47" viewBox="0 0 47 47" fill="none" xmlns="http://www.w3.org/2000/svg">
<path d="M34.7394 21.1089C35.1746 21.1089 35.4647 20.8188 35.4647 20.3837C35.4647 19.9485 35.1746 19.6584 34.7394 19.6584H25.819C25.3838 19.6584 25.0938 19.9485 25.0938 20.3837C25.0938 20.8188 25.3838 21.1089 25.819 21.1089H34.7394Z" fill="#FF3600"/>
<path d="M20.3067 26.2577C18.7112 25.6775 15.23 24.1545 13.4895 23.7919C11.4588 23.3567 8.84793 23.2117 7.03483 24.227C5.36678 25.0973 5.51183 26.0401 4.13387 27.2005V26.8379C4.13387 26.1126 3.55368 25.5324 2.82844 25.5324H0.72524C0.290096 25.5324 0 25.8225 0 26.2577C0 26.6928 0.290096 26.9829 0.72524 26.9829H2.61086V36.4836H0.72524C0.290096 36.4836 0 36.7737 0 37.2088C0 37.644 0.290096 37.9341 0.72524 37.9341H2.75591C3.48115 37.9341 4.06135 37.3539 4.06135 36.6286C4.06135 35.8309 4.06135 39.4571 4.06135 29.0136L4.13387 28.9411C6.81726 27.128 6.01949 26.3302 7.8326 25.4599C9.3556 24.7347 11.3863 24.8797 13.0543 25.2424C16.3904 26.0401 17.3332 27.273 22.9901 28.651C25.5285 29.2312 25.4559 28.9411 26.0361 29.1587C26.4713 29.3037 26.9789 29.8114 26.9789 30.3916C26.9064 31.3344 25.601 31.0443 24.6582 30.7542C21.3946 29.6663 17.5508 29.1586 14.5048 30.6817C14.2147 30.8267 13.9971 31.2618 14.1422 31.6245C14.2872 31.9146 14.5773 32.0596 14.8674 32.0596C15.23 32.0596 16.5355 31.0443 19.7991 31.1893C21.6847 31.3344 23.2077 31.7695 24.3681 32.1321C26.9789 33.0024 28.2844 31.9871 28.4294 30.5366C28.5019 29.5213 27.9943 28.5785 26.9064 27.9257C26.0361 27.3456 24.8757 27.8532 20.3067 26.2577Z" fill="#FF3600"/>
<path d="M44.0219 14.9444H40.033V13.2764C40.033 11.6808 38.7276 10.3754 37.1321 10.3754H36.6969V6.02395H37.7848C38.2199 6.02395 38.51 5.73385 38.51 5.29871V2.39775H39.743C40.1781 2.39775 40.4682 2.10765 40.4682 1.67251C40.4682 1.23736 40.1781 0.947266 39.743 0.947266C35.464 0.947266 29.5171 0.947266 22.9899 0.947266C20.379 0.947266 17.8407 1.9626 16.0276 3.84823C15.7375 4.13832 15.7375 4.57347 16.0276 4.86356C16.1726 5.00861 16.3902 5.08114 16.5353 5.08114C16.6803 5.08114 16.8979 5.00861 17.0429 4.86356C18.6385 3.26803 20.7417 2.39775 22.9899 2.39775H28.2842V5.29871C28.2842 5.73385 28.5742 6.02395 29.0094 6.02395C29.2995 6.02395 35.3915 6.02395 35.2465 6.02395V10.3029H31.5477V8.27219C31.5477 7.83705 31.2576 7.54695 30.8225 7.54695C30.3873 7.54695 30.0973 7.83705 30.0973 8.27219V10.3029H29.6621C28.0666 10.3029 26.7611 11.6083 26.7611 13.2038V14.8719H23.4976C22.1921 14.8719 21.1043 15.9597 21.1043 17.2652V23.2121C21.1043 23.6473 21.3944 23.9374 21.8295 23.9374C22.2647 23.9374 22.5548 23.6473 22.5548 23.2121V17.3377C22.5548 16.83 22.9899 16.3949 23.4976 16.3949H44.0219C44.5295 16.3949 44.9647 16.83 44.9647 17.3377V44.5342C44.9647 45.0419 44.5295 45.477 44.0219 45.477H30.4599C31.1851 43.7364 32.7806 42.286 34.7388 41.7783C35.1014 41.6332 35.319 41.2706 35.2465 40.908C35.1014 40.5454 34.7388 40.3278 34.3762 40.4003C33.6509 40.6179 32.9257 40.9805 32.273 41.3432C31.9104 40.5454 31.9104 39.6026 32.2004 38.7323C32.7081 37.3543 33.941 36.4115 35.7541 36.0489C38.51 35.4687 39.6704 34.0907 40.2506 32.8578C40.9759 34.3083 41.556 36.8467 39.9605 39.7476C38.8727 41.7783 36.9145 42.6486 35.5366 42.5761C35.1014 42.5761 34.8113 42.8662 34.8113 43.2288C34.8113 43.6639 35.1014 43.954 35.464 43.954H35.6816C37.4947 43.954 39.888 42.8662 41.266 40.4003C44.312 34.8885 40.5407 30.5371 40.5407 30.5371C40.3231 30.3195 40.033 30.247 39.743 30.3195C39.4529 30.4645 39.3078 30.6821 39.3078 31.0447C39.3078 31.0447 39.3803 33.7281 35.5366 34.5984C32.418 35.2511 31.3302 37.1368 30.895 38.2246C30.3873 39.6026 30.4599 41.0531 31.1126 42.2134C30.1698 43.0837 29.4445 44.2441 29.0094 45.477H23.5701C23.0624 45.477 22.6273 45.0419 22.6273 44.5342V37.0642C22.7723 37.0642 23.7877 36.8467 23.9327 36.8467C25.4557 36.484 26.8337 35.9764 29.5171 33.5831C29.5896 33.5106 35.9717 27.7812 36.4794 26.7658C36.9145 25.8955 36.842 24.8077 36.0442 24.0824C35.5366 23.5748 34.8113 23.4297 34.7388 23.3572C34.0135 23.1396 33.2883 23.2847 32.7081 23.7198C32.273 24.0099 30.895 25.2428 28.7193 26.2582C28.3567 26.4032 28.2116 26.8383 28.3567 27.201C28.5017 27.5636 28.9369 27.7086 29.2995 27.5636C30.8225 26.9109 32.7081 25.6054 33.5784 24.8802C33.796 24.6626 34.1586 24.6626 34.3762 24.7351C34.8838 25.0252 35.2465 25.1703 35.1739 25.1703C35.3915 25.3879 35.464 25.7505 35.2465 26.1131C34.8113 26.8383 28.7918 32.3502 28.4292 32.6403C27.1963 33.6556 25.4557 34.8885 24.0052 35.3962C21.6119 35.7588 20.0889 36.7016 15.5924 34.4534C12.764 33.3655 9.4279 32.8578 6.59947 33.9457C6.30937 34.0182 6.0918 34.3083 6.0918 34.6709C6.0918 35.1786 6.59947 35.5412 7.10713 35.3237C9.718 34.3808 12.764 34.816 15.2298 35.9038C17.6956 36.9917 15.3024 35.9038 15.3024 35.9764C17.188 36.9192 18.7835 37.6444 21.2493 37.3543V44.6067C21.2493 45.9122 22.3372 47 23.6426 47H44.1669C45.4723 47 46.5602 45.9122 46.5602 44.6067V17.3377C46.4152 15.9597 45.3273 14.9444 44.0219 14.9444ZM29.7346 4.57347V2.39775H36.987V4.57347C36.9145 4.57347 29.4445 4.57347 29.7346 4.57347ZM28.2116 14.9444V13.2764C28.2116 12.4786 28.8643 11.8259 29.6621 11.8259C29.8797 11.8259 37.4222 11.8259 37.2046 11.8259C38.0024 11.8259 38.6551 12.4786 38.6551 13.2764V14.9444H28.2116Z" fill="#FF3600"/>
<path d="M15.4471 8.05469C15.2295 8.05469 15.0119 8.12721 14.8669 8.34478C14.2867 9.07002 11.3857 12.8413 11.3857 14.7994C11.3857 17.0477 13.1988 18.8608 15.4471 18.8608C17.6953 18.8608 19.5084 17.0477 19.5084 14.7994C19.5084 12.8413 16.6075 9.07002 16.0273 8.34478C15.8822 8.12721 15.6647 8.05469 15.4471 8.05469ZM15.4471 17.4103C13.9966 17.4103 12.8362 16.2499 12.8362 14.7994C12.8362 13.7841 14.2142 11.5358 15.4471 9.94031C16.6075 11.5358 18.058 13.7841 18.058 14.7994C17.9854 16.2499 16.825 17.4103 15.4471 17.4103Z" fill="#FF3600"/>
</svg>
