<svg width="38" height="38" viewBox="0 0 38 38" fill="none" xmlns="http://www.w3.org/2000/svg">
<rect width="38" height="38" rx="6" fill="#FF3600"/>
<g clip-path="url(#clip0_579_1433)">
<path d="M19.0003 14.8438C18.4523 14.8438 17.9166 15.0063 17.4609 15.3107C17.0053 15.6152 16.6501 16.0479 16.4404 16.5542C16.2307 17.0605 16.1758 17.6177 16.2827 18.1551C16.3896 18.6926 16.6535 19.1864 17.0411 19.5739C17.4286 19.9614 17.9223 20.2253 18.4598 20.3322C18.9973 20.4391 19.5544 20.3842 20.0607 20.1745C20.567 19.9648 20.9997 19.6096 21.3042 19.154C21.6087 18.6983 21.7712 18.1626 21.7712 17.6146C21.7712 16.8797 21.4792 16.1749 20.9596 15.6553C20.44 15.1357 19.7352 14.8438 19.0003 14.8438ZM19.0003 19C18.7263 19 18.4585 18.9187 18.2306 18.7665C18.0028 18.6143 17.8252 18.3979 17.7204 18.1448C17.6155 17.8916 17.5881 17.613 17.6415 17.3443C17.695 17.0756 17.8269 16.8287 18.0207 16.6349C18.2144 16.4412 18.4613 16.3092 18.73 16.2558C18.9988 16.2023 19.2774 16.2298 19.5305 16.3346C19.7837 16.4395 20 16.6171 20.1523 16.8449C20.3045 17.0727 20.3857 17.3406 20.3857 17.6146C20.3857 17.982 20.2398 18.3344 19.98 18.5942C19.7201 18.854 19.3678 19 19.0003 19Z" fill="white"/>
<path d="M18.9999 27.3119C18.4166 27.3149 17.841 27.1781 17.3215 26.913C16.8019 26.6478 16.3534 26.2621 16.0136 25.788C13.3737 22.1464 12.0347 19.4088 12.0347 17.6507C12.0347 15.8034 12.7685 14.0318 14.0747 12.7256C15.3809 11.4194 17.1526 10.6855 18.9999 10.6855C20.8471 10.6855 22.6188 11.4194 23.925 12.7256C25.2312 14.0318 25.965 15.8034 25.965 17.6507C25.965 19.4088 24.626 22.1464 21.9861 25.788C21.6463 26.2621 21.1978 26.6478 20.6782 26.913C20.1587 27.1781 19.5832 27.3149 18.9999 27.3119ZM18.9999 12.1977C17.5538 12.1994 16.1674 12.7746 15.1448 13.7971C14.1223 14.8196 13.5471 16.206 13.5455 17.6521C13.5455 19.0445 14.8568 21.6193 17.2369 24.902C17.439 25.1803 17.7041 25.4068 18.0105 25.563C18.3169 25.7192 18.6559 25.8007 18.9999 25.8007C19.3438 25.8007 19.6828 25.7192 19.9892 25.563C20.2957 25.4068 20.5607 25.1803 20.7628 24.902C23.1429 21.6193 24.4542 19.0445 24.4542 17.6521C24.4526 16.206 23.8774 14.8196 22.8549 13.7971C21.8323 12.7746 20.4459 12.1994 18.9999 12.1977Z" fill="white"/>
</g>
<defs>
<clipPath id="clip0_579_1433">
<rect width="16.625" height="16.625" fill="white" transform="translate(10.6875 10.6875)"/>
</clipPath>
</defs>
</svg>
