<svg width="38" height="38" viewBox="0 0 38 38" fill="none" xmlns="http://www.w3.org/2000/svg">
<rect width="38" height="38" rx="6" fill="#FF3600"/>
<path d="M23.849 11.875H14.151C13.2328 11.876 12.3525 12.2176 11.7032 12.8247C11.0539 13.4318 10.6886 14.255 10.6875 15.1136V22.8864C10.6886 23.745 11.0539 24.5682 11.7032 25.1753C12.3525 25.7824 13.2328 26.124 14.151 26.125H23.849C24.7672 26.124 25.6475 25.7824 26.2968 25.1753C26.9461 24.5682 27.3114 23.745 27.3125 22.8864V15.1136C27.3114 14.255 26.9461 13.4318 26.2968 12.8247C25.6475 12.2176 24.7672 11.876 23.849 11.875ZM14.151 13.1705H23.849C24.2637 13.1712 24.6688 13.288 25.012 13.5059C25.3552 13.7237 25.6208 14.0325 25.7747 14.3927L20.4699 19.3537C20.0795 19.7172 19.551 19.9214 19 19.9214C18.449 19.9214 17.9205 19.7172 17.5301 19.3537L12.2253 14.3927C12.3792 14.0325 12.6448 13.7237 12.988 13.5059C13.3312 13.288 13.7363 13.1712 14.151 13.1705ZM23.849 24.8295H14.151C13.5999 24.8295 13.0713 24.6248 12.6816 24.2604C12.2919 23.896 12.0729 23.4017 12.0729 22.8864V16.0852L16.5506 20.2695C17.2008 20.876 18.0816 21.2165 19 21.2165C19.9184 21.2165 20.7992 20.876 21.4494 20.2695L25.9271 16.0852V22.8864C25.9271 23.4017 25.7081 23.896 25.3184 24.2604C24.9287 24.6248 24.4001 24.8295 23.849 24.8295Z" fill="white"/>
</svg>
