<svg width="38" height="38" viewBox="0 0 38 38" fill="none" xmlns="http://www.w3.org/2000/svg">
<rect width="38" height="38" rx="6" fill="#FF3600"/>
<path d="M26.1003 11.9051L25.3244 11.2261C24.6179 10.5195 23.4195 10.4849 22.6575 11.2608L21.3621 12.9581C20.6348 13.6855 20.6348 14.8702 21.3621 15.5907L22.3943 16.6506C21.2721 19.2832 19.2009 21.3615 16.6517 22.4007L15.5919 21.3684C15.2386 21.0151 14.7745 20.8211 14.2757 20.8211C13.777 20.8211 13.3129 21.0151 12.9942 21.3407L11.2348 22.6986C10.5074 23.426 10.5074 24.6107 11.2209 25.3173L11.9275 26.1278C12.6894 26.8899 13.7146 27.3125 14.8299 27.3125C20.1984 27.3125 27.3125 20.1907 27.3125 14.8286C27.3125 13.7201 26.8899 12.6879 26.1141 11.912L26.1003 11.9051ZM14.8161 26.6128C13.8878 26.6128 13.0358 26.2664 12.4193 25.6498L11.7127 24.8323C11.2555 24.3751 11.2555 23.6338 11.6781 23.2043L13.4376 21.8465C13.6592 21.6248 13.9502 21.5001 14.2688 21.5001C14.5875 21.5001 14.8784 21.6248 15.1001 21.8465L16.3262 23.045C16.4231 23.142 16.5617 23.1697 16.6933 23.1212C19.5819 22.0197 21.9302 19.6711 23.1285 16.6922C23.177 16.5675 23.1493 16.422 23.0523 16.3181L21.854 15.0919C21.3968 14.6346 21.3968 13.8933 21.8817 13.4015L23.177 11.7042C23.6342 11.2469 24.3754 11.2469 24.8534 11.718L25.6292 12.3969C26.2596 13.0274 26.6059 13.8795 26.6059 14.8078C26.6059 19.7681 19.7758 26.5989 14.8161 26.5989V26.6128Z" fill="white"/>
</svg>
