<svg width="38" height="38" viewBox="0 0 38 38" fill="none" xmlns="http://www.w3.org/2000/svg">
<rect width="38" height="38" rx="6" fill="#FF3600"/>
<g clip-path="url(#clip0_579_1442)">
<path d="M21.9622 20.4686L19.6442 18.7301V15.1888C19.6442 14.8327 19.3564 14.5449 19.0003 14.5449C18.6443 14.5449 18.3564 14.8327 18.3564 15.1888V19.0521C18.3564 19.2549 18.4517 19.4462 18.614 19.5672L21.1895 21.4989C21.3054 21.5858 21.4406 21.6277 21.5752 21.6277C21.7716 21.6277 21.9648 21.5394 22.091 21.3695C22.3048 21.0855 22.2468 20.6818 21.9622 20.4686Z" fill="white"/>
<path d="M19 10.6875C14.4162 10.6875 10.6875 14.4162 10.6875 19C10.6875 23.5838 14.4162 27.3125 19 27.3125C23.5838 27.3125 27.3125 23.5838 27.3125 19C27.3125 14.4162 23.5838 10.6875 19 10.6875ZM19 26.0247C15.1271 26.0247 11.9753 22.8729 11.9753 19C11.9753 15.1271 15.1271 11.9753 19 11.9753C22.8736 11.9753 26.0247 15.1271 26.0247 19C26.0247 22.8729 22.8729 26.0247 19 26.0247Z" fill="white"/>
</g>
<defs>
<clipPath id="clip0_579_1442">
<rect width="16.625" height="16.625" fill="white" transform="translate(10.6875 10.6875)"/>
</clipPath>
</defs>
</svg>
