<svg width="101" height="82" viewBox="0 0 101 82" fill="none" xmlns="http://www.w3.org/2000/svg">
<path opacity="0.4" d="M50.5 0C22.656 0 0 22.656 0 50.5C0 78.344 22.656 101 50.5 101C78.344 101 101 78.344 101 50.5C101 22.656 78.344 0 50.5 0ZM50.9692 95.6242C50.862 95.6108 50.7547 95.584 50.6475 95.5706C46.1431 95.3293 41.6789 94.4311 37.4024 92.8626C18.7951 86.0792 9.18304 65.4342 15.953 46.8268C21.2752 32.2144 37.4829 24.6668 52.0953 29.989C57.6185 31.9999 62.0291 36.0485 64.5092 41.384C66.9893 46.7195 67.2574 52.6986 65.2331 58.2218C62.0023 67.0697 52.1891 71.6411 43.3413 68.4237C36.5445 65.9436 33.0321 58.3961 35.4988 51.5993C36.4104 49.0924 38.2336 47.1083 40.6467 45.9822C43.0597 44.8561 45.7677 44.7489 48.2612 45.6471C50.1246 46.3308 51.6127 47.6982 52.4573 49.4946C53.3018 51.2909 53.3823 53.3152 52.6986 55.1787C51.6797 57.9805 48.5696 59.4283 45.7543 58.4095C43.7971 57.699 42.7782 55.5138 43.4887 53.5431C43.9981 52.1489 43.2742 50.6073 41.8934 50.1112C40.4992 49.6018 38.9575 50.3257 38.4615 51.7065C36.7322 56.4522 39.1854 61.7207 43.9311 63.4501C49.508 65.4744 55.7149 62.5921 57.7392 57.0153C58.9055 53.7979 58.758 50.3257 57.3102 47.229C55.8624 44.1322 53.3018 41.7728 50.0844 40.6065C46.2369 39.1988 42.0811 39.3865 38.3677 41.1159C34.6542 42.8452 31.839 45.9152 30.4448 49.7627C26.9593 59.3345 31.906 69.9788 41.4912 73.4643C53.1142 77.7006 66.024 71.6947 70.2603 60.0584C75.435 45.875 68.0885 30.1365 53.9051 24.9618C36.5445 18.6342 17.2534 27.6161 10.9124 45.0036C7.81564 53.5029 7.70839 62.3776 10.0276 70.4614C7.0515 64.4421 5.36236 57.6587 5.36236 50.5C5.36236 25.6053 25.6053 5.36236 50.5 5.36236C75.3947 5.36236 95.6376 25.6053 95.6376 50.5C95.6376 75.2339 75.6361 95.3695 50.9692 95.6242Z" fill="#333333"/>
</svg>
