<svg width="98" height="112" viewBox="0 0 98 112" fill="none" xmlns="http://www.w3.org/2000/svg">
<path opacity="0.4" d="M67.5 -23C30.2827 -23 0 7.28271 0 44.5C0 81.7173 30.2827 112 67.5 112C104.717 112 135 81.7173 135 44.5C135 7.28271 104.717 -23 67.5 -23ZM68.1272 104.815C67.9838 104.797 67.8405 104.761 67.6971 104.743C61.6764 104.42 55.7095 103.22 49.9934 101.123C25.1221 92.0564 12.2744 64.4615 21.3233 39.5903C28.4371 20.0588 50.1009 9.97054 69.6323 17.0843C77.0149 19.7721 82.9101 25.1836 86.2251 32.3152C89.5401 39.4469 89.8985 47.4387 87.1927 54.8212C82.8743 66.6476 69.7578 72.7579 57.9314 68.4574C48.8466 65.1424 44.1518 55.0542 47.4489 45.9693C48.6674 42.6185 51.1043 39.9666 54.3297 38.4614C57.5551 36.9562 61.1747 36.8129 64.5076 38.0134C66.9983 38.9273 68.9873 40.755 70.1161 43.1561C71.245 45.5572 71.3525 48.2629 70.4387 50.7537C69.0769 54.4987 64.9197 56.4339 61.1568 55.0721C58.5406 54.1224 57.1788 51.2016 58.1285 48.5676C58.8094 46.704 57.8418 44.6434 55.9962 43.9804C54.1326 43.2994 52.0719 44.2671 51.409 46.1127C49.0974 52.4559 52.3766 59.498 58.7198 61.8095C66.174 64.5153 74.4704 60.6627 77.1761 53.2085C78.7351 48.908 78.538 44.2671 76.6027 40.1278C74.6675 35.9886 71.245 32.8349 66.9445 31.276C61.8018 29.3945 56.247 29.6453 51.2835 31.9569C46.32 34.2684 42.5571 38.3718 40.6935 43.5145C36.0346 56.3085 42.6467 70.536 55.4586 75.1949C70.9942 80.8572 88.2499 72.8296 93.9123 57.2761C100.829 38.318 91.0094 17.2814 72.0514 10.3647C48.8466 1.90709 23.0615 13.9127 14.5859 37.1533C10.4466 48.5138 10.3033 60.376 13.4032 71.1811C9.42527 63.1355 7.16751 54.0686 7.16751 44.5C7.16751 11.2248 34.2248 -15.8325 67.5 -15.8325C100.775 -15.8325 127.832 11.2248 127.832 44.5C127.832 77.5601 101.098 104.474 68.1272 104.815Z" fill="#333333"/>
</svg>
