<svg width="101" height="104" viewBox="0 0 101 104" fill="none" xmlns="http://www.w3.org/2000/svg">
<path d="M29.825 99.944L53.537 56.576L96.905 32.864C99.44 31.46 101 28.847 101 26C101 23.153 99.44 20.54 96.944 19.175L53.576 -4.537L29.825 -47.944C28.46 -50.44 25.847 -52 23 -52C20.153 -52 17.54 -50.44 16.175 -47.944L-7.537 -4.576L-50.944 19.175C-53.44 20.54 -55 23.153 -55 26C-55 28.847 -53.44 31.46 -50.944 32.825L-7.576 56.537L16.136 99.905C17.54 102.44 20.153 104 23 104C25.847 104 28.46 102.44 29.825 99.944ZM5.021 47.06C4.319 45.734 3.227 44.681 1.901 43.94L-30.937 26L1.94 8.021C3.266 7.319 4.319 6.227 5.06 4.901L23 -27.937L40.979 4.94C41.681 6.266 42.773 7.319 44.06 8.06L76.937 26L44.06 43.979C42.773 44.681 41.681 45.773 40.979 47.099L23 79.937L5.021 47.06Z" fill="#333333"/>
</svg>
