<svg width="28" height="23" viewBox="0 0 28 23" fill="none" xmlns="http://www.w3.org/2000/svg">
<path d="M26.5372 9.72203H4.76808L12.1609 2.38367C12.2943 2.25577 12.4007 2.10279 12.4739 1.93364C12.5471 1.76449 12.5856 1.58256 12.5872 1.39847C12.5888 1.21439 12.5535 1.03182 12.4833 0.861434C12.413 0.691048 12.3093 0.53625 12.1782 0.406075C12.047 0.275899 11.8911 0.172953 11.7194 0.103242C11.5478 0.0335313 11.3639 -0.00154733 11.1784 5.23474e-05C10.993 0.00165203 10.8097 0.0398984 10.6393 0.11256C10.4689 0.185221 10.3148 0.290842 10.1859 0.42326L0.408938 10.1282C0.147095 10.3882 0 10.7408 0 11.1085C0 11.4761 0.147095 11.8287 0.408938 12.0887L10.1859 21.7936C10.4493 22.0462 10.8022 22.1859 11.1684 22.1828C11.5346 22.1796 11.8849 22.0338 12.1439 21.7768C12.4028 21.5197 12.5497 21.172 12.5529 20.8085C12.5561 20.4449 12.4153 20.0947 12.1609 19.8332L4.76808 12.4949H26.5372C26.9077 12.4949 27.2629 12.3488 27.5249 12.0888C27.7868 11.8288 27.9339 11.4762 27.9339 11.1085C27.9339 10.7407 27.7868 10.3881 27.5249 10.1281C27.2629 9.8681 26.9077 9.72203 26.5372 9.72203Z" fill="white"/>
</svg>
