<svg width="28" height="23" viewBox="0 0 28 23" fill="none" xmlns="http://www.w3.org/2000/svg">
<path d="M0 11.0912C0 10.4695 0.477663 9.95578 1.09741 9.8745L1.2697 9.86328H26.6638C27.365 9.86328 27.9335 10.4131 27.9335 11.0912C27.9335 11.7129 27.4558 12.2266 26.8361 12.308L26.6638 12.3191H1.2697C0.568472 12.3191 0 11.7693 0 11.0912Z" fill="white"/>
<path d="M15.5261 2.09807C15.0292 1.61957 15.0276 0.842098 15.5222 0.361521C15.972 -0.0753583 16.6773 -0.116453 17.1752 0.239187L17.3179 0.357788L27.5602 10.2204C28.0132 10.6568 28.0546 11.3413 27.6838 11.8228L27.5602 11.9606L17.3179 21.825C16.8211 22.3035 16.0172 22.3019 15.5224 21.8214C15.0726 21.3846 15.033 20.7023 15.4029 20.2223L15.5261 20.0849L24.8644 11.0901L15.5261 2.09807Z" fill="white"/>
</svg>
