<svg width="23" height="15" viewBox="0 0 23 15" fill="none" xmlns="http://www.w3.org/2000/svg">
<path d="M18.0376 4.66874C18.0315 4.66421 18.025 4.66011 18.0182 4.65646C16.2656 2.95041 13.8901 1.99219 11.4135 1.99219C8.93682 1.99219 6.56138 2.95041 4.8087 4.65646C4.80289 4.66118 4.79514 4.66307 4.78981 4.66874C4.78448 4.67441 4.78206 4.68149 4.77673 4.68716C3.02628 6.39572 2.04362 8.71226 2.04492 11.1272C2.0448 11.1717 2.05368 11.2159 2.07108 11.2571C2.08848 11.2983 2.11404 11.3357 2.1463 11.3672C2.17856 11.3988 2.21689 11.4238 2.25909 11.4409C2.30128 11.458 2.34652 11.4667 2.39221 11.4667H4.53891C4.58456 11.4667 4.62975 11.458 4.67192 11.4409C4.71409 11.4239 4.75239 11.3989 4.78465 11.3674C4.8169 11.3359 4.84247 11.2985 4.8599 11.2574C4.87732 11.2163 4.88626 11.1722 4.8862 11.1277C4.8862 9.43983 5.57389 7.82112 6.79799 6.62764C8.02209 5.43415 9.68233 4.76366 11.4135 4.76366C13.1446 4.76366 14.8048 5.43415 16.0289 6.62764C17.2531 7.82112 17.9407 9.43983 17.9407 11.1277C17.9407 11.1722 17.9496 11.2163 17.9671 11.2575C17.9845 11.2987 18.0102 11.3361 18.0425 11.3676C18.0748 11.3991 18.1131 11.424 18.1554 11.4411C18.1976 11.4581 18.2428 11.4668 18.2885 11.4667H20.4347C20.4804 11.4668 20.5257 11.4581 20.5679 11.4411C20.6101 11.424 20.6485 11.3991 20.6808 11.3676C20.7131 11.3361 20.7387 11.2987 20.7562 11.2575C20.7736 11.2163 20.7826 11.1722 20.7825 11.1277C20.7831 9.93172 20.5421 8.74737 20.0731 7.64228C19.6041 6.5372 18.9164 5.53303 18.0492 4.68716C18.0457 4.68083 18.0418 4.67468 18.0376 4.66874ZM16.2629 5.9202C15.0269 4.81913 13.4338 4.17572 11.7612 4.10204V2.6853C13.8177 2.76349 15.7778 3.55533 17.2883 4.91809L16.2629 5.9202ZM6.56451 5.9202L5.53863 4.91997C7.04937 3.55725 9.00963 2.76543 11.0662 2.68719V4.10393C9.39385 4.17701 7.8008 4.81975 6.56451 5.9202ZM4.20809 10.7886H2.74676C2.83034 8.78237 3.64688 6.8714 5.04894 5.40072L6.07289 6.39953C4.9435 7.60462 4.28357 9.15785 4.20809 10.7886ZM18.6193 10.7886C18.5436 9.1579 17.8837 7.60473 16.7545 6.39953L17.7785 5.40072C19.1804 6.87151 19.9969 8.78242 20.0807 10.7886H18.6193Z" fill="white"/>
<path d="M16.2747 10.7883H12.5451C12.4618 10.5222 12.2833 10.2941 12.0421 10.1456C11.8008 9.99709 11.5129 9.93797 11.2307 9.97902C10.9485 10.0201 10.6908 10.1586 10.5045 10.3693C10.3183 10.58 10.2158 10.8489 10.2158 11.1271C10.2158 11.4053 10.3183 11.6742 10.5045 11.8849C10.6908 12.0956 10.9485 12.2341 11.2307 12.2752C11.5129 12.3162 11.8008 12.2571 12.0421 12.1086C12.2833 11.9601 12.4618 11.732 12.5451 11.4659H16.2747C16.3214 11.4676 16.368 11.4601 16.4117 11.4439C16.4554 11.4276 16.4953 11.4029 16.5289 11.3713C16.5626 11.3397 16.5894 11.3017 16.6077 11.2598C16.626 11.2178 16.6354 11.1727 16.6354 11.1271C16.6354 11.0815 16.626 11.0364 16.6077 10.9944C16.5894 10.9525 16.5626 10.9145 16.5289 10.8829C16.4953 10.8513 16.4554 10.8266 16.4117 10.8103C16.368 10.7941 16.3214 10.7866 16.2747 10.7883ZM11.4131 11.6081C11.3151 11.6081 11.2193 11.5797 11.1379 11.5267C11.0564 11.4736 10.9929 11.3981 10.9554 11.3098C10.9179 11.2216 10.908 11.1244 10.9272 11.0307C10.9463 10.937 10.9935 10.8509 11.0628 10.7834C11.1321 10.7158 11.2204 10.6698 11.3165 10.6511C11.4126 10.6325 11.5122 10.6421 11.6028 10.6786C11.6933 10.7152 11.7707 10.7771 11.8251 10.8566C11.8796 10.936 11.9086 11.0294 11.9086 11.125C11.9085 11.2531 11.8563 11.3759 11.7634 11.4664C11.6705 11.557 11.5445 11.608 11.4131 11.6081Z" fill="white"/>
<path d="M11.413 0C5.11972 0 0 4.99166 0 11.1271C0.00221433 12.3685 0.218342 13.6008 0.639359 14.7724C0.662939 14.8389 0.707201 14.8965 0.765978 14.9373C0.824755 14.9781 0.895121 15 0.967273 15H21.8588C21.931 15.0001 22.0015 14.9783 22.0604 14.9375C22.1193 14.8966 22.1636 14.8389 22.1872 14.7724C22.6079 13.6009 22.8238 12.3688 22.8261 11.1276C22.8261 4.99166 17.7064 0 11.413 0ZM21.6089 14.3219H1.2172C0.87281 13.2901 0.69646 12.2121 0.694576 11.1271C0.694576 5.36568 5.50285 0.677675 11.4126 0.677675C17.3223 0.677675 22.131 5.3652 22.131 11.1271C22.1291 12.2121 21.953 13.29 21.6089 14.3219Z" fill="white"/>
</svg>
