<svg width="15" height="15" viewBox="0 0 15 15" fill="none" xmlns="http://www.w3.org/2000/svg">
<g clip-path="url(#clip0_1084_236)">
<path d="M14.3814 12.3973H14.1728C14.1749 12.3678 14.1749 12.3383 14.1728 12.3089V1.1733C14.1728 0.831632 13.8958 0.554657 13.5541 0.554657H7.50911C7.16744 0.554657 6.89046 0.831632 6.89046 1.1733V5.76894C6.3149 5.90858 5.81124 6.25608 5.47642 6.74463C5.06582 7.33619 4.93891 8.07949 5.12998 8.77379C5.38451 9.74948 5.41632 11.0433 4.88959 11.5807C4.58632 11.8495 4.15972 11.9296 3.77957 11.7892C3.37064 11.7245 3.02151 11.459 2.84983 11.0822C2.28775 9.78483 3.69119 7.33146 3.69473 7.32086C3.77957 7.19359 5.73448 4.15693 3.73715 2.3717C3.65584 2.28686 1.7292 0.250637 0.240923 0.448603C0.0896204 0.468135 -0.0172283 0.606623 0.00230317 0.757925C0.0218347 0.909228 0.160323 1.01608 0.311625 0.996545C0.66929 0.975069 1.02581 1.0547 1.34034 1.22633L0.94441 1.70357C0.729829 1.96945 0.771455 2.35893 1.03734 2.57351C1.04167 2.577 1.04604 2.58045 1.05046 2.58381L2.37966 3.64434C2.48894 3.73192 2.62496 3.77934 2.76499 3.77868H2.81802C2.98099 3.76029 3.1299 3.67757 3.23163 3.54889L3.61695 3.06458C4.81182 4.59175 3.26344 7.02391 3.22456 7.06279C3.16092 7.17238 1.67618 9.77069 2.34078 11.3049C2.58647 11.8377 3.08046 12.2138 3.65937 12.3089C3.83768 12.3521 4.02035 12.3746 4.20378 12.3761C4.60016 12.388 4.98389 12.2358 5.26431 11.9554C5.97134 11.2165 5.91477 9.71059 5.63904 8.64299C5.34575 7.66023 5.90196 6.62524 6.88339 6.32749V12.3089C6.88127 12.3383 6.88127 12.3678 6.88339 12.3973H6.70664C6.36506 12.3895 6.08181 12.66 6.07403 13.0016C6.0739 13.0064 6.07385 13.0111 6.07385 13.0159V13.9457C6.07377 14.2873 6.35065 14.5644 6.69232 14.5645C6.69709 14.5645 6.70187 14.5644 6.70664 14.5643H14.3814C14.723 14.5643 15 14.2873 15 13.9457V13.0159C15 12.6743 14.723 12.3973 14.3814 12.3973ZM3.21042 2.73582L2.81802 3.22013C2.80304 3.23833 2.78139 3.24978 2.75792 3.25195C2.73521 3.25491 2.71223 3.2485 2.69429 3.23427L1.36509 2.17374C1.33142 2.13936 1.33142 2.08439 1.36509 2.05001L1.75749 1.56216C1.77247 1.54396 1.79412 1.53251 1.81758 1.53035C1.8403 1.52739 1.86327 1.53379 1.88121 1.54802L3.21042 2.60856C3.22893 2.62327 3.24046 2.64506 3.24223 2.66865C3.24201 2.69463 3.23039 2.7192 3.21042 2.73582ZM7.41366 1.1733C7.41366 1.12447 7.45321 1.08492 7.50204 1.08492H13.5612C13.61 1.08492 13.6496 1.12447 13.6496 1.1733V12.3089C13.6496 12.3577 13.61 12.3973 13.5612 12.3973H7.50911C7.46046 12.4012 7.41786 12.3649 7.41393 12.3162C7.41375 12.3138 7.41362 12.3113 7.41366 12.3089V1.1733ZM14.4839 13.9457C14.4839 13.9945 14.4443 14.034 14.3955 14.034H6.70664C6.65781 14.034 6.61826 13.9945 6.61826 13.9457V13.0159C6.61826 12.9671 6.65781 12.9275 6.70664 12.9275H14.3814C14.4295 12.9197 14.475 12.9525 14.4827 13.0006C14.4836 13.0057 14.4839 13.0108 14.4839 13.0159V13.9457Z" fill="white"/>
<path d="M12.363 1.92627H8.70068C8.35901 1.92627 8.08203 2.20325 8.08203 2.54491V6.21082C8.08203 6.55249 8.35901 6.82947 8.70068 6.82947H12.363C12.7047 6.82947 12.9817 6.55249 12.9817 6.21082V2.54491C12.9817 2.20329 12.7047 1.92627 12.363 1.92627ZM12.4514 6.21436C12.4495 6.26177 12.4105 6.29924 12.363 6.2992H8.70068C8.65185 6.2992 8.6123 6.25965 8.6123 6.21082V2.54491C8.6123 2.49608 8.65185 2.45654 8.70068 2.45654H12.363C12.4119 2.45654 12.4514 2.49608 12.4514 2.54491V6.21436Z" fill="white"/>
<path d="M11.9497 7.83008H9.12158C8.97514 7.83008 8.85645 7.94877 8.85645 8.09521C8.85645 8.24165 8.97514 8.36034 9.12158 8.36034H11.9497C12.0961 8.36034 12.2148 8.24165 12.2148 8.09521C12.2148 7.94877 12.0961 7.83008 11.9497 7.83008Z" fill="white"/>
</g>
<defs>
<clipPath id="clip0_1084_236">
<rect width="15" height="15" fill="white"/>
</clipPath>
</defs>
</svg>
