<svg width="14" height="14" viewBox="0 0 14 14" fill="none" xmlns="http://www.w3.org/2000/svg">
<g clip-path="url(#clip0_1084_225)">
<path d="M11.9492 0C10.8184 0 9.89844 0.91998 9.89844 2.05078C9.89844 3.04114 10.6041 3.86974 11.5391 4.0603V6.17969C11.5391 6.40585 11.3551 6.58984 11.1289 6.58984H7.41016V4.0603C8.34509 3.86977 9.05078 3.04117 9.05078 2.05078C9.05078 0.91998 8.1308 0 7 0C5.8692 0 4.94922 0.91998 4.94922 2.05078C4.94922 3.04114 5.65491 3.86974 6.58984 4.0603V6.58984H2.46094V4.0603C3.39587 3.86977 4.10156 3.04117 4.10156 2.05078C4.10156 0.91998 3.18158 0 2.05078 0C0.91998 0 0 0.91998 0 2.05078C0 3.04114 0.705687 3.86974 1.64062 4.0603V9.93973C0.705687 10.1303 0 10.9589 0 11.9492C0 13.08 0.91998 14 2.05078 14C3.18158 14 4.10156 13.08 4.10156 11.9492C4.10156 10.9589 3.39587 10.1303 2.46094 9.9397V7.41016H6.58984V9.9397C5.65491 10.1302 4.94922 10.9588 4.94922 11.9492C4.94922 13.08 5.8692 14 7 14C8.1308 14 9.05078 13.08 9.05078 11.9492C9.05078 10.9589 8.34509 10.1303 7.41016 9.9397V7.41016H11.1289C11.8074 7.41016 12.3594 6.85817 12.3594 6.17969V4.0603C13.2943 3.86977 14 3.04117 14 2.05078C14 0.91998 13.08 0 11.9492 0ZM3.28125 11.9492C3.28125 12.6277 2.72926 13.1797 2.05078 13.1797C1.3723 13.1797 0.820312 12.6277 0.820312 11.9492C0.820312 11.2707 1.3723 10.7188 2.05078 10.7188C2.72926 10.7188 3.28125 11.2707 3.28125 11.9492ZM2.05078 3.28125C1.3723 3.28125 0.820312 2.72926 0.820312 2.05078C0.820312 1.3723 1.3723 0.820312 2.05078 0.820312C2.72926 0.820312 3.28125 1.3723 3.28125 2.05078C3.28125 2.72926 2.72926 3.28125 2.05078 3.28125ZM8.23047 11.9492C8.23047 12.6277 7.67848 13.1797 7 13.1797C6.32152 13.1797 5.76953 12.6277 5.76953 11.9492C5.76953 11.2707 6.32152 10.7188 7 10.7188C7.67848 10.7188 8.23047 11.2707 8.23047 11.9492ZM7 3.28125C6.32152 3.28125 5.76953 2.72926 5.76953 2.05078C5.76953 1.3723 6.32152 0.820312 7 0.820312C7.67848 0.820312 8.23047 1.3723 8.23047 2.05078C8.23047 2.72926 7.67848 3.28125 7 3.28125ZM11.9492 3.28125C11.2707 3.28125 10.7188 2.72926 10.7188 2.05078C10.7188 1.3723 11.2707 0.820312 11.9492 0.820312C12.6277 0.820312 13.1797 1.3723 13.1797 2.05078C13.1797 2.72926 12.6277 3.28125 11.9492 3.28125Z" fill="white"/>
</g>
<defs>
<clipPath id="clip0_1084_225">
<rect width="14" height="14" fill="white"/>
</clipPath>
</defs>
</svg>
