<svg width="14" height="14" viewBox="0 0 14 14" fill="none" xmlns="http://www.w3.org/2000/svg">
<path d="M6.90036 6.74385C7.82684 6.74385 8.629 6.41156 9.28461 5.75596C9.94 5.10045 10.2724 4.29841 10.2724 3.37182C10.2724 2.44555 9.94011 1.6434 9.2845 0.987684C8.62889 0.33229 7.82674 0 6.90036 0C5.97377 0 5.17172 0.33229 4.51622 0.987791C3.86072 1.64329 3.52832 2.44545 3.52832 3.37182C3.52832 4.29841 3.86072 5.10056 4.51622 5.75606C5.17194 6.41146 5.97409 6.74385 6.90036 6.74385ZM5.09642 1.56788C5.5994 1.06491 6.18942 0.820418 6.90036 0.820418C7.61119 0.820418 8.20132 1.06491 8.70441 1.56788C9.20738 2.07096 9.45198 2.6611 9.45198 3.37182C9.45198 4.08276 9.20738 4.67278 8.70441 5.17586C8.20132 5.67894 7.61119 5.92344 6.90036 5.92344C6.18964 5.92344 5.59961 5.67884 5.09642 5.17586C4.59334 4.67289 4.34874 4.08276 4.34874 3.37182C4.34874 2.6611 4.59334 2.07096 5.09642 1.56788Z" fill="white"/>
<path d="M12.8004 10.7654C12.7815 10.4927 12.7433 10.1951 12.687 9.88084C12.6301 9.56425 12.557 9.26496 12.4694 8.99142C12.3788 8.70869 12.2559 8.42949 12.1037 8.16192C11.9459 7.88421 11.7605 7.64239 11.5524 7.4434C11.3348 7.23523 11.0685 7.06786 10.7604 6.94577C10.4534 6.82433 10.1132 6.7628 9.74933 6.7628C9.60641 6.7628 9.4682 6.82144 9.20128 6.99522C9.037 7.10236 8.84485 7.22626 8.63037 7.3633C8.44698 7.48015 8.19853 7.58963 7.89166 7.68875C7.59227 7.78563 7.28828 7.83476 6.98814 7.83476C6.68822 7.83476 6.38423 7.78563 6.08463 7.68875C5.77808 7.58974 5.52953 7.48025 5.34645 7.3634C5.134 7.22764 4.94174 7.10374 4.77501 6.99512C4.5083 6.82133 4.37009 6.7627 4.22717 6.7627C3.86316 6.7627 3.52307 6.82433 3.2162 6.94588C2.90837 7.06775 2.64188 7.23512 2.42409 7.44351C2.21602 7.64261 2.03059 7.88432 1.87294 8.16192C1.72095 8.42949 1.5979 8.70858 1.50732 8.99153C1.41985 9.26507 1.34668 9.56425 1.28986 9.88084C1.23346 10.1946 1.19533 10.4923 1.17642 10.7658C1.15784 11.0331 1.14844 11.3114 1.14844 11.5925C1.14844 12.3233 1.38075 12.9149 1.83887 13.3512C2.29132 13.7818 2.88989 14.0001 3.61803 14.0001H10.3591C11.087 14.0001 11.6856 13.7818 12.1382 13.3512C12.5964 12.9152 12.8287 12.3234 12.8287 11.5924C12.8286 11.3103 12.8191 11.0321 12.8004 10.7654ZM11.5725 12.7568C11.2735 13.0414 10.8766 13.1797 10.359 13.1797H3.61803C3.10031 13.1797 2.7034 13.0414 2.40454 12.7569C2.11134 12.4778 1.96886 12.0969 1.96886 11.5925C1.96886 11.3302 1.97751 11.0711 1.99481 10.8225C2.01169 10.5785 2.04619 10.3105 2.09735 10.0258C2.14787 9.74455 2.21217 9.48062 2.28865 9.24168C2.36203 9.01257 2.46211 8.7857 2.58623 8.56717C2.70468 8.35888 2.84097 8.18019 2.99136 8.03621C3.13203 7.90152 3.30934 7.79129 3.51826 7.70862C3.71149 7.63214 3.92863 7.59027 4.16437 7.58397C4.1931 7.59924 4.24426 7.6284 4.32715 7.68245C4.4958 7.79236 4.6902 7.91775 4.90511 8.05501C5.14735 8.20945 5.45946 8.34895 5.83234 8.46933C6.21355 8.59259 6.60234 8.65518 6.98825 8.65518C7.37416 8.65518 7.76306 8.59259 8.14406 8.46943C8.51726 8.34884 8.82925 8.20945 9.07182 8.05479C9.29175 7.91423 9.4807 7.79246 9.64935 7.68245C9.73224 7.62851 9.7834 7.59924 9.81213 7.58397C10.048 7.59027 10.2651 7.63214 10.4585 7.70862C10.6673 7.79129 10.8446 7.90162 10.9852 8.03621C11.1356 8.18008 11.2719 8.35878 11.3904 8.56727C11.5146 8.7857 11.6148 9.01268 11.6881 9.24157C11.7646 9.48083 11.8291 9.74465 11.8795 10.0257C11.9305 10.311 11.9651 10.5791 11.982 10.8226V10.8228C11.9994 11.0705 12.0082 11.3294 12.0083 11.5925C12.0082 12.097 11.8657 12.4778 11.5725 12.7568Z" fill="white"/>
</svg>
