<svg width="16" height="10" viewBox="0 0 16 10" fill="none" xmlns="http://www.w3.org/2000/svg">
<path d="M11.1433 3.35181H4.85644C4.7173 3.35181 4.60449 3.46461 4.60449 3.60376C4.60449 3.7429 4.7173 3.85571 4.85644 3.85571H11.1434C11.2825 3.85571 11.3953 3.7429 11.3953 3.60376C11.3953 3.46461 11.2825 3.35181 11.1433 3.35181Z" fill="#FF3600"/>
<path d="M2.22998 4.49414H1.29883C1.15968 4.49414 1.04688 4.60695 1.04688 4.74609C1.04688 4.88524 1.15968 4.99805 1.29883 4.99805H2.22998C2.69011 4.99805 3.07812 5.31289 3.18992 5.73845H1.36336C1.22422 5.73845 1.11141 5.85126 1.11141 5.9904C1.11141 6.12955 1.22422 6.24236 1.36336 6.24236H3.47422C3.61336 6.24236 3.72617 6.12955 3.72617 5.9904C3.72621 5.16534 3.055 4.49414 2.22998 4.49414Z" fill="#FF3600"/>
<path d="M13.7687 4.99805H14.6998C14.839 4.99805 14.9518 4.88524 14.9518 4.74609C14.9518 4.60695 14.839 4.49414 14.6998 4.49414H13.7687C12.9437 4.49414 12.2725 5.16534 12.2725 5.9904C12.2725 6.12955 12.3853 6.24236 12.5244 6.24236H14.6353C14.7744 6.24236 14.8872 6.12955 14.8872 5.9904C14.8872 5.85126 14.7744 5.73845 14.6353 5.73845H12.8088C12.9205 5.31289 13.3086 4.99805 13.7687 4.99805Z" fill="#FF3600"/>
<path d="M15.4467 3.3869C15.0935 3.0178 14.614 2.81453 14.0962 2.81453C14.0736 2.81453 14.051 2.81759 14.0292 2.82363L13.2194 3.04733L12.0266 0.755773C11.8131 0.345527 11.2835 0.0241699 10.8211 0.0241699H5.17786C4.71537 0.0241699 4.18584 0.345527 3.97228 0.755773L2.77947 3.04733L1.96976 2.82363C1.94793 2.81759 1.92535 2.81453 1.90268 2.81453C1.38496 2.81453 0.905348 3.0178 0.552211 3.3869C0.199074 3.75599 0.017131 4.24411 0.0400083 4.76283L0.222859 8.40838C0.229577 8.54245 0.340269 8.64773 0.474509 8.64773H0.558493V9.74793C0.558493 9.88707 0.671301 9.99988 0.810446 9.99988H3.46136C3.6005 9.99988 3.71331 9.88707 3.71331 9.74793V9.40359C3.71331 9.26445 3.6005 9.15164 3.46136 9.15164C3.32221 9.15164 3.2094 9.26445 3.2094 9.40359V9.49598H1.06236V8.64773H14.9366V9.49598H12.7895V9.40359C12.7895 9.26445 12.6767 9.15164 12.5376 9.15164C12.3984 9.15164 12.2856 9.26445 12.2856 9.40359V9.74793C12.2856 9.88707 12.3984 9.99988 12.5376 9.99988H15.1885C15.3277 9.99988 15.4405 9.88707 15.4405 9.74793V8.64773H15.5244C15.6587 8.64773 15.7694 8.54249 15.7761 8.40838L15.959 4.76135C15.9818 4.24411 15.7999 3.75599 15.4467 3.3869ZM15.4556 4.7376L15.2848 8.1438H0.714133L0.543376 4.73911C0.52668 4.36058 0.659106 4.00408 0.916333 3.7353C1.16607 3.47427 1.50362 3.32713 1.86989 3.31887L2.8392 3.58668C2.83981 3.58685 2.84041 3.58701 2.84105 3.58718L3.78113 3.8469C3.91521 3.88395 4.05402 3.80527 4.09107 3.67113C4.12812 3.53703 4.04945 3.39825 3.91531 3.3612L3.27615 3.18463L4.41928 0.98851C4.54694 0.743276 4.90142 0.528142 5.17789 0.528142H10.8211C11.0975 0.528142 11.452 0.743276 11.5797 0.98851L12.7228 3.18463L12.0837 3.3612C11.9495 3.39825 11.8709 3.53703 11.9079 3.67113C11.945 3.80527 12.0837 3.88392 12.2179 3.8469L14.1291 3.31887C14.4954 3.32717 14.8329 3.47431 15.0827 3.7353C15.3398 4.00408 15.4723 4.36058 15.4556 4.7376Z" fill="#FF3600"/>
<path d="M14.0957 2.31055H14.9734C15.1126 2.31055 15.2254 2.19774 15.2254 2.05859C15.2254 1.91945 15.1126 1.80664 14.9734 1.80664H14.0957C13.9566 1.80664 13.8438 1.91945 13.8438 2.05859C13.8438 2.19774 13.9566 2.31055 14.0957 2.31055Z" fill="#FF3600"/>
<path d="M1.02539 2.31055H1.90313C2.04227 2.31055 2.15508 2.19774 2.15508 2.05859C2.15508 1.91945 2.04227 1.80664 1.90313 1.80664H1.02539C0.886245 1.80664 0.773438 1.91945 0.773438 2.05859C0.773438 2.19774 0.886245 2.31055 1.02539 2.31055Z" fill="#FF3600"/>
<path d="M10.7941 6.46265H5.20508C5.06593 6.46265 4.95312 6.57545 4.95312 6.7146V7.38798C4.95312 7.52713 5.06593 7.63994 5.20508 7.63994C5.34422 7.63994 5.45703 7.52713 5.45703 7.38798V6.96655H10.5421V7.38798C10.5421 7.52713 10.6549 7.63994 10.7941 7.63994C10.9332 7.63994 11.046 7.52713 11.046 7.38798V6.7146C11.046 6.57545 10.9332 6.46265 10.7941 6.46265Z" fill="#FF3600"/>
<path d="M9.39706 5.19971C9.53621 5.19971 9.64901 5.0869 9.64901 4.94775C9.64901 4.80861 9.53621 4.6958 9.39706 4.6958H6.60254C6.46339 4.6958 6.35059 4.80861 6.35059 4.94775C6.35059 5.0869 6.46339 5.19971 6.60254 5.19971H9.39706Z" fill="#FF3600"/>
</svg>
