<svg width="18" height="12" viewBox="0 0 18 12" fill="none" xmlns="http://www.w3.org/2000/svg">
<path d="M13.5715 3.51255C13.5669 3.50914 13.562 3.50605 13.557 3.50331C12.2383 2.21972 10.4511 1.49878 8.58771 1.49878C6.72434 1.49878 4.93713 2.21972 3.61845 3.50331C3.61408 3.50686 3.60825 3.50828 3.60424 3.51255C3.60023 3.51681 3.59841 3.52214 3.5944 3.5264C2.27741 4.81188 1.53808 6.55478 1.53906 8.37172C1.53897 8.40523 1.54566 8.43844 1.55874 8.46943C1.57183 8.50042 1.59106 8.52858 1.61534 8.55232C1.63961 8.57605 1.66844 8.59488 1.70019 8.60772C1.73194 8.62057 1.76598 8.62718 1.80035 8.62718H3.41547C3.44982 8.62718 3.48382 8.62058 3.51555 8.60776C3.54727 8.59493 3.57609 8.57614 3.60036 8.55244C3.62463 8.52875 3.64387 8.50062 3.65698 8.46967C3.67009 8.43872 3.67681 8.40556 3.67676 8.37207C3.67676 7.10219 4.19416 5.88431 5.11515 4.98637C6.03613 4.08842 7.28525 3.58396 8.58771 3.58396C9.89017 3.58396 11.1393 4.08842 12.0603 4.98637C12.9813 5.88431 13.4987 7.10219 13.4987 8.37207C13.4986 8.40559 13.5053 8.43878 13.5185 8.46975C13.5316 8.50073 13.5509 8.52887 13.5752 8.55257C13.5995 8.57627 13.6284 8.59506 13.6601 8.60786C13.6919 8.62066 13.7259 8.62723 13.7603 8.62718H15.3751C15.4094 8.62723 15.4435 8.62066 15.4753 8.60786C15.507 8.59506 15.5359 8.57627 15.5602 8.55257C15.5845 8.52887 15.6038 8.50073 15.6169 8.46975C15.63 8.43878 15.6368 8.40559 15.6367 8.37207C15.6372 7.47227 15.4558 6.5812 15.103 5.74976C14.7501 4.91832 14.2327 4.16282 13.5803 3.5264C13.5776 3.52164 13.5747 3.51701 13.5715 3.51255ZM12.2363 4.45411C11.3063 3.6257 10.1078 3.14161 8.84937 3.08618V2.02026C10.3966 2.07908 11.8713 2.67484 13.0078 3.70015L12.2363 4.45411ZM4.93948 4.45411L4.16764 3.70157C5.30428 2.67629 6.77913 2.08055 8.32642 2.02168V3.0876C7.0682 3.14258 5.86963 3.62616 4.93948 4.45411ZM3.16657 8.11696H2.06711C2.12999 6.60754 2.74433 5.16977 3.79921 4.06327L4.5696 4.81474C3.71988 5.72142 3.22337 6.89003 3.16657 8.11696ZM14.0092 8.11696C13.9523 6.89007 13.4558 5.72151 12.6062 4.81474L13.3766 4.06327C14.4313 5.16985 15.0456 6.60757 15.1087 8.11696H14.0092Z" fill="#FF3600"/>
<path d="M12.2441 8.11695H9.43803C9.37537 7.91677 9.24106 7.74519 9.05956 7.63344C8.87805 7.52169 8.66143 7.47721 8.44911 7.5081C8.2368 7.53898 8.04292 7.64318 7.90278 7.80172C7.76264 7.96025 7.68555 8.16259 7.68555 8.37188C7.68555 8.58117 7.76264 8.78351 7.90278 8.94205C8.04292 9.10058 8.2368 9.20478 8.44911 9.23566C8.66143 9.26655 8.87805 9.22207 9.05956 9.11032C9.24106 8.99857 9.37537 8.82699 9.43803 8.62681H12.2441C12.2792 8.62809 12.3143 8.62245 12.3472 8.61021C12.38 8.59798 12.41 8.5794 12.4354 8.55561C12.4607 8.53181 12.4809 8.50327 12.4946 8.4717C12.5084 8.44013 12.5155 8.40618 12.5155 8.37188C12.5155 8.33758 12.5084 8.30363 12.4946 8.27206C12.4809 8.24049 12.4607 8.21196 12.4354 8.18816C12.41 8.16436 12.38 8.14578 12.3472 8.13355C12.3143 8.12131 12.2792 8.11567 12.2441 8.11695ZM8.58638 8.73376C8.51265 8.73376 8.44057 8.71244 8.37926 8.6725C8.31795 8.63256 8.27017 8.5758 8.24195 8.50938C8.21374 8.44296 8.20635 8.36988 8.22074 8.29937C8.23512 8.22886 8.27063 8.1641 8.32277 8.11326C8.3749 8.06243 8.44133 8.02781 8.51365 8.01379C8.58597 7.99976 8.66092 8.00696 8.72904 8.03447C8.79717 8.06198 8.85539 8.10857 8.89635 8.16834C8.93732 8.22812 8.95918 8.29839 8.95918 8.37028C8.95909 8.46665 8.91978 8.55905 8.84988 8.6272C8.77999 8.69534 8.68522 8.73367 8.58638 8.73376Z" fill="#FF3600"/>
<path d="M8.58687 0C3.85194 0 0 3.75559 0 8.37173C0.001666 9.30575 0.164275 10.2329 0.481037 11.1143C0.498778 11.1644 0.532079 11.2077 0.576302 11.2384C0.620524 11.2691 0.673465 11.2856 0.72775 11.2856H16.446C16.5003 11.2857 16.5534 11.2692 16.5977 11.2385C16.642 11.2078 16.6753 11.1644 16.6931 11.1143C17.0096 10.2329 17.172 9.30596 17.1737 8.37209C17.1737 3.75559 13.3218 0 8.58687 0ZM16.2579 10.7754H0.915792C0.656679 9.99913 0.523998 9.18806 0.522581 8.37173C0.522581 4.03699 4.1402 0.509865 8.58651 0.509865C13.0328 0.509865 16.6508 4.03664 16.6508 8.37173C16.6494 9.18803 16.5168 9.99908 16.2579 10.7754Z" fill="#FF3600"/>
</svg>
