<svg width="17" height="17" viewBox="0 0 17 17" fill="none" xmlns="http://www.w3.org/2000/svg">
<g clip-path="url(#clip0_1074_107)">
<path d="M16.2989 14.0506H16.0625C16.0649 14.0172 16.0649 13.9838 16.0625 13.9504V1.33008C16.0625 0.942859 15.7486 0.628953 15.3614 0.628953H8.51032C8.1231 0.628953 7.80919 0.942859 7.80919 1.33008V6.53848C7.15689 6.69673 6.58607 7.09057 6.20661 7.64426C5.74126 8.31469 5.59743 9.1571 5.81398 9.94397C6.10244 11.0497 6.1385 12.5161 5.54154 13.1251C5.19783 13.4297 4.71435 13.5206 4.28351 13.3615C3.82006 13.2881 3.42438 12.9872 3.22981 12.5602C2.59278 11.0898 4.18335 8.30933 4.18736 8.29731C4.28351 8.15308 6.49908 4.71153 4.23543 2.68827C4.14328 2.59212 1.95976 0.284397 0.273046 0.508759C0.10157 0.530895 -0.0195254 0.687848 0.00261026 0.859324C0.0247459 1.0308 0.181699 1.1519 0.353175 1.12976C0.758529 1.10542 1.16258 1.19567 1.51905 1.39018L1.07033 1.93105C0.827139 2.23239 0.874315 2.6738 1.17565 2.91699C1.18056 2.92095 1.18552 2.92485 1.19052 2.92866L2.69695 4.1306C2.8208 4.22986 2.97495 4.28359 3.13366 4.28284H3.19375C3.37845 4.26201 3.54722 4.16826 3.66251 4.02242L4.09921 3.47354C5.4534 5.20433 3.69857 7.96077 3.6545 8.00484C3.58238 8.12904 1.89967 11.0738 2.65288 12.8126C2.93133 13.4164 3.49118 13.8427 4.14729 13.9504C4.34937 13.9994 4.5564 14.0249 4.76429 14.0265C5.21351 14.0401 5.64841 13.8675 5.96622 13.5498C6.76751 12.7124 6.70341 11.0057 6.39091 9.79573C6.05852 8.68193 6.68889 7.50894 7.80118 7.1715V13.9504C7.79878 13.9838 7.79878 14.0172 7.80118 14.0506H7.60086C7.21373 14.0417 6.89271 14.3484 6.8839 14.7355C6.88375 14.7409 6.8837 14.7463 6.8837 14.7517V15.8054C6.8836 16.1926 7.19741 16.5066 7.58463 16.5067C7.59004 16.5067 7.59545 16.5067 7.60086 16.5065H16.2989C16.6861 16.5065 17 16.1926 17 15.8054V14.7517C17 14.3645 16.6861 14.0506 16.2989 14.0506ZM3.63847 3.10094L3.19375 3.64982C3.17678 3.67045 3.15224 3.68343 3.12564 3.68588C3.0999 3.68924 3.07386 3.68197 3.05353 3.66585L1.5471 2.46391C1.50894 2.42495 1.50894 2.36265 1.5471 2.32368L1.99182 1.77079C2.00879 1.75016 2.03333 1.73719 2.05993 1.73474C2.08567 1.73138 2.11171 1.73864 2.13204 1.75477L3.63847 2.9567C3.65945 2.97338 3.67253 2.99807 3.67453 3.02481C3.67428 3.05426 3.66111 3.08211 3.63847 3.10094ZM8.40215 1.33008C8.40215 1.27474 8.44697 1.22992 8.50231 1.22992H15.3694C15.4247 1.22992 15.4695 1.27474 15.4695 1.33008V13.9504C15.4695 14.0058 15.4247 14.0506 15.3694 14.0506H8.51032C8.45518 14.055 8.40691 14.0139 8.40245 13.9587C8.40225 13.956 8.4021 13.9532 8.40215 13.9504V1.33008ZM16.4151 15.8054C16.4151 15.8608 16.3702 15.9056 16.3149 15.9056H7.60086C7.54552 15.9056 7.5007 15.8608 7.5007 15.8054V14.7517C7.5007 14.6964 7.54552 14.6516 7.60086 14.6516H16.2989C16.3535 14.6427 16.4049 14.6798 16.4138 14.7344C16.4147 14.7401 16.4151 14.7459 16.4151 14.7517V15.8054Z" fill="#FF3600"/>
<path d="M14.011 2.18335H9.86031C9.47309 2.18335 9.15918 2.49726 9.15918 2.88448V7.03918C9.15918 7.4264 9.47309 7.74031 9.86031 7.74031H14.011C14.3982 7.74031 14.7121 7.4264 14.7121 7.03918V2.88448C14.7121 2.49731 14.3982 2.18335 14.011 2.18335ZM14.1112 7.04318C14.109 7.09692 14.0648 7.13939 14.011 7.13934H9.86031C9.80497 7.13934 9.76015 7.09451 9.76015 7.03918V2.88448C9.76015 2.82914 9.80497 2.78432 9.86031 2.78432H14.011C14.0663 2.78432 14.1112 2.82914 14.1112 2.88448V7.04318Z" fill="#FF3600"/>
<path d="M13.5428 8.87402H10.3376C10.1716 8.87402 10.0371 9.00854 10.0371 9.17451C10.0371 9.34048 10.1716 9.47499 10.3376 9.47499H13.5428C13.7087 9.47499 13.8432 9.34048 13.8432 9.17451C13.8432 9.00854 13.7087 8.87402 13.5428 8.87402Z" fill="#FF3600"/>
</g>
<defs>
<clipPath id="clip0_1074_107">
<rect width="17" height="17" fill="white"/>
</clipPath>
</defs>
</svg>
