<svg width="16" height="16" viewBox="0 0 16 16" fill="none" xmlns="http://www.w3.org/2000/svg">
<g clip-path="url(#clip0_1074_96)">
<path d="M13.6562 0C12.3639 0 11.3125 1.05141 11.3125 2.34375C11.3125 3.47559 12.119 4.42256 13.1875 4.64034V7.0625C13.1875 7.32097 12.9772 7.53125 12.7188 7.53125H8.46875V4.64034C9.53725 4.42259 10.3438 3.47563 10.3438 2.34375C10.3438 1.05141 9.29234 0 8 0C6.70766 0 5.65625 1.05141 5.65625 2.34375C5.65625 3.47559 6.46275 4.42256 7.53125 4.64034V7.53125H2.8125V4.64034C3.881 4.42259 4.6875 3.47563 4.6875 2.34375C4.6875 1.05141 3.63609 0 2.34375 0C1.05141 0 0 1.05141 0 2.34375C0 3.47559 0.8065 4.42256 1.875 4.64034V11.3597C0.8065 11.5774 0 12.5244 0 13.6562C0 14.9486 1.05141 16 2.34375 16C3.63609 16 4.6875 14.9486 4.6875 13.6562C4.6875 12.5244 3.881 11.5774 2.8125 11.3597V8.46875H7.53125V11.3597C6.46275 11.5774 5.65625 12.5244 5.65625 13.6562C5.65625 14.9486 6.70766 16 8 16C9.29234 16 10.3438 14.9486 10.3438 13.6562C10.3438 12.5244 9.53725 11.5774 8.46875 11.3597V8.46875H12.7188C13.4942 8.46875 14.125 7.83791 14.125 7.0625V4.64034C15.1935 4.42259 16 3.47563 16 2.34375C16 1.05141 14.9486 0 13.6562 0ZM3.75 13.6562C3.75 14.4317 3.11916 15.0625 2.34375 15.0625C1.56834 15.0625 0.9375 14.4317 0.9375 13.6562C0.9375 12.8808 1.56834 12.25 2.34375 12.25C3.11916 12.25 3.75 12.8808 3.75 13.6562ZM2.34375 3.75C1.56834 3.75 0.9375 3.11916 0.9375 2.34375C0.9375 1.56834 1.56834 0.9375 2.34375 0.9375C3.11916 0.9375 3.75 1.56834 3.75 2.34375C3.75 3.11916 3.11916 3.75 2.34375 3.75ZM9.40625 13.6562C9.40625 14.4317 8.77541 15.0625 8 15.0625C7.22459 15.0625 6.59375 14.4317 6.59375 13.6562C6.59375 12.8808 7.22459 12.25 8 12.25C8.77541 12.25 9.40625 12.8808 9.40625 13.6562ZM8 3.75C7.22459 3.75 6.59375 3.11916 6.59375 2.34375C6.59375 1.56834 7.22459 0.9375 8 0.9375C8.77541 0.9375 9.40625 1.56834 9.40625 2.34375C9.40625 3.11916 8.77541 3.75 8 3.75ZM13.6562 3.75C12.8808 3.75 12.25 3.11916 12.25 2.34375C12.25 1.56834 12.8808 0.9375 13.6562 0.9375C14.4317 0.9375 15.0625 1.56834 15.0625 2.34375C15.0625 3.11916 14.4317 3.75 13.6562 3.75Z" fill="#FF3600"/>
</g>
<defs>
<clipPath id="clip0_1074_96">
<rect width="16" height="16" fill="white"/>
</clipPath>
</defs>
</svg>
