<svg width="16" height="16" viewBox="0 0 16 16" fill="none" xmlns="http://www.w3.org/2000/svg">
<g clip-path="url(#clip0_1076_132)">
<path d="M8 0C10.209 0 12.2091 0.895377 13.6569 2.34314C15.1046 3.7909 16 5.79104 16 8C16 10.209 15.1046 12.2091 13.6569 13.6569C12.2091 15.1046 10.209 16 8 16C5.79104 16 3.7909 15.1046 2.34314 13.6569C0.895377 12.2091 0 10.209 0 8C0 5.79104 0.895377 3.7909 2.34314 2.34314C3.7909 0.895377 5.79104 0 8 0ZM8 7.37297C8.28611 7.37297 8.54596 7.48938 8.73456 7.6776L8.73569 7.67874C8.92354 7.86734 9.03976 8.1268 9.03976 8.41292C9.03976 8.69903 8.92353 8.95887 8.73531 9.14728L8.73399 9.14861C8.54558 9.33645 8.28592 9.45267 8 9.45267C7.71389 9.45267 7.45404 9.33626 7.26544 9.14804L7.26431 9.14691C7.07647 8.9585 6.96024 8.69884 6.96024 8.41292C6.96024 8.12662 7.07647 7.86696 7.26469 7.67836L7.26601 7.67723C7.45442 7.48919 7.71408 7.37297 8 7.37297ZM8.46205 7.94992C8.34451 7.83219 8.18104 7.75943 8 7.75943C7.81896 7.75943 7.65549 7.83219 7.53795 7.94992L7.53719 7.95068C7.41946 8.06841 7.34651 8.23188 7.34651 8.41292C7.34651 8.59377 7.41946 8.75723 7.53719 8.87497L7.53795 8.87572C7.65549 8.99346 7.81896 9.0664 8 9.0664C8.18104 9.0664 8.34451 8.99346 8.46205 8.87572L8.46281 8.87497C8.58054 8.75723 8.65349 8.59377 8.65349 8.41292C8.65349 8.23188 8.58054 8.06841 8.46281 7.95068L8.46205 7.94992ZM13.9942 8.88423H10.187C10.115 9.18905 9.98106 9.47025 9.79888 9.71308C9.60575 9.97104 9.35818 10.1861 9.07358 10.3412V13.9634C10.3163 13.7411 11.4277 13.14 12.2839 12.2839C13.1833 11.3844 13.8012 10.2033 13.9942 8.88423ZM8.68731 14.0197V10.2235H8.68769C8.68788 10.1513 8.7287 10.0822 8.79824 10.0493C9.07302 9.91888 9.31075 9.7231 9.49104 9.48234C9.66527 9.2499 9.78641 8.97494 9.8363 8.67597C9.84405 8.57638 9.92739 8.49777 10.0289 8.49777H14.038C14.0514 8.33374 14.0583 8.16762 14.0583 8C14.0583 7.48825 13.9948 6.99124 13.8753 6.51652C13.2844 6.77334 12.6802 7.00333 12.0653 7.21083C11.3751 7.44365 10.6759 7.64699 9.96953 7.8269V7.82652C9.87561 7.85052 9.77658 7.80044 9.74181 7.70784C9.60688 7.35124 9.36555 7.04698 9.05657 6.83363C8.75704 6.6267 8.39307 6.50556 8 6.50556C7.60693 6.50556 7.24296 6.6267 6.94343 6.83363C6.63747 7.04472 6.39785 7.34538 6.26216 7.69745C6.23192 7.79458 6.13025 7.85222 6.03047 7.8269C5.32407 7.6468 4.62486 7.44346 3.9349 7.21083C3.31977 7.00333 2.71561 6.77334 2.12468 6.51652C2.00524 6.99124 1.94175 7.48825 1.94175 8C1.94175 8.16762 1.94855 8.33374 1.96197 8.49777H5.97113V8.49852C6.06411 8.49833 6.14613 8.56599 6.16125 8.66086C6.20943 8.96568 6.3317 9.24593 6.50896 9.48234C6.68679 9.7197 6.92037 9.9134 7.19023 10.0438C7.26185 10.072 7.31269 10.1419 7.31269 10.2235V14.0197C7.53833 14.0452 7.76756 14.0583 8 14.0583C8.23244 14.0583 8.46167 14.0452 8.68731 14.0197ZM6.92642 13.9634V10.3412C6.64182 10.1861 6.39426 9.97104 6.20112 9.71308C6.01895 9.47025 5.88496 9.18905 5.81296 8.88423H2.00581C2.19876 10.2033 2.81672 11.3844 3.71606 12.2839C4.57232 13.14 5.6837 13.7411 6.92642 13.9634ZM2.23164 6.1431C2.82673 6.40352 3.436 6.63615 4.05698 6.84553C4.67834 7.05511 5.31557 7.24239 5.96565 7.41152C6.13554 7.0502 6.39898 6.7416 6.72459 6.51671C7.08743 6.26594 7.52699 6.1191 8 6.1191C8.47301 6.1191 8.91257 6.26594 9.27541 6.51671C9.60102 6.7416 9.86446 7.0502 10.0343 7.41152C10.6844 7.24239 11.3219 7.05511 11.943 6.84572C12.564 6.63615 13.1733 6.40352 13.7684 6.1431C13.4703 5.21692 12.9558 4.38788 12.2839 3.71606C11.1877 2.6198 9.67302 1.94175 8 1.94175C6.32698 1.94175 4.81232 2.6198 3.71606 3.71606C3.04424 4.38788 2.52966 5.21692 2.23164 6.1431ZM13.3838 2.61621C12.006 1.23837 10.1026 0.386271 8 0.386271C5.89743 0.386271 3.99405 1.23837 2.61621 2.61621C1.23837 3.99405 0.386271 5.89743 0.386271 8C0.386271 10.1026 1.23837 12.006 2.61621 13.3838C3.99405 14.7616 5.89743 15.6137 8 15.6137C10.1026 15.6137 12.006 14.7616 13.3838 13.3838C14.7616 12.006 15.6137 10.1026 15.6137 8C15.6137 5.89743 14.7616 3.99405 13.3838 2.61621ZM8 1.55548C9.7796 1.55548 11.3908 2.27681 12.557 3.44299C13.7232 4.60936 14.4445 6.2204 14.4445 8C14.4445 9.7796 13.7232 11.3908 12.557 12.557C11.3908 13.7232 9.7796 14.4445 8 14.4445C6.2204 14.4445 4.60936 13.7232 3.44299 12.557C2.27681 11.3908 1.55548 9.7796 1.55548 8C1.55548 6.2204 2.27681 4.60936 3.44299 3.44299C4.60936 2.27681 6.2204 1.55548 8 1.55548Z" fill="#FF3600"/>
</g>
<defs>
<clipPath id="clip0_1076_132">
<rect width="16" height="16" fill="white"/>
</clipPath>
</defs>
</svg>
