<svg width="16" height="16" viewBox="0 0 16 16" fill="none" xmlns="http://www.w3.org/2000/svg">
<path d="M6.40972 11.2252L6.57669 11.426C6.62506 11.4841 6.69597 11.5161 6.76891 11.5161C6.79566 11.5161 6.82275 11.5118 6.849 11.5029L7.40847 11.3135C7.50644 11.2804 7.57387 11.1903 7.57812 11.087L7.58887 10.826C7.69819 10.7474 7.79944 10.6588 7.89169 10.561L8.15156 10.5849C8.25431 10.5942 8.35275 10.5395 8.39856 10.4467L8.66025 9.91723C8.70606 9.82454 8.69006 9.7132 8.62003 9.63711L8.44328 9.4452C8.46494 9.31245 8.47384 9.17814 8.46984 9.04354L8.67059 8.87657C8.75009 8.81045 8.78066 8.7022 8.74753 8.60423L8.55816 8.04476C8.52497 7.94679 8.43494 7.87936 8.33162 7.87511L8.07059 7.86436C7.99203 7.75507 7.90344 7.65379 7.80569 7.56154L7.82956 7.30164C7.839 7.19864 7.78409 7.10045 7.69134 7.05467L7.16184 6.79298C7.06922 6.7472 6.95784 6.76314 6.88172 6.8332L6.68972 7.01001C6.557 6.98839 6.42263 6.97951 6.28822 6.98345L6.12119 6.78264C6.05506 6.70311 5.94672 6.67261 5.84884 6.7057L5.28937 6.89507C5.19141 6.92826 5.12397 7.01829 5.11972 7.12161L5.10897 7.38257C4.99963 7.4612 4.89834 7.54979 4.80613 7.64754L4.54625 7.62367C4.44341 7.61436 4.34506 7.66914 4.29928 7.76189L4.03759 8.29139C3.99178 8.38411 4.00778 8.49542 4.07781 8.57151L4.25456 8.76342C4.23291 8.89617 4.224 9.03048 4.228 9.16507L4.02725 9.33204C3.94775 9.39817 3.91719 9.50642 3.95031 9.60439L4.13969 10.1639C4.17287 10.2618 4.26291 10.3293 4.36622 10.3335L4.62725 10.3443C4.70581 10.4536 4.79444 10.5548 4.89219 10.6471L4.86828 10.9069C4.85881 11.0099 4.91375 11.1081 5.00647 11.1539L5.53597 11.4156C5.62875 11.4615 5.74 11.4455 5.81612 11.3754L6.00803 11.1987C6.14084 11.2204 6.27503 11.229 6.40972 11.2252ZM5.76241 10.7452L5.60372 10.8914L5.38194 10.7818L5.40172 10.5669C5.40925 10.4847 5.37584 10.4042 5.31241 10.3515C5.18044 10.2421 5.06722 10.1127 4.97587 9.96689C4.93209 9.89704 4.85669 9.85323 4.77431 9.84986L4.55834 9.84098L4.47906 9.60667L4.64512 9.46854C4.7085 9.41579 4.74184 9.3352 4.73419 9.25311C4.71819 9.08189 4.72956 8.91023 4.76791 8.74298C4.78631 8.66264 4.76394 8.57836 4.70813 8.51773L4.56194 8.35904L4.67153 8.13729L4.88647 8.15704C4.96881 8.16464 5.04909 8.13117 5.10175 8.06773C5.21119 7.93579 5.34062 7.82257 5.48647 7.73114C5.55631 7.68736 5.60009 7.61198 5.60347 7.52961L5.61234 7.3137L5.84666 7.23442L5.98484 7.40054C6.03756 7.46389 6.11834 7.49704 6.20025 7.4896C6.37141 7.47364 6.54309 7.48495 6.71025 7.52332C6.79053 7.54176 6.87484 7.51936 6.9355 7.46354L7.09428 7.31729L7.31603 7.42689L7.29628 7.64186C7.28875 7.72395 7.32216 7.80445 7.38559 7.85711C7.51756 7.96661 7.63075 8.09604 7.72209 8.24179C7.76587 8.31164 7.84128 8.35545 7.92366 8.35882L8.13962 8.3677L8.21891 8.60201L8.05284 8.74014C7.98947 8.79289 7.95613 8.87348 7.96378 8.95557C7.97978 9.12679 7.96841 9.29845 7.93006 9.46567C7.91166 9.54601 7.934 9.63029 7.98984 9.69092L8.13603 9.84964L8.02644 10.0714L7.8115 10.0516C7.72937 10.0441 7.64884 10.0775 7.59619 10.1409C7.48672 10.2729 7.35731 10.3861 7.21153 10.4774C7.14169 10.5212 7.09788 10.5966 7.0945 10.679L7.08563 10.895L6.85131 10.9743L6.71319 10.8082C6.66547 10.7508 6.59488 10.7181 6.52103 10.7181C6.51331 10.7181 6.50553 10.7184 6.49778 10.7191C6.32659 10.7352 6.15497 10.7238 5.98769 10.6854C5.90737 10.6671 5.82309 10.6894 5.76241 10.7452ZM7.36606 9.60704C7.64322 9.04623 7.41247 8.36445 6.85169 8.08726C6.58 7.95301 6.27225 7.93254 5.98522 8.0297C5.69819 8.12682 5.46619 8.32998 5.33191 8.60167C5.05475 9.16248 5.2855 9.84423 5.84628 10.1214C6.00744 10.2011 6.1785 10.2388 6.34716 10.2388C6.76544 10.2388 7.16853 10.0067 7.36606 9.60704ZM6.91781 9.38548C6.76281 9.69911 6.3815 9.82814 6.06784 9.67317C5.75419 9.51814 5.62512 9.13686 5.78016 8.82323C5.85525 8.67126 5.98503 8.55764 6.14553 8.50332C6.21231 8.4807 6.28103 8.46951 6.3495 8.46951C6.44569 8.46951 6.54134 8.49164 6.63009 8.53551C6.94378 8.69054 7.07284 9.07182 6.91781 9.38548ZM15.3567 6.67532L14.3883 6.08673C14.3441 6.01604 14.2658 5.96882 14.1763 5.96882H13.4096C13.2715 5.96882 13.1596 6.08076 13.1596 6.21882V7.63651H12.3942V5.96439C12.3942 5.56573 12.0699 5.24139 11.6713 5.24139H10.342C10.3527 5.02751 10.3366 4.78011 10.1869 4.61573C10.1225 4.54492 10.0063 4.46051 9.81891 4.46051H8.32837V3.49529H10.3181C10.4562 3.49529 10.5681 3.38336 10.5681 3.24529V3.09173C10.5681 2.57132 10.0078 2.14795 9.319 2.14795H5.60703C4.91828 2.14795 4.35794 2.57132 4.35794 3.09173V3.24529C4.35794 3.38336 4.46987 3.49529 4.60794 3.49529H6.59769V4.46051H5.10712C4.9175 4.46051 4.80091 4.54486 4.7365 4.61564C4.5835 4.78376 4.57456 5.03436 4.58781 5.24139H3.25478C2.85612 5.24139 2.53178 5.56573 2.53178 5.96439V8.05076H1.59731V6.06104C1.59731 5.92298 1.48537 5.81104 1.34731 5.81104H1.19378C0.664563 5.81107 0.25 6.35976 0.25 7.0602V10.7721C0.25 11.4609 0.673375 12.0212 1.19378 12.0212H1.34731C1.48537 12.0212 1.59731 11.9093 1.59731 11.7712V9.78151H2.53175V11.7975C2.53175 12.1962 2.85609 12.5205 3.25475 12.5205H4.84722L5.59228 13.7331C5.63778 13.8071 5.71841 13.8522 5.80528 13.8522H11.6713C12.0699 13.8522 12.3942 13.5279 12.3942 13.1292V11.4571H13.1596V12.8748C13.1596 13.0129 13.2715 13.1248 13.4096 13.1248H14.1763C14.298 13.1248 14.3993 13.0378 14.4216 12.9227L15.3567 12.3544C15.603 12.2046 15.75 11.9091 15.75 11.5639V7.46579C15.75 7.12051 15.603 6.82498 15.3567 6.67532ZM1.09731 11.5005C0.918187 11.4246 0.75 11.1465 0.75 10.7721V7.0602C0.75 6.68585 0.918187 6.4077 1.09731 6.33179V11.5005ZM5.60703 2.64798H9.319C9.69338 2.64798 9.97153 2.8162 10.0474 2.99532H4.87866C4.9545 2.8162 5.23263 2.64798 5.60703 2.64798ZM7.09769 3.49536H7.82837V4.46057H7.09769V3.49536ZM5.10178 4.96067C5.10337 4.96057 5.10512 4.96054 5.10712 4.96054H9.81891C9.82022 4.96054 9.82144 4.96057 9.82253 4.96061C9.83688 4.98636 9.85947 5.06545 9.82953 5.38304C9.82728 5.4067 9.82516 5.4292 9.82337 5.45051L9.32009 6.02232H5.65656L5.10256 5.39292C5.10094 5.37414 5.09912 5.35451 5.09716 5.33395C5.08919 5.24936 5.06862 5.03142 5.10178 4.96067ZM1.59731 9.28151V8.55079H2.53175V9.28151H1.59731ZM12.1442 10.9571C12.0062 10.9571 11.8942 11.069 11.8942 11.2071V13.1292C11.8942 13.2521 11.7942 13.3522 11.6713 13.3522H5.94509L5.20003 12.1396C5.15453 12.0656 5.07391 12.0205 4.98703 12.0205H3.25475C3.13178 12.0205 3.03175 11.9204 3.03175 11.7975V5.96442C3.03175 5.84145 3.13178 5.74142 3.25475 5.74142H4.74319L5.35588 6.43748C5.40334 6.49139 5.47169 6.52229 5.54353 6.52229H9.43306C9.50491 6.52229 9.57325 6.49139 9.62072 6.43748L10.2334 5.74142H11.6713C11.7942 5.74142 11.8942 5.84145 11.8942 5.96442V7.88654C11.8942 8.02461 12.0062 8.13654 12.1442 8.13654H13.1596V10.9571H12.1442ZM13.9263 12.6248H13.6596V6.46886H13.9263V12.6248ZM15.25 11.5638C15.25 11.728 15.1899 11.8705 15.097 11.9271L14.4263 12.3347V6.69498L15.097 7.10261C15.19 7.15914 15.25 7.30167 15.25 7.46582V11.5638ZM11.5243 12.9715C11.5243 13.1096 11.4124 13.2215 11.2743 13.2215H6.254C6.11594 13.2215 6.004 13.1096 6.004 12.9715C6.004 12.8334 6.11594 12.7215 6.254 12.7215H11.2743C11.4124 12.7215 11.5243 12.8334 11.5243 12.9715ZM5.12597 11.6399C5.12597 11.7779 5.01403 11.8899 4.87597 11.8899H3.57009C3.43203 11.8899 3.32009 11.7779 3.32009 11.6399C3.32009 11.5018 3.43203 11.3899 3.57009 11.3899H4.87597C5.01403 11.3899 5.12597 11.5018 5.12597 11.6399ZM11.7681 6.12211C11.7681 6.26017 11.6562 6.37211 11.5181 6.37211H10.5218C10.3837 6.37211 10.2718 6.26017 10.2718 6.12211C10.2718 5.98404 10.3837 5.87211 10.5218 5.87211H11.5181C11.6562 5.87211 11.7681 5.98404 11.7681 6.12211Z" fill="#FF3600"/>
</svg>
