<svg width="16" height="16" viewBox="0 0 16 16" fill="none" xmlns="http://www.w3.org/2000/svg">
<g clip-path="url(#clip0_1079_176)">
<path d="M3.40878 6.11304C2.45427 6.11304 1.67773 6.88957 1.67773 7.84408C1.67773 8.79859 2.45427 9.57512 3.40878 9.57512C4.36329 9.57512 5.13982 8.79859 5.13982 7.84408C5.13982 6.88957 4.36329 6.11304 3.40878 6.11304ZM3.40878 8.63401C2.97323 8.63401 2.61885 8.27966 2.61885 7.84408C2.61885 7.4085 2.97323 7.05415 3.40878 7.05415C3.84432 7.05415 4.19871 7.4085 4.19871 7.84408C4.19871 8.27966 3.84432 8.63401 3.40878 8.63401Z" fill="#FF3600"/>
<path d="M6.47418 10.2014C5.5197 10.2014 4.74316 10.9779 4.74316 11.9325C4.74316 12.8869 5.5197 13.6635 6.47418 13.6635C7.42869 13.6635 8.20522 12.8869 8.20522 11.9325C8.20522 10.9779 7.42869 10.2014 6.47418 10.2014ZM6.47418 12.7224C6.03863 12.7224 5.68428 12.368 5.68428 11.9324C5.68428 11.4969 6.03863 11.1425 6.47418 11.1425C6.90975 11.1425 7.26411 11.4969 7.26411 11.9324C7.26414 12.368 6.90975 12.7224 6.47418 12.7224Z" fill="#FF3600"/>
<path d="M15.5664 10.1864C15.5633 10.1833 15.5602 10.1803 15.5571 10.1773L13.9276 8.63967C14.8398 7.94998 15.2518 6.72918 14.8771 5.59983C13.1105 0.270164 6.32227 -1.42069 2.27744 2.56303C-0.751928 5.54662 -0.723661 10.3574 2.15057 13.3199C4.73268 15.9812 8.80133 16.355 11.8042 14.3893C13.2105 13.4691 12.564 11.2787 10.8812 11.2787C9.62445 11.2787 9.41325 9.52146 10.6004 9.22056L13.4711 12.2629C13.4741 12.2661 13.4771 12.2692 13.4802 12.2723C14.0557 12.8491 14.9905 12.8506 15.5674 12.2736C16.1444 11.6967 16.1444 10.763 15.5664 10.1864ZM9.48641 11.6642C9.86448 12.0224 10.3598 12.2197 10.8813 12.2197C11.6328 12.2197 11.9162 13.1914 11.2889 13.6019C8.66065 15.3224 5.09108 14.9992 2.82602 12.6645C0.285531 10.0461 0.300495 5.84394 2.94824 3.23951C6.49626 -0.250432 12.4305 1.20965 13.9838 5.89605C14.247 6.68924 13.9181 7.55114 13.2283 7.97978L10.6145 5.5133C10.7728 4.75352 10.5536 3.95255 9.97937 3.37834C9.25865 2.65758 6.98812 2.29834 6.00412 2.19145C5.70567 2.15895 5.45297 2.41125 5.48544 2.71013C5.5932 3.69796 5.95035 5.96334 6.67235 6.68538C7.24697 7.25994 8.04836 7.47867 8.80754 7.32045L9.90853 8.48726C8.73614 9.12372 8.49808 10.7276 9.48641 11.6642ZM7.3378 6.01991C6.98319 5.6653 6.66636 4.31663 6.49908 3.20507C7.61068 3.37231 8.95935 3.68918 9.31392 4.04378C9.85993 4.58979 9.86003 5.47374 9.31392 6.01991C8.76914 6.56475 7.885 6.56711 7.3378 6.01991ZM14.902 11.6082C14.6947 11.8155 14.359 11.8165 14.1504 11.6115C13.9096 11.3563 9.93777 7.14696 9.71646 6.91246C9.90213 6.77457 10.0685 6.60817 10.2066 6.42232L14.9057 10.8566C15.1108 11.0654 15.1097 11.4005 14.902 11.6082Z" fill="#FF3600"/>
</g>
<defs>
<clipPath id="clip0_1079_176">
<rect width="16" height="16" fill="white"/>
</clipPath>
</defs>
</svg>
