<svg width="22" height="22" viewBox="0 0 22 22" fill="none" xmlns="http://www.w3.org/2000/svg">
<rect width="22" height="22" rx="11" fill="#FF3600"/>
<path d="M15.1142 6.89417C15.1119 6.893 15.1097 6.89153 15.1077 6.8898L14.6615 6.49934C14.2524 6.09024 13.5586 6.07018 13.1175 6.5194L12.3676 7.50205C11.9465 7.92319 11.9465 8.60904 12.3676 9.02617C12.7295 9.39783 12.8428 9.95716 12.5783 10.4034C12.04 11.3117 11.2916 12.0653 10.407 12.5883C9.95916 12.853 9.39956 12.7342 9.02688 12.3712C8.82235 12.1667 8.55365 12.0543 8.2649 12.0543C7.97615 12.0543 7.70745 12.1667 7.52297 12.3552L6.50433 13.1413C6.08324 13.5624 6.08324 14.2483 6.49631 14.6574L6.90537 15.1266C7.34652 15.5678 7.94006 15.8125 8.58573 15.8125C11.6938 15.8125 15.8125 11.6894 15.8125 8.58498C15.8125 7.94493 15.5692 7.34878 15.1222 6.89997C15.1199 6.89762 15.1172 6.89566 15.1142 6.89417ZM8.57771 15.4034C8.57771 15.4056 8.57591 15.4074 8.57369 15.4074C8.03786 15.4064 7.54615 15.206 7.19011 14.8499L6.78105 14.3766C6.51636 14.1119 6.51636 13.6827 6.761 13.4341L7.77964 12.648C7.90797 12.5196 8.07641 12.4474 8.26089 12.4474C8.44537 12.4474 8.61381 12.5196 8.74214 12.648L9.45198 13.3418C9.50813 13.398 9.58834 13.414 9.66454 13.3859C11.3369 12.7482 12.6964 11.3886 13.3902 9.66389C13.4183 9.5917 13.4022 9.50747 13.3461 9.44731L12.6523 8.73739C12.3876 8.47267 12.3876 8.04351 12.6683 7.75874L13.4183 6.77609C13.683 6.51137 14.1121 6.51137 14.3888 6.78411L14.838 7.17717C15.2029 7.54216 15.4034 8.03549 15.4034 8.57294C15.4034 11.4434 11.4528 15.3957 8.58168 15.3994C8.57946 15.3994 8.57771 15.4012 8.57771 15.4034Z" fill="white"/>
</svg>
