<svg width="22" height="22" viewBox="0 0 22 22" fill="none" xmlns="http://www.w3.org/2000/svg">
<rect width="22" height="22" rx="11" fill="#FF3600"/>
<path d="M13.8073 6.875H8.19271C7.66109 6.8756 7.15143 7.07333 6.77552 7.42483C6.3996 7.77633 6.18814 8.2529 6.1875 8.75V13.25C6.18814 13.7471 6.3996 14.2237 6.77552 14.5752C7.15143 14.9267 7.66109 15.1244 8.19271 15.125H13.8073C14.3389 15.1244 14.8486 14.9267 15.2245 14.5752C15.6004 14.2237 15.8119 13.7471 15.8125 13.25V8.75C15.8119 8.2529 15.6004 7.77633 15.2245 7.42483C14.8486 7.07333 14.3389 6.8756 13.8073 6.875ZM8.19271 7.625H13.8073C14.0474 7.62544 14.2819 7.69307 14.4806 7.81918C14.6793 7.94528 14.8331 8.12411 14.9222 8.33263L11.851 11.2048C11.625 11.4152 11.319 11.5334 11 11.5334C10.681 11.5334 10.375 11.4152 10.149 11.2048L7.07781 8.33263C7.1669 8.12411 7.32069 7.94528 7.51938 7.81918C7.71807 7.69307 7.95257 7.62544 8.19271 7.625ZM13.8073 14.375H8.19271C7.87362 14.375 7.5676 14.2565 7.34197 14.0455C7.11634 13.8345 6.98958 13.5484 6.98958 13.25V9.3125L9.58192 11.735C9.95835 12.0861 10.4683 12.2833 11 12.2833C11.5317 12.2833 12.0417 12.0861 12.4181 11.735L15.0104 9.3125V13.25C15.0104 13.5484 14.8837 13.8345 14.658 14.0455C14.4324 14.2565 14.1264 14.375 13.8073 14.375Z" fill="white"/>
</svg>
