<svg width="22" height="22" viewBox="0 0 22 22" fill="none" xmlns="http://www.w3.org/2000/svg">
<rect width="22" height="22" rx="11" fill="#FF3600"/>
<g clip-path="url(#clip0_2095_4293)">
<path d="M10.9987 8.59375C10.6814 8.59375 10.3713 8.68783 10.1075 8.8641C9.84367 9.04037 9.63806 9.29091 9.51664 9.58403C9.39523 9.87715 9.36346 10.1997 9.42536 10.5109C9.48725 10.8221 9.64003 11.1079 9.86438 11.3322C10.0887 11.5566 10.3746 11.7094 10.6857 11.7713C10.9969 11.8332 11.3195 11.8014 11.6126 11.68C11.9057 11.5586 12.1562 11.3529 12.3325 11.0891C12.5088 10.8253 12.6029 10.5152 12.6029 10.1979C12.6029 9.77247 12.4339 9.36444 12.133 9.0636C11.8322 8.76276 11.4242 8.59375 10.9987 8.59375ZM10.9987 11C10.8401 11 10.685 10.953 10.5531 10.8648C10.4212 10.7767 10.3184 10.6514 10.2577 10.5049C10.197 10.3583 10.1811 10.197 10.212 10.0414C10.243 9.88585 10.3194 9.74293 10.4315 9.63076C10.5437 9.51859 10.6866 9.44219 10.8422 9.41125C10.9978 9.3803 11.1591 9.39618 11.3056 9.45689C11.4522 9.5176 11.5775 9.6204 11.6656 9.7523C11.7537 9.88421 11.8008 10.0393 11.8008 10.1979C11.8008 10.4106 11.7163 10.6147 11.5659 10.7651C11.4154 10.9155 11.2114 11 10.9987 11Z" fill="white"/>
<path d="M10.9973 15.8128C10.6596 15.8145 10.3264 15.7353 10.0256 15.5818C9.72482 15.4283 9.46518 15.205 9.26843 14.9305C7.74006 12.8222 6.96484 11.2373 6.96484 10.2195C6.96484 9.15001 7.38969 8.12433 8.14593 7.3681C8.90216 6.61186 9.92784 6.18701 10.9973 6.18701C12.0668 6.18701 13.0925 6.61186 13.8487 7.3681C14.6049 8.12433 15.0298 9.15001 15.0298 10.2195C15.0298 11.2373 14.2546 12.8222 12.7262 14.9305C12.5295 15.205 12.2698 15.4283 11.969 15.5818C11.6682 15.7353 11.335 15.8145 10.9973 15.8128ZM10.9973 7.06249C10.1601 7.06344 9.35747 7.39644 8.76547 7.98844C8.17347 8.58044 7.84047 9.38308 7.83952 10.2203C7.83952 11.0264 8.59869 12.5171 9.97667 14.4176C10.0936 14.5787 10.2471 14.7099 10.4245 14.8003C10.6019 14.8907 10.7982 14.9379 10.9973 14.9379C11.1964 14.9379 11.3927 14.8907 11.5701 14.8003C11.7475 14.7099 11.901 14.5787 12.018 14.4176C13.3959 12.5171 14.1551 11.0264 14.1551 10.2203C14.1542 9.38308 13.8212 8.58044 13.2292 7.98844C12.6372 7.39644 11.8345 7.06344 10.9973 7.06249Z" fill="white"/>
</g>
<defs>
<clipPath id="clip0_2095_4293">
<rect width="9.625" height="9.625" fill="white" transform="translate(6.1875 6.1875)"/>
</clipPath>
</defs>
</svg>
