<svg width="46" height="18" viewBox="0 0 46 18" fill="none" xmlns="http://www.w3.org/2000/svg">
<path d="M12.9922 12.9925C12.9922 14.9405 11.4131 16.5197 9.46503 16.5197C7.51715 16.5197 5.93799 14.9405 5.93799 12.9925C5.93799 11.0446 7.51715 9.4654 9.46503 9.4654C11.4131 9.4654 12.9922 11.0446 12.9922 12.9925Z" stroke="#FF3600" stroke-width="1.5" stroke-miterlimit="10" stroke-linecap="round" stroke-linejoin="round"/>
<path d="M12.9922 14.4033H33.4494" stroke="#FF3600" stroke-width="1.5" stroke-miterlimit="10" stroke-linecap="round" stroke-linejoin="round"/>
<path d="M9.96388 12.4936L8.96631 13.4911" stroke="#FF3600" stroke-width="1.5" stroke-miterlimit="10" stroke-linecap="round" stroke-linejoin="round"/>
<path d="M40.5034 12.9925C40.5034 14.9405 38.9243 16.5197 36.9763 16.5197C35.0284 16.5197 33.4492 14.9405 33.4492 12.9925C33.4492 11.0446 35.0284 9.4654 36.9763 9.4654C38.9243 9.4654 40.5034 11.0446 40.5034 12.9925Z" stroke="#FF3600" stroke-width="1.5" stroke-miterlimit="10" stroke-linecap="round" stroke-linejoin="round"/>
<path d="M36.4775 12.4936L37.4751 13.4911" stroke="#FF3600" stroke-width="1.5" stroke-miterlimit="10" stroke-linecap="round" stroke-linejoin="round"/>
<path d="M5.93794 13.6979L2.53489 12.7256C1.62638 12.466 1 11.6356 1 10.6908V6.47831C1 5.76683 1.52985 5.16667 2.23587 5.07841L4.84489 4.75228C6.03518 4.60347 7.19159 4.25341 8.26448 3.71687L11.6123 2.04302C12.9836 1.35733 14.4958 1.0004 16.0289 1.0004H22.3138C24.0579 1.0004 25.7657 1.49777 27.2372 2.43409L32.7439 5.93834C32.7439 5.93834 39.1384 5.93834 43.1277 7.79092C44.1156 8.24975 44.736 9.25216 44.736 10.3415V12.6834C44.736 13.7754 44.1043 14.4033 43.3252 14.4033" stroke="#FF3600" stroke-width="1.5" stroke-miterlimit="10" stroke-linecap="round" stroke-linejoin="round"/>
<path d="M14.403 5.93835H13.0424C12.1069 5.93835 11.2098 5.56673 10.5483 4.90523L9.46509 3.82213" stroke="#FF3600" stroke-width="1.5" stroke-miterlimit="10" stroke-linecap="round" stroke-linejoin="round"/>
<path d="M32.7438 5.93835H17.2246" stroke="#FF3600" stroke-width="1.5" stroke-miterlimit="10" stroke-linecap="round" stroke-linejoin="round"/>
<path d="M15.814 11.582H30.6277" stroke="#FF3600" stroke-width="1.5" stroke-miterlimit="10" stroke-linecap="round" stroke-linejoin="round"/>
<path d="M1 8.0545H2.41082" stroke="#FF3600" stroke-width="1.5" stroke-miterlimit="10" stroke-linecap="round" stroke-linejoin="round"/>
<path d="M42.6196 9.46484H44.3244" stroke="#FF3600" stroke-width="1.5" stroke-miterlimit="10" stroke-linecap="round" stroke-linejoin="round"/>
<path d="M20.0464 5.93835V1.00041" stroke="#FF3600" stroke-width="1.5" stroke-miterlimit="10" stroke-linecap="round" stroke-linejoin="round"/>
<path d="M11.9341 5.65137L12.8524 1.59475" stroke="#FF3600" stroke-width="1.5" stroke-miterlimit="10" stroke-linecap="round" stroke-linejoin="round"/>
</svg>
