<svg width="49" height="19" viewBox="0 0 49 19" fill="none" xmlns="http://www.w3.org/2000/svg">
<path d="M33.8928 7.25H30.1873V8.20014H33.8928V7.25Z" fill="#FF3600"/>
<path d="M9.3509 18.1001C12.1633 18.1001 14.4531 15.8103 14.4531 12.9979C14.4531 10.1855 12.1633 7.89563 9.3509 7.89563C6.5385 7.89563 4.24867 10.1855 4.24867 12.9979C4.24867 15.8103 6.5385 18.1001 9.3509 18.1001ZM9.3509 8.84577C11.6407 8.84577 13.503 10.708 13.503 12.9979C13.503 15.2877 11.6407 17.15 9.3509 17.15C7.06107 17.15 5.19881 15.2877 5.19881 12.9979C5.19881 10.708 7.06107 8.84577 9.3509 8.84577Z" fill="#FF3600"/>
<path d="M40.1541 18.1001C42.9665 18.1001 45.2563 15.8103 45.2563 12.9979C45.2563 10.1855 42.9665 7.89563 40.1541 7.89563C37.3417 7.89563 35.0519 10.1855 35.0519 12.9979C35.0519 15.8103 37.3417 18.1001 40.1541 18.1001ZM40.1541 8.84577C42.4439 8.84577 44.3062 10.708 44.3062 12.9979C44.3062 15.2877 42.4439 17.15 40.1541 17.15C37.8643 17.15 36.002 15.2877 36.002 12.9979C36.002 10.708 37.8643 8.84577 40.1541 8.84577Z" fill="#FF3600"/>
<path d="M41.3039 15.4967C42.2731 15.0501 42.9001 14.0715 42.9001 12.9978C42.9001 11.4871 41.665 10.252 40.1543 10.252C38.6435 10.252 37.4084 11.4871 37.4084 12.9978C37.4084 14.0715 38.0355 15.0501 39.0046 15.4967L39.4036 14.6321C38.7671 14.3375 38.3585 13.7009 38.3585 12.9978C38.3585 12.0097 39.1661 11.2021 40.1543 11.2021C41.1424 11.2021 41.95 12.0097 41.95 12.9978C41.95 13.7009 41.5415 14.3375 40.9049 14.6321L41.3039 15.4967Z" fill="#FF3600"/>
<path d="M9.36983 15.7437C10.8805 15.7437 12.1157 14.5086 12.1157 12.9978C12.1157 11.4871 10.8805 10.252 9.36983 10.252C7.85912 10.252 6.62394 11.4871 6.62394 12.9978C6.62394 14.5086 7.85912 15.7437 9.36983 15.7437ZM9.36983 11.2021C10.358 11.2021 11.1656 12.0097 11.1656 12.9978C11.1656 13.986 10.358 14.7936 9.36983 14.7936C8.38169 14.7936 7.57408 13.986 7.57408 12.9978C7.57408 12.0097 8.38169 11.2021 9.36983 11.2021Z" fill="#FF3600"/>
<path d="M4.76169 14.4896L4.91372 13.5489L2.13932 13.1024L1.3317 10.4515C2.7094 7.76261 5.42679 6.09987 8.45772 6.09987H35.5271C35.6601 6.09987 35.7836 6.04286 35.8786 5.94785L36.9903 4.72217L48.0499 7.88612V9.1213L47.0712 13.1309L44.6104 13.5299L44.7624 14.4706L47.5368 14.024C47.7268 13.9955 47.8788 13.853 47.9263 13.6724L49 9.30183C49 9.25432 49 9.21631 49 9.17831V7.53457C49 7.32554 48.8575 7.13552 48.658 7.07851L36.9713 3.73403C36.8003 3.68652 36.6102 3.73403 36.4867 3.86705L35.318 5.14973H8.46722C5.04673 5.14973 1.9683 7.05951 0.448078 10.1189L0.410072 10.195C0.353065 10.2995 0.343563 10.4325 0.381569 10.5465L1.3317 13.6629C1.38871 13.834 1.53123 13.967 1.71176 13.9955L4.76169 14.4896Z" fill="#FF3600"/>
<path d="M36.1257 14.7939H13.3985V15.7441H36.1257V14.7939Z" fill="#FF3600"/>
<path d="M15.7449 8.73547L14.8517 9.06042L16.3725 13.2403L17.2656 12.9153L15.7449 8.73547Z" fill="#FF3600"/>
<path d="M17.7405 8.73547L16.8474 9.06042L18.3681 13.2403L19.2612 12.9153L17.7405 8.73547Z" fill="#FF3600"/>
<path d="M18.8048 6.09987H22.0163C22.1968 6.09987 22.3583 6.00486 22.4343 5.84333L23.2704 4.2186L22.4248 3.78154L21.7217 5.14973H19.8119L23.2799 0.950136H23.8975L23.413 1.88127L24.2586 2.31833L25.0947 0.693599C25.1707 0.551079 25.1612 0.370554 25.0757 0.228033C24.9902 0.0855131 24.8382 0 24.6671 0H23.0519C22.9094 0 22.7764 0.0665098 22.6814 0.171025L18.4342 5.32076C18.3202 5.46328 18.2917 5.66281 18.3677 5.82433C18.4628 5.99536 18.6243 6.09987 18.8048 6.09987Z" fill="#FF3600"/>
<path d="M49 11.4307H45.8646V12.3808H49V11.4307Z" fill="#FF3600"/>
<path d="M3.01343 11.4307H0.353048V12.3808H3.01343V11.4307Z" fill="#FF3600"/>
<path d="M32.0401 6.1004H35.5271C35.6601 6.1004 35.7836 6.04339 35.8786 5.94837L37.1898 4.50417C37.3133 4.36165 37.3513 4.16212 37.2753 3.9911C37.1993 3.82007 37.0283 3.70605 36.8383 3.70605H33.4843C32.4296 3.70605 31.565 4.56118 31.565 5.62533C31.565 5.89137 31.774 6.1004 32.0401 6.1004ZM35.318 5.15026H32.6387C32.8002 4.85572 33.1232 4.65619 33.4843 4.65619H35.7646L35.318 5.15026Z" fill="#FF3600"/>
<path d="M2.85187 8.22808H5.41724C6.81394 8.22808 7.9541 7.08792 7.9541 5.69122C7.9541 5.5582 7.89709 5.42518 7.79258 5.33967C7.68806 5.25416 7.55504 5.20665 7.42203 5.22566C5.62627 5.43469 3.88752 6.2138 2.53833 7.40147C2.38631 7.53449 2.3388 7.74352 2.40531 7.92404C2.47182 8.10457 2.65234 8.22808 2.85187 8.22808ZM6.89945 6.2613C6.67142 6.85039 6.09183 7.27795 5.41724 7.27795H4.29608C5.09419 6.79338 5.97782 6.44183 6.89945 6.2613Z" fill="#FF3600"/>
</svg>
