<svg width="36" height="23" viewBox="0 0 36 23" fill="none" xmlns="http://www.w3.org/2000/svg">
<path d="M25.1069 7.52441H10.8929C10.5783 7.52441 10.3232 7.77946 10.3232 8.09405C10.3232 8.40865 10.5783 8.66369 10.8929 8.66369H25.107C25.4216 8.66369 25.6766 8.40865 25.6766 8.09405C25.6766 7.77946 25.4215 7.52441 25.1069 7.52441Z" fill="#FF3600"/>
<path d="M4.95466 10.1063H2.84943C2.53483 10.1063 2.27979 10.3613 2.27979 10.6759C2.27979 10.9905 2.53483 11.2455 2.84943 11.2455H4.95466C5.99498 11.2455 6.87223 11.9574 7.12499 12.9195H2.99533C2.68074 12.9195 2.42569 13.1746 2.42569 13.4892C2.42569 13.8038 2.68074 14.0588 2.99533 14.0588H7.76778C8.08237 14.0588 8.33742 13.8038 8.33742 13.4892C8.33749 11.6238 6.81997 10.1063 4.95466 10.1063Z" fill="#FF3600"/>
<path d="M31.0454 11.2455H33.1507C33.4653 11.2455 33.7203 10.9905 33.7203 10.6759C33.7203 10.3613 33.4653 10.1063 33.1507 10.1063H31.0454C29.1801 10.1063 27.6626 11.6238 27.6626 13.4892C27.6626 13.8038 27.9176 14.0588 28.2322 14.0588H33.0047C33.3193 14.0588 33.5743 13.8038 33.5743 13.4892C33.5743 13.1746 33.3193 12.9195 33.0047 12.9195H28.8751C29.1279 11.9574 30.0051 11.2455 31.0454 11.2455Z" fill="#FF3600"/>
<path d="M34.8374 7.6028C34.0389 6.76832 32.9546 6.30873 31.7841 6.30873C31.7329 6.30873 31.6818 6.31564 31.6325 6.32931L29.8018 6.83508L27.105 1.65408C26.6221 0.726557 25.4248 0 24.3793 0H11.6205C10.5749 0 9.37767 0.726557 8.89484 1.65408L6.19801 6.83508L4.36734 6.32931C4.31797 6.31564 4.26693 6.30873 4.21566 6.30873C3.04516 6.30873 1.9608 6.76832 1.16239 7.6028C0.363979 8.43729 -0.0473771 9.54087 0.00434624 10.7136L0.417753 18.9559C0.432944 19.259 0.683206 19.497 0.98671 19.497H1.17659V21.9845C1.17659 22.2991 1.43164 22.5541 1.74623 22.5541H7.73968C8.05428 22.5541 8.30932 22.2991 8.30932 21.9845V21.206C8.30932 20.8914 8.05428 20.6363 7.73968 20.6363C7.42509 20.6363 7.17004 20.8914 7.17004 21.206V21.4148H2.3158V19.497H33.684V21.4148H28.8298V21.206C28.8298 20.8914 28.5748 20.6363 28.2602 20.6363C27.9456 20.6363 27.6905 20.8914 27.6905 21.206V21.9845C27.6905 22.2991 27.9456 22.5541 28.2602 22.5541H34.2536C34.5682 22.5541 34.8233 22.2991 34.8233 21.9845V19.497H35.0132C35.3167 19.497 35.5669 19.2591 35.5821 18.9559L35.9956 10.7103C36.0472 9.54087 35.6359 8.43729 34.8374 7.6028ZM34.8576 10.6566L34.4714 18.3577H1.52848L1.14241 10.66C1.10466 9.8042 1.40407 8.99819 1.98563 8.3905C2.55026 7.80035 3.31343 7.46768 4.14153 7.449L6.33305 8.05449C6.33442 8.05487 6.33579 8.05525 6.33723 8.05563L8.46267 8.64281C8.7658 8.72659 9.07963 8.54871 9.16341 8.24543C9.24718 7.94223 9.0693 7.62847 8.76602 7.5447L7.32096 7.14549L9.90546 2.18028C10.1941 1.62583 10.9955 1.13943 11.6206 1.13943H24.3793C25.0043 1.13943 25.8059 1.62583 26.0945 2.18028L28.679 7.14549L27.2339 7.5447C26.9306 7.62847 26.7528 7.94223 26.8365 8.24543C26.9203 8.54871 27.2341 8.72651 27.5373 8.64281L31.8584 7.449C32.6865 7.46776 33.4497 7.80043 34.0143 8.3905C34.5958 8.99819 34.8952 9.8042 34.8576 10.6566Z" fill="#FF3600"/>
<path d="M31.784 5.16931H33.7685C34.0831 5.16931 34.3381 4.91426 34.3381 4.59967C34.3381 4.28508 34.0831 4.03003 33.7685 4.03003H31.784C31.4694 4.03003 31.2144 4.28508 31.2144 4.59967C31.2144 4.91426 31.4694 5.16931 31.784 5.16931Z" fill="#FF3600"/>
<path d="M2.23126 5.16931H4.21574C4.53033 5.16931 4.78538 4.91426 4.78538 4.59967C4.78538 4.28508 4.53033 4.03003 4.21574 4.03003H2.23126C1.91667 4.03003 1.66162 4.28508 1.66162 4.59967C1.66162 4.91426 1.91667 5.16931 2.23126 5.16931Z" fill="#FF3600"/>
<path d="M24.3182 14.5568H11.6819C11.3674 14.5568 11.1123 14.8119 11.1123 15.1265V16.6489C11.1123 16.9635 11.3674 17.2186 11.6819 17.2186C11.9965 17.2186 12.2516 16.9635 12.2516 16.6489V15.6961H23.7485V16.6489C23.7485 16.9635 24.0036 17.2186 24.3182 17.2186C24.6328 17.2186 24.8878 16.9635 24.8878 16.6489V15.1265C24.8878 14.8119 24.6328 14.5568 24.3182 14.5568Z" fill="#FF3600"/>
<path d="M21.1588 11.7008C21.4734 11.7008 21.7284 11.4458 21.7284 11.1312C21.7284 10.8166 21.4734 10.5615 21.1588 10.5615H14.8406C14.526 10.5615 14.271 10.8166 14.271 11.1312C14.271 11.4458 14.526 11.7008 14.8406 11.7008H21.1588Z" fill="#FF3600"/>
</svg>
