<svg width="44" height="26" viewBox="0 0 44 26" fill="none" xmlns="http://www.w3.org/2000/svg">
<path fill-rule="evenodd" clip-rule="evenodd" d="M43.0565 20.9261H38.8684C38.5626 20.9261 38.3148 20.6784 38.3148 20.3725C38.3148 18.1322 36.4923 16.3097 34.2521 16.3097C32.0117 16.3097 30.1891 18.1323 30.1891 20.3725C30.1891 20.6784 29.9413 20.9261 29.6355 20.9261H13.9749C13.6691 20.9261 13.4213 20.6784 13.4213 20.3725C13.4213 18.1322 11.5987 16.3097 9.35835 16.3097C7.11814 16.3097 5.29562 18.1323 5.29562 20.3725C5.29562 20.6784 5.04774 20.9261 4.74191 20.9261H3.25983C1.46236 20.9261 0 19.4638 0 17.6662V9.07022C0 8.76439 0.247885 8.5166 0.553717 8.5166H37.4056C40.8268 8.5166 43.6102 11.3 43.6102 14.7212V20.3726C43.6101 20.6783 43.3623 20.9261 43.0565 20.9261ZM39.3927 19.8189H42.5029V14.7212C42.5029 11.9104 40.2162 9.62376 37.4056 9.62376H1.10746V17.6662C1.10746 18.8532 2.07314 19.8188 3.25995 19.8188H4.21789C4.49505 17.2274 6.69482 15.2023 9.35857 15.2023C12.0224 15.2023 14.2221 17.2274 14.4994 19.8188H29.1115C29.3887 17.2274 31.5884 15.2023 34.2522 15.2023C36.9159 15.2024 39.1154 17.2274 39.3927 19.8189Z" fill="#FF3600"/>
<path fill-rule="evenodd" clip-rule="evenodd" d="M33.9038 9.62402H0.554205C0.248373 9.62402 0.000488281 9.37613 0.000488281 9.0704V2.94168C0.000488281 1.31966 1.32009 6.10352e-05 2.94211 6.10352e-05H25.3876C30.3888 6.10352e-05 34.4576 4.06903 34.4576 9.0704C34.4575 9.37613 34.2095 9.62402 33.9038 9.62402ZM1.10768 8.51678H33.3311C33.046 4.38301 29.5921 1.10739 25.3873 1.10739H2.94188C1.93042 1.10739 1.1077 1.93022 1.1077 2.94178L1.10768 8.51678Z" fill="#FF3600"/>
<path fill-rule="evenodd" clip-rule="evenodd" d="M9.35855 25.5425C6.50777 25.5425 4.18848 23.2232 4.18848 20.3724C4.18848 17.5216 6.50777 15.2023 9.35855 15.2023C12.2094 15.2023 14.5287 17.5216 14.5287 20.3724C14.5287 23.2233 12.2094 25.5425 9.35855 25.5425ZM9.35855 16.3096C7.11833 16.3096 5.29582 18.1322 5.29582 20.3724C5.29582 22.6127 7.11833 24.4352 9.35855 24.4352C11.5989 24.4352 13.4215 22.6127 13.4215 20.3724C13.4215 18.1322 11.5989 16.3096 9.35855 16.3096Z" fill="#FF3600"/>
<path fill-rule="evenodd" clip-rule="evenodd" d="M34.2521 25.5425C31.4013 25.5425 29.082 23.2232 29.082 20.3724C29.082 17.5216 31.4013 15.2023 34.2521 15.2023C37.103 15.2023 39.4222 17.5216 39.4222 20.3724C39.4222 23.2233 37.103 25.5425 34.2521 25.5425ZM34.2521 16.3096C32.0118 16.3096 30.1893 18.1322 30.1893 20.3724C30.1893 22.6127 32.0118 24.4352 34.2521 24.4352C36.4924 24.4352 38.3149 22.6127 38.3149 20.3724C38.3149 18.1322 36.4924 16.3096 34.2521 16.3096Z" fill="#FF3600"/>
<path fill-rule="evenodd" clip-rule="evenodd" d="M9.35845 23.005C7.90675 23.005 6.72559 21.824 6.72559 20.3721C6.72559 18.9203 7.90676 17.7393 9.35845 17.7393C10.8103 17.7393 11.9914 18.9203 11.9914 20.3721C11.9914 21.824 10.8103 23.005 9.35845 23.005ZM9.35845 18.8465C8.51731 18.8465 7.83291 19.5309 7.83291 20.3721C7.83291 21.2133 8.51731 21.8977 9.35845 21.8977C10.1997 21.8977 10.8842 21.2133 10.8842 20.3721C10.8842 19.5309 10.1998 18.8465 9.35845 18.8465Z" fill="#FF3600"/>
<path fill-rule="evenodd" clip-rule="evenodd" d="M34.2521 23.005C32.8003 23.005 31.6191 21.824 31.6191 20.3721C31.6191 18.9203 32.8003 17.7393 34.2521 17.7393C35.7039 17.7393 36.885 18.9203 36.885 20.3721C36.885 21.824 35.7039 23.005 34.2521 23.005ZM34.2521 18.8465C33.4109 18.8465 32.7265 19.5309 32.7265 20.3721C32.7265 21.2133 33.4109 21.8977 34.2521 21.8977C35.0933 21.8977 35.7777 21.2133 35.7777 20.3721C35.7777 19.5309 35.0933 18.8465 34.2521 18.8465Z" fill="#FF3600"/>
<path fill-rule="evenodd" clip-rule="evenodd" d="M17.2285 9.62382C16.9227 9.62382 16.6748 9.37593 16.6748 9.0702V0.553595C16.6748 0.247763 16.9227 -0.00012207 17.2285 -0.00012207C17.5343 -0.00012207 17.7821 0.247763 17.7821 0.553595V9.0702C17.7821 9.37593 17.5343 9.62382 17.2285 9.62382Z" fill="#FF3600"/>
<path fill-rule="evenodd" clip-rule="evenodd" d="M43.0333 17.8559H40.7773C40.4715 17.8559 40.2236 17.6081 40.2236 17.3022V14.208C40.2236 13.9021 40.4715 13.6544 40.7773 13.6544H43.0333C43.3391 13.6544 43.5869 13.9022 43.5869 14.208V17.3023C43.5869 17.608 43.339 17.8559 43.0333 17.8559ZM41.3309 16.7486H42.4795V14.7616H41.3309V16.7486Z" fill="#FF3600"/>
</svg>
