<svg width="47" height="21" viewBox="0 0 47 21" fill="none" xmlns="http://www.w3.org/2000/svg">
<path d="M1.04708 17.795H4.78099C6.05073 20.0093 8.87535 20.7749 11.0897 19.5049C11.8014 19.0969 12.3916 18.5064 12.7999 17.795H34.2052C35.4743 20.009 38.2983 20.7749 40.5123 19.5058C41.2313 19.0937 41.8262 18.4957 42.2348 17.7748C42.3227 17.7594 42.4075 17.7288 42.485 17.6841L46.3566 15.3611C46.5894 15.2212 46.7322 14.9694 46.7322 14.6975V7.72877C46.7303 7.6374 46.7117 7.54729 46.678 7.46222C46.6695 7.43922 46.66 7.41748 46.6493 7.39511C46.6386 7.37274 46.6338 7.351 46.6212 7.32989L44.5175 3.82314L45.1023 2.65486C45.2932 2.27205 45.1379 1.807 44.7554 1.61607C44.6864 1.58172 44.613 1.55778 44.537 1.54518L40.5545 0.88069L38.6644 0.566248C29.3934 -0.953342 19.8795 0.605317 11.578 5.00403L9.29534 6.2221L5.81096 6.99623C3.44225 7.51799 1.43682 9.08358 0.356443 11.2551C0.302251 11.3622 0.273579 11.4803 0.272949 11.6004V17.0205C0.272949 17.4481 0.619528 17.795 1.04708 17.795ZM11.6259 16.7108C10.9384 18.273 9.1148 18.9822 7.55268 18.2947C5.99055 17.6072 5.28133 15.7836 5.96881 14.2215C6.6563 12.6593 8.47994 11.9501 10.0421 12.6376C11.1656 13.1319 11.89 14.2445 11.8877 15.472C11.8865 15.8986 11.7976 16.3205 11.6259 16.7108ZM41.0502 16.7108C40.3627 18.273 38.539 18.9822 36.9769 18.2947C35.4148 17.6072 34.7056 15.7836 35.393 14.2215C36.0805 12.6593 37.9042 11.9501 39.4663 12.6376C40.5898 13.1319 41.3142 14.2445 41.312 15.472C41.3107 15.8986 41.2219 16.3205 41.0502 16.7108ZM45.1836 10.0518H43.2478L42.0861 8.5029H45.1836V10.0518ZM29.5841 1.61166C32.5353 1.45349 35.4951 1.61607 38.4111 2.09718L38.8179 2.16524L34.7966 6.1802H28.9303L29.5841 1.61166ZM35.1174 7.72877C35.3228 7.72877 35.5197 7.64717 35.6646 7.50192L40.6922 2.47338L43.2478 2.89998L42.9377 3.51091C42.8196 3.74784 42.8306 4.02889 42.9674 4.25574L44.5903 6.95433H40.5375C40.1097 6.95433 39.7631 7.30122 39.7631 7.72877C39.7631 7.89639 39.8176 8.05928 39.9181 8.19319L42.2411 11.2907C42.3873 11.4857 42.6167 11.6004 42.8606 11.6004H45.1836V14.2593L42.8606 15.6553C42.8606 15.5942 42.8643 15.5331 42.8643 15.472C42.8643 12.906 40.7842 10.8259 38.2186 10.8259C35.6527 10.8259 33.5726 12.906 33.5726 15.472C33.5741 15.7039 33.594 15.9354 33.6315 16.1642C33.6353 16.1913 33.6315 16.2193 33.6378 16.2464H27.4926L28.7091 7.72877H35.1174ZM28.0037 1.72004L27.3663 6.1802H12.666C17.4399 3.71035 22.6497 2.19548 28.0037 1.72004ZM1.82153 13.1489H3.3701V11.6004H1.93527C2.8411 10.0231 4.36888 8.90052 6.14462 8.50763L9.6498 7.72877H27.1416L25.9283 16.2461H13.3711C13.3711 16.219 13.3711 16.1913 13.3774 16.1642C13.4146 15.9351 13.4341 15.7039 13.4363 15.4717C13.4363 12.906 11.3562 10.8259 8.79028 10.8259C6.22465 10.8259 4.14455 12.906 4.14455 15.4717C4.14612 15.7039 4.16597 15.9351 4.20347 16.1642C4.20725 16.1913 4.20347 16.219 4.20945 16.2461H1.82153V13.1489Z" fill="#FF3600"/>
<path d="M20.4053 9.2774H23.5027V10.826H20.4053V9.2774Z" fill="#FF3600"/>
</svg>
