<svg width="32" height="32" viewBox="0 0 32 32" fill="none" xmlns="http://www.w3.org/2000/svg">
<rect width="32" height="32" rx="6" fill="#FF3600"/>
<path d="M14.1111 13.2222V14.3334H13V16H14.1111V21H16.3333V16H17.8111L18 14.3334H16.3333V13.3611C16.3333 12.9112 16.3778 12.6722 17.0722 12.6722H18V11H16.5111C14.7334 11 14.1111 11.8334 14.1111 13.2222Z" fill="#F6F6F6"/>
<path d="M16 8C11.5817 8 8 11.5817 8 16C8 20.4183 11.5817 24 16 24C20.4183 24 24 20.4183 24 16C24 11.5817 20.4183 8 16 8ZM16 23.2727C11.9834 23.2727 8.72728 20.0166 8.72728 16C8.72728 11.9834 11.9834 8.72728 16 8.72728C20.0166 8.72728 23.2727 11.9834 23.2727 16C23.2727 20.0166 20.0166 23.2727 16 23.2727Z" fill="#F6F6F6"/>
</svg>
