<svg width="108" height="109" viewBox="0 0 108 109" fill="none" xmlns="http://www.w3.org/2000/svg">
<path fill-rule="evenodd" clip-rule="evenodd" d="M86.5354 73.8402C89.4077 68.0522 89.6476 61.6231 90.5461 55.2359C91.5571 48.0486 95.1356 40.473 92.153 33.9057C89.1606 27.3171 81.5297 24.466 75.0947 21.2149C69.0219 18.1469 62.656 15.4093 55.8312 15.5553C49.12 15.6989 42.9938 18.8334 37.0492 22.029C31.0267 25.2665 25.0778 28.7687 20.9971 34.2807C16.6992 40.0861 12.7896 46.9514 13.284 54.1299C13.7709 61.201 19.8674 66.2056 23.6072 72.1804C27.1142 77.7832 29.6141 83.9663 34.6362 88.2425C40.1788 92.962 46.5094 97.7083 53.8055 97.8938C61.1163 98.0796 67.7386 93.5972 73.6743 89.235C79.1476 85.2126 83.5109 79.935 86.5354 73.8402Z" fill="#F6F6F6"/>
<g clip-path="url(#clip0_715_113)">
<path d="M69.6162 59.0424L67.6568 57.083C66.2075 55.6255 64.4833 54.4699 62.5843 53.6832C60.6853 52.8965 58.649 52.4943 56.5935 52.4999C55.2923 52.4979 53.996 52.6575 52.7341 52.9749V47.7499H57.781L59.3841 49.8874C59.4394 49.9611 59.5112 50.021 59.5936 50.0622C59.676 50.1034 59.767 50.1249 59.8591 50.1249H64.0154C64.1728 50.1248 64.3238 50.0623 64.4352 49.9509L66.8102 47.5759C66.8932 47.4929 66.9497 47.3871 66.9726 47.2719C66.9955 47.1568 66.9837 47.0374 66.9388 46.9289C66.8939 46.8204 66.8178 46.7277 66.7202 46.6625C66.6226 46.5972 66.5078 46.5624 66.3904 46.5624H64.1555L63.4216 46.1954V44.5543L64.1555 44.1874H66.3904C66.5078 44.1874 66.6226 44.1525 66.7202 44.0873C66.8178 44.022 66.8939 43.9293 66.9388 43.8208C66.9837 43.7124 66.9955 43.593 66.9726 43.4778C66.9497 43.3627 66.8932 43.2569 66.8102 43.1738L64.4352 40.7988C64.3238 40.6875 64.1728 40.6249 64.0154 40.6249H59.8591C59.767 40.6249 59.676 40.6463 59.5936 40.6876C59.5112 40.7288 59.4394 40.7886 59.3841 40.8624L57.781 42.9999H52.7341V37.6561C52.7341 37.1837 52.5465 36.7306 52.2124 36.3966C51.8784 36.0625 51.4253 35.8749 50.9529 35.8749H37.8904C37.418 35.8749 36.9649 36.0625 36.6308 36.3966C36.2968 36.7306 36.1091 37.1837 36.1091 37.6561V56.0624C36.1091 56.5348 36.2968 56.9879 36.6308 57.3219C36.9649 57.656 37.418 57.8436 37.8904 57.8436H44.7696L43.5821 59.0311H40.2654C39.006 59.0325 37.7987 59.5334 36.9082 60.4239C36.0177 61.3144 35.5168 62.5218 35.5154 63.7811V65.5624C35.5163 66.3494 35.8294 67.104 36.3859 67.6606C36.9425 68.2171 37.6971 68.5302 38.4841 68.5311H41.4938C41.6376 69.6787 42.1955 70.7342 43.0626 71.4995C43.9297 72.2647 45.0464 72.687 46.2029 72.687C47.3594 72.687 48.4761 72.2647 49.3432 71.4995C50.2103 70.7342 50.7681 69.6787 50.9119 68.5311H59.3064C59.4501 69.6787 60.008 70.7342 60.8751 71.4995C61.7422 72.2647 62.8589 72.687 64.0154 72.687C65.1719 72.687 66.2886 72.2647 67.1557 71.4995C68.0228 70.7342 68.5806 69.6787 68.7244 68.5311H69.9529C70.5828 68.5311 71.1869 68.2809 71.6323 67.8355C72.0777 67.3901 72.3279 66.786 72.3279 66.1561V61.9999C72.327 61.2573 72.0482 60.5419 71.5464 59.9945C71.0445 59.4472 70.356 59.1075 69.6162 59.0424ZM71.1404 61.9999V62.5936H69.3591C69.2017 62.5936 69.0506 62.5311 68.9393 62.4197C68.8279 62.3084 68.7654 62.1574 68.7654 61.9999V60.2186H69.3591C69.8315 60.2186 70.2846 60.4063 70.6187 60.7403C70.9527 61.0744 71.1404 61.5275 71.1404 61.9999ZM67.9258 59.0311H57.4841V53.7171C61.0061 53.9238 64.3285 55.4208 66.8167 57.922L67.9258 59.0311ZM49.1716 54.2811H39.6716V51.9061H49.1716V54.2811ZM56.2966 53.6945V59.0311H45.2612L46.3703 57.922C49.0036 55.2759 52.5641 53.7595 56.2966 53.6945ZM58.0779 44.1874C58.1701 44.1874 58.261 44.1659 58.3434 44.1247C58.4259 44.0835 58.4976 44.0236 58.5529 43.9499L60.156 41.8124H63.7696L64.9571 42.9999H64.0154C63.9233 42.9998 63.8324 43.0211 63.75 43.0622L62.5625 43.656C62.4638 43.7053 62.3808 43.7811 62.3228 43.875C62.2648 43.9689 62.2341 44.077 62.2341 44.1874V46.5624C62.2341 46.6727 62.2648 46.7809 62.3228 46.8748C62.3808 46.9686 62.4638 47.0445 62.5625 47.0938L63.75 47.6875C63.8324 47.7286 63.9233 47.75 64.0154 47.7499H64.9571L63.7696 48.9374H60.156L58.5529 46.7999C58.4976 46.7261 58.4259 46.6663 58.3434 46.6251C58.261 46.5838 58.1701 46.5624 58.0779 46.5624H52.7341V44.1874H58.0779ZM37.2966 56.0624V37.6561C37.2966 37.4987 37.3592 37.3476 37.4705 37.2363C37.5819 37.1249 37.7329 37.0624 37.8904 37.0624H50.9529C51.1104 37.0624 51.2614 37.1249 51.3727 37.2363C51.4841 37.3476 51.5466 37.4987 51.5466 37.6561V53.3311C51.1449 53.4677 50.749 53.6207 50.3591 53.7901V51.3124C50.3591 51.1549 50.2966 51.0039 50.1852 50.8925C50.0739 50.7812 49.9229 50.7186 49.7654 50.7186H39.0779C38.9204 50.7186 38.7694 50.7812 38.658 50.8925C38.5467 51.0039 38.4841 51.1549 38.4841 51.3124V54.8749C38.4841 55.0324 38.5467 55.1834 38.658 55.2947C38.7694 55.4061 38.9204 55.4686 39.0779 55.4686H47.4236C46.9188 55.8355 46.4362 56.232 45.9784 56.6561H37.8904C37.7329 56.6561 37.5819 56.5936 37.4705 56.4822C37.3592 56.3709 37.2966 56.2199 37.2966 56.0624ZM40.2654 60.2186V61.9999C40.2654 62.3148 40.1403 62.6169 39.9176 62.8396C39.6949 63.0623 39.3928 63.1874 39.0779 63.1874H36.7563C36.8972 62.3582 37.3266 61.6055 37.9687 61.0622C38.6108 60.519 39.4243 60.2202 40.2654 60.2186ZM46.2029 71.4999C45.4983 71.4999 44.8095 71.2909 44.2237 70.8995C43.6378 70.508 43.1812 69.9516 42.9116 69.3007C42.6419 68.6497 42.5714 67.9334 42.7088 67.2424C42.8463 66.5513 43.1856 65.9165 43.6838 65.4183C44.182 64.9201 44.8168 64.5808 45.5079 64.4433C46.1989 64.3059 46.9152 64.3764 47.5662 64.6461C48.2172 64.9157 48.7735 65.3723 49.165 65.9582C49.5564 66.544 49.7654 67.2328 49.7654 67.9374C49.7644 68.8819 49.3888 69.7875 48.7209 70.4554C48.053 71.1233 47.1474 71.4989 46.2029 71.4999ZM64.0154 71.4999C63.3108 71.4999 62.622 71.2909 62.0362 70.8995C61.4503 70.508 60.9937 69.9516 60.7241 69.3007C60.4544 68.6497 60.3839 67.9334 60.5213 67.2424C60.6588 66.5513 60.9981 65.9165 61.4963 65.4183C61.9945 64.9201 62.6293 64.5808 63.3204 64.4433C64.0114 64.3059 64.7277 64.3764 65.3787 64.6461C66.0297 64.9157 66.586 65.3723 66.9775 65.9582C67.3689 66.544 67.5779 67.2328 67.5779 67.9374C67.5769 68.8819 67.2013 69.7875 66.5334 70.4554C65.8655 71.1233 64.9599 71.4989 64.0154 71.4999ZM69.9529 67.3436H68.7244C68.5806 66.1961 68.0228 65.1406 67.1557 64.3753C66.2886 63.61 65.1719 63.1877 64.0154 63.1877C62.8589 63.1877 61.7422 63.61 60.8751 64.3753C60.008 65.1406 59.4501 66.1961 59.3064 67.3436H50.9119C50.7681 66.1961 50.2103 65.1406 49.3432 64.3753C48.4761 63.61 47.3594 63.1877 46.2029 63.1877C45.0464 63.1877 43.9297 63.61 43.0626 64.3753C42.1955 65.1406 41.6376 66.1961 41.4938 67.3436H38.4841C38.0117 67.3436 37.5586 67.156 37.2246 66.8219C36.8905 66.4879 36.7029 66.0348 36.7029 65.5624V64.3749H39.0779C39.7078 64.3749 40.3119 64.1247 40.7573 63.6793C41.2027 63.2339 41.4529 62.6298 41.4529 61.9999V60.2186H67.5779V61.9999C67.5779 62.4723 67.7655 62.9254 68.0996 63.2594C68.4336 63.5935 68.8867 63.7811 69.3591 63.7811H71.1404V66.1561C71.1404 66.4711 71.0153 66.7731 70.7926 66.9958C70.5699 67.2185 70.2678 67.3436 69.9529 67.3436Z" fill="#FF3600"/>
<path d="M56.2966 61.4061H51.5466V62.5936H56.2966V61.4061Z" fill="#FF3600"/>
<path d="M62.2341 61.4061H57.4841V62.5936H62.2341V61.4061Z" fill="#FF3600"/>
<path d="M46.2029 65.5624C45.7332 65.5624 45.274 65.7017 44.8834 65.9626C44.4928 66.2236 44.1884 66.5945 44.0087 67.0285C43.8289 67.4625 43.7819 67.94 43.8735 68.4007C43.9652 68.8614 44.1914 69.2846 44.5235 69.6168C44.8557 69.9489 45.2788 70.1751 45.7395 70.2667C46.2002 70.3584 46.6778 70.3114 47.1118 70.1316C47.5457 69.9518 47.9167 69.6474 48.1776 69.2569C48.4386 68.8663 48.5779 68.4071 48.5779 67.9374C48.5779 67.3075 48.3277 66.7034 47.8823 66.258C47.4369 65.8126 46.8328 65.5624 46.2029 65.5624ZM46.2029 69.1249C45.968 69.1249 45.7384 69.0552 45.5431 68.9247C45.3479 68.7943 45.1957 68.6088 45.1058 68.3918C45.0159 68.1748 44.9924 67.9361 45.0382 67.7057C45.084 67.4754 45.1971 67.2638 45.3632 67.0977C45.5293 66.9316 45.7409 66.8185 45.9712 66.7727C46.2016 66.7269 46.4403 66.7504 46.6573 66.8403C46.8743 66.9301 47.0598 67.0824 47.1903 67.2776C47.3207 67.4729 47.3904 67.7025 47.3904 67.9374C47.3904 68.2523 47.2653 68.5544 47.0426 68.7771C46.8199 68.9998 46.5178 69.1249 46.2029 69.1249Z" fill="#FF3600"/>
<path d="M64.0154 65.5624C63.5457 65.5624 63.0865 65.7017 62.6959 65.9626C62.3053 66.2236 62.0009 66.5945 61.8212 67.0285C61.6414 67.4625 61.5944 67.94 61.686 68.4007C61.7777 68.8614 62.0039 69.2846 62.336 69.6168C62.6682 69.9489 63.0913 70.1751 63.552 70.2667C64.0127 70.3584 64.4903 70.3114 64.9243 70.1316C65.3582 69.9518 65.7292 69.6474 65.9901 69.2569C66.2511 68.8663 66.3904 68.4071 66.3904 67.9374C66.3904 67.3075 66.1402 66.7034 65.6948 66.258C65.2494 65.8126 64.6453 65.5624 64.0154 65.5624ZM64.0154 69.1249C63.7805 69.1249 63.5509 69.0552 63.3556 68.9247C63.1604 68.7943 63.0082 68.6088 62.9183 68.3918C62.8284 68.1748 62.8049 67.9361 62.8507 67.7057C62.8965 67.4754 63.0096 67.2638 63.1757 67.0977C63.3418 66.9316 63.5534 66.8185 63.7837 66.7727C64.0141 66.7269 64.2528 66.7504 64.4698 66.8403C64.6868 66.9301 64.8723 67.0824 65.0028 67.2776C65.1332 67.4729 65.2029 67.7025 65.2029 67.9374C65.2029 68.2523 65.0778 68.5544 64.8551 68.7771C64.6324 68.9998 64.3303 69.1249 64.0154 69.1249Z" fill="#FF3600"/>
<path d="M39.0779 45.9686H39.3878C39.4507 46.1449 39.5224 46.3179 39.6028 46.487L39.3837 46.7061C39.3285 46.7612 39.2847 46.8267 39.2548 46.8988C39.2249 46.9709 39.2095 47.0481 39.2095 47.1261C39.2095 47.2042 39.2249 47.2814 39.2548 47.3535C39.2847 47.4256 39.3285 47.4911 39.3837 47.5462L41.0628 49.2253C41.1741 49.3367 41.3251 49.3992 41.4826 49.3992C41.64 49.3992 41.791 49.3367 41.9023 49.2253L42.1214 49.0063C42.2907 49.0867 42.4639 49.1584 42.6404 49.2212V49.5311C42.6404 49.6886 42.7029 49.8396 42.8143 49.951C42.9256 50.0623 43.0767 50.1249 43.2341 50.1249H45.6091C45.7666 50.1249 45.9176 50.0623 46.029 49.951C46.1403 49.8396 46.2029 49.6886 46.2029 49.5311V49.2212C46.3794 49.1584 46.5526 49.0867 46.7218 49.0063L46.9409 49.2253C47.0544 49.3326 47.2046 49.3924 47.3607 49.3924C47.5168 49.3924 47.667 49.3326 47.7805 49.2253L49.4596 47.5462C49.5148 47.4911 49.5586 47.4256 49.5885 47.3535C49.6184 47.2814 49.6337 47.2042 49.6337 47.1261C49.6337 47.0481 49.6184 46.9709 49.5885 46.8988C49.5586 46.8267 49.5148 46.7612 49.4596 46.7061L49.2405 46.487C49.3208 46.3179 49.3926 46.1449 49.4554 45.9686H49.7654C49.9229 45.9686 50.0739 45.9061 50.1852 45.7947C50.2966 45.6834 50.3591 45.5324 50.3591 45.3749V42.9999C50.3591 42.8424 50.2966 42.6914 50.1852 42.58C50.0739 42.4687 49.9229 42.4061 49.7654 42.4061H49.4554C49.3926 42.2298 49.3208 42.0568 49.2405 41.8878L49.4596 41.6687C49.5148 41.6135 49.5586 41.5481 49.5885 41.476C49.6184 41.4039 49.6337 41.3266 49.6337 41.2486C49.6337 41.1706 49.6184 41.0933 49.5885 41.0212C49.5586 40.9492 49.5148 40.8837 49.4596 40.8285L47.7805 39.1494C47.6691 39.0381 47.5181 38.9756 47.3607 38.9756C47.2033 38.9756 47.0523 39.0381 46.9409 39.1494L46.7218 39.3691C46.5526 39.2885 46.3794 39.2165 46.2029 39.1536V38.8436C46.2029 38.6862 46.1403 38.5351 46.029 38.4238C45.9176 38.3124 45.7666 38.2499 45.6091 38.2499H43.2341C43.0767 38.2499 42.9256 38.3124 42.8143 38.4238C42.7029 38.5351 42.6404 38.6862 42.6404 38.8436V39.1536C42.4639 39.2163 42.2907 39.2881 42.1214 39.3685L41.9023 39.1488C41.791 39.0375 41.64 38.975 41.4826 38.975C41.3251 38.975 41.1741 39.0375 41.0628 39.1488L39.3837 40.8285C39.3285 40.8837 39.2847 40.9492 39.2548 41.0212C39.2249 41.0933 39.2095 41.1706 39.2095 41.2486C39.2095 41.3266 39.2249 41.4039 39.2548 41.476C39.2847 41.5481 39.3285 41.6135 39.3837 41.6687L39.6028 41.8878C39.5224 42.0568 39.4507 42.2298 39.3878 42.4061H39.0779C38.9204 42.4061 38.7694 42.4687 38.658 42.58C38.5467 42.6914 38.4841 42.8424 38.4841 42.9999V45.3749C38.4841 45.5324 38.5467 45.6834 38.658 45.7947C38.7694 45.9061 38.9204 45.9686 39.0779 45.9686ZM39.6716 43.5936H39.8272C39.9587 43.5935 40.0864 43.5496 40.1903 43.4691C40.2943 43.3885 40.3685 43.2756 40.4013 43.1483C40.4986 42.7731 40.6479 42.4134 40.8449 42.0796C40.9118 41.9661 40.9391 41.8335 40.9225 41.7028C40.9058 41.5721 40.8461 41.4506 40.7528 41.3576L40.643 41.2477L41.4826 40.4088L41.5924 40.5186C41.6856 40.6118 41.807 40.6713 41.9378 40.6879C42.0685 40.7045 42.201 40.6771 42.3144 40.61C42.6483 40.4135 43.008 40.2646 43.3832 40.1677C43.5105 40.1347 43.6232 40.0603 43.7037 39.9563C43.7842 39.8523 43.8279 39.7245 43.8279 39.5929V39.4374H45.0154V39.5929C45.0154 39.7245 45.0592 39.8524 45.1398 39.9564C45.2204 40.0605 45.3333 40.1348 45.4607 40.1677C45.8358 40.2646 46.1956 40.4135 46.5294 40.61C46.6429 40.6771 46.7754 40.7045 46.9061 40.6879C47.0368 40.6713 47.1583 40.6118 47.2514 40.5186L47.3613 40.4088L48.2008 41.2483L48.091 41.3582C47.9977 41.4512 47.9381 41.5727 47.9214 41.7034C47.9047 41.8341 47.932 41.9667 47.999 42.0802C48.1959 42.414 48.3452 42.7737 48.4425 43.1489C48.4754 43.2762 48.5496 43.3891 48.6535 43.4696C48.7574 43.5502 48.8852 43.5941 49.0167 43.5942H49.1716V44.7817H49.0161C48.8846 44.7819 48.7568 44.8257 48.6529 44.9063C48.549 44.9869 48.4748 45.0997 48.4419 45.227C48.3446 45.6022 48.1953 45.962 47.9984 46.2958C47.9314 46.4093 47.9041 46.5418 47.9208 46.6725C47.9375 46.8033 47.9971 46.9247 48.0904 47.0178L48.2003 47.1276L47.3607 47.966L47.2508 47.8562C47.1577 47.763 47.0362 47.7034 46.9055 47.6869C46.7748 47.6703 46.6423 47.6977 46.5288 47.7647C46.195 47.9614 45.8353 48.1103 45.4601 48.2071C45.3327 48.24 45.2198 48.3143 45.1392 48.4183C45.0586 48.5223 45.0148 48.6502 45.0148 48.7818V48.9374H43.8279V48.7818C43.8278 48.6502 43.7841 48.5223 43.7035 48.4183C43.6229 48.3143 43.51 48.24 43.3826 48.2071C43.0074 48.1103 42.6476 47.9614 42.3138 47.7647C42.2004 47.6977 42.0679 47.6703 41.9372 47.6869C41.8065 47.7034 41.685 47.763 41.5918 47.8562L41.482 47.966L40.643 47.1264L40.7528 47.0166C40.8461 46.9235 40.9058 46.8021 40.9225 46.6714C40.9391 46.5406 40.9118 46.4081 40.8449 46.2946C40.6479 45.9608 40.4986 45.601 40.4013 45.2258C40.3684 45.0986 40.2941 44.9859 40.1902 44.9055C40.0863 44.825 39.9586 44.7813 39.8272 44.7811H39.6716V43.5936Z" fill="#FF3600"/>
<path d="M44.4216 47.1561C45.0088 47.1561 45.5828 46.982 46.071 46.6558C46.5592 46.3296 46.9397 45.8659 47.1644 45.3235C47.3891 44.781 47.4479 44.1841 47.3333 43.6082C47.2188 43.0323 46.936 42.5033 46.5209 42.0882C46.1057 41.673 45.5767 41.3902 45.0008 41.2757C44.4249 41.1611 43.828 41.2199 43.2855 41.4446C42.7431 41.6693 42.2794 42.0498 41.9532 42.538C41.627 43.0262 41.4529 43.6002 41.4529 44.1874C41.4538 44.9745 41.7669 45.729 42.3234 46.2856C42.88 46.8421 43.6346 47.1552 44.4216 47.1561ZM44.4216 42.4061C44.7739 42.4061 45.1183 42.5106 45.4112 42.7063C45.7042 42.9021 45.9325 43.1802 46.0673 43.5057C46.2021 43.8312 46.2374 44.1894 46.1687 44.5349C46.0999 44.8804 45.9303 45.1978 45.6812 45.4469C45.4321 45.696 45.1147 45.8657 44.7691 45.9344C44.4236 46.0031 44.0655 45.9679 43.74 45.833C43.4145 45.6982 43.1363 45.4699 42.9406 45.177C42.7448 44.8841 42.6404 44.5397 42.6404 44.1874C42.6404 43.715 42.828 43.2619 43.1621 42.9278C43.4961 42.5938 43.9492 42.4061 44.4216 42.4061Z" fill="#FF3600"/>
</g>
<defs>
<clipPath id="clip0_715_113">
<rect width="38" height="38" fill="white" transform="translate(34.9216 35.2811)"/>
</clipPath>
</defs>
</svg>
