<svg width="32" height="32" viewBox="0 0 32 32" fill="none" xmlns="http://www.w3.org/2000/svg">
<rect width="32" height="32" rx="6" fill="#FF3600"/>
<path d="M16 8C11.5817 8 8 11.5817 8 16C8 20.4183 11.5817 24 16 24C20.4183 24 24 20.4183 24 16C24 11.5817 20.4183 8 16 8ZM16 23.2727C11.9834 23.2727 8.72728 20.0166 8.72728 16C8.72728 11.9834 11.9834 8.72728 16 8.72728C20.0166 8.72728 23.2727 11.9834 23.2727 16C23.2727 20.0166 20.0166 23.2727 16 23.2727Z" fill="#F6F6F6"/>
<path d="M13 14C13.5523 14 14 13.5523 14 13C14 12.4477 13.5523 12 13 12C12.4477 12 12 12.4477 12 13C12 13.5523 12.4477 14 13 14Z" fill="#F6F6F6"/>
<path d="M14 15H12V20H14V15Z" fill="#F6F6F6"/>
<path d="M18.3455 15C16.9818 15 16.8182 15.8091 16.8182 15.8091V15H15V20H16.8182V17.2727C16.8182 17.2727 16.8182 16.3636 17.5909 16.3636C18.0455 16.3636 18.1818 16.7682 18.1818 17.2727V20H20V17.2727C20 15.85 19.3818 15 18.3455 15Z" fill="#F6F6F6"/>
</svg>
