<svg width="40" height="40" viewBox="0 0 40 40" fill="none" xmlns="http://www.w3.org/2000/svg">
<circle cx="20" cy="20" r="20" fill="#F6F6F6"/>
<path d="M16.7344 25H14.1914V16.8242H16.7344V25ZM15.4492 15.7305C14.6562 15.7305 14 15.0469 14 14.2266C14 13.1055 15.2031 12.3945 16.1875 12.9688C16.6523 13.2148 16.9258 13.707 16.9258 14.2266C16.9258 15.0469 16.2695 15.7305 15.4492 15.7305ZM26.2227 25H23.707V21.0352C23.707 20.0781 23.6797 18.875 22.3672 18.875C21.0547 18.875 20.8633 19.8867 20.8633 20.9531V25H18.3203V16.8242H20.7539V17.9453H20.7812C21.1367 17.3164 21.957 16.6328 23.1875 16.6328C25.7578 16.6328 26.25 18.3281 26.25 20.5156V25H26.2227Z" fill="#1C2539"/>
</svg>
