<svg width="22" height="22" viewBox="0 0 22 22" fill="none" xmlns="http://www.w3.org/2000/svg">
<path d="M10.0275 1.77051C5.48202 1.77051 1.7793 5.47322 1.7793 10.0187C1.7793 14.5642 5.48202 18.2741 10.0275 18.2741C11.969 18.2741 13.7546 17.5937 15.1659 16.464L18.6016 19.8979C18.7749 20.0641 19.0065 20.1558 19.2467 20.1534C19.4868 20.1509 19.7165 20.0545 19.8864 19.8848C20.0564 19.7151 20.1531 19.4856 20.1559 19.2455C20.1587 19.0053 20.0673 18.7736 19.9014 18.6L16.4657 15.1643C17.5963 13.7509 18.2775 11.9625 18.2775 10.0187C18.2775 5.47322 14.573 1.77051 10.0275 1.77051ZM10.0275 3.60387C13.5822 3.60387 16.4424 6.46405 16.4424 10.0187C16.4424 13.5734 13.5822 16.4408 10.0275 16.4408C6.47282 16.4408 3.61263 13.5734 3.61263 10.0187C3.61263 6.46405 6.47282 3.60387 10.0275 3.60387Z" fill="#FF3600"/>
</svg>
