<svg width="20" height="20" viewBox="0 0 20 20" fill="none" xmlns="http://www.w3.org/2000/svg">
<path d="M9.028 0.770508C4.4825 0.770508 0.779785 4.47322 0.779785 9.01873C0.779785 13.5642 4.4825 17.2741 9.028 17.2741C10.9695 17.2741 12.7551 16.5937 14.1663 15.464L17.6021 18.8979C17.7754 19.0641 18.007 19.1558 18.2472 19.1534C18.4873 19.1509 18.717 19.0545 18.8869 18.8848C19.0569 18.7151 19.1536 18.4856 19.1564 18.2455C19.1592 18.0053 19.0678 17.7736 18.9019 17.6L15.4661 14.1643C16.5968 12.7509 17.278 10.9625 17.278 9.01873C17.278 4.47322 13.5735 0.770508 9.028 0.770508ZM9.028 2.60387C12.5827 2.60387 15.4429 5.46405 15.4429 9.01873C15.4429 12.5734 12.5827 15.4408 9.028 15.4408C5.47331 15.4408 2.61312 12.5734 2.61312 9.01873C2.61312 5.46405 5.47331 2.60387 9.028 2.60387Z" fill="white"/>
</svg>
