<svg width="208" height="57" viewBox="0 0 208 57" fill="none" xmlns="http://www.w3.org/2000/svg">
<path d="M42.0953 34.5642L47.2293 29.5534L44.6545 37.0162L42.0797 39.47L42.0953 34.5642ZM51.5598 14.9882L49.4335 22.0449L36.6236 34.2782V29.5687L51.5598 14.9882ZM56.0913 0L53.9649 7.05837L31.1364 29.0424V24.3616L56.0913 0ZM8.9399 29.5687L37.0098 56.9543H32.2152L28.1928 53.0571L24.1687 56.9543H19.1282L25.6336 50.605L22.7506 47.8212L17.5248 52.8608L16.2002 49.5203L20.3472 45.5029L17.3101 42.5685L14.5206 45.2626L13.1943 41.8916L14.8739 40.2518L11.5753 37.0924L8.9399 29.5687ZM0 0L42.9905 41.9221L41.6641 45.2626L38.9352 42.6294L36.7171 44.7667V40.5074L33.5103 37.4088L31.1676 39.6054V35.1514L28.0231 32.1121L25.5869 34.4593V29.7785L2.12632 7.05837L0 0ZM4.62319 15.2133L39.846 49.6709L38.5197 53.0114L33.448 48.0006L31.1987 50.1379V45.8345L27.992 42.7343L25.5869 45.0223V40.4481L22.5047 37.4833L20.0996 39.8V35.1514L6.75124 22.27L4.62319 15.2133ZM82.8209 9.16522V20.2088H78.828V9.16522H69.9193V6.32055H91.792V9.16522H82.8209ZM111.228 14.7463H98.5744V20.2545H94.5815V6.35101H98.5744V11.8271H111.197V6.32055H115.19V20.2241H111.197L111.228 14.7463ZM118.75 6.32055H137.371V9.16522H122.759V11.888H136.462V14.6413H122.759V17.3946H137.371V20.2393H118.75V6.32055ZM81.7716 38.7626C74.2966 38.7626 69.8881 36.099 69.8881 31.5249C69.8881 26.9507 74.2654 24.2871 81.5257 24.2871C84.9784 24.2871 87.8302 24.8744 90.5886 26.1672V29.2979L90.4656 29.3284C87.7991 28.0033 84.9472 27.191 81.9101 27.191C76.6861 27.191 73.8949 28.8308 73.8949 31.5841C73.8949 34.3086 76.6238 35.9484 81.9101 35.9484C83.4979 35.9484 85.0858 35.7386 86.5662 35.302V32.7585H77.5016V30.3809H90.6042V36.9113C87.6138 38.2651 84.9472 38.7626 81.7716 38.7626ZM109.04 35.7234H98.2956L96.3996 38.5071H92.1158L101.811 24.6036H105.926L115.128 38.5071H110.813L109.04 35.7234ZM103.814 27.5515L100.192 32.8787H107.237L103.814 27.5515ZM121.124 29.5077V38.5223H117.256V24.6171H121.85L129.11 35.2411L136.369 24.6171H140.962V38.5223H137.094V29.5077L130.99 38.5071H127.243L121.124 29.5077ZM144.462 24.6171H163.083V27.4618H148.47V30.1846H162.203V32.9396H148.5V35.6929H163.114V38.5359H144.493V24.6036H144.462V24.6171ZM86.8433 53.9607H76.0991L74.2031 56.7445H69.9193L79.6141 42.8393H83.73L92.9313 56.7445H88.6164L86.8433 53.9607ZM81.6175 45.8193L77.9951 51.1465H85.0407L81.6175 45.8193ZM89.9877 42.9459L90.0501 42.885H94.1659L98.3112 52.6357L102.458 42.885H106.266L110.411 52.6357L114.605 42.885H118.69L118.75 42.9459L112.446 56.7445H108.577L104.354 46.9328L100.162 56.7445H96.2611L89.9877 42.9459ZM132.547 53.9607H121.803L119.891 56.7445H115.576L125.271 42.8393H129.387L138.588 56.7445H134.273L132.547 53.9607ZM127.306 45.8193L123.652 51.1465H130.698L127.306 45.8193ZM150.643 52.2296H144.524V56.7445H140.531V42.8393H152.231C157.332 42.8393 160.184 44.4807 160.184 47.5505C160.184 49.9569 158.411 51.4765 155.175 52.0045L160.662 56.6531L160.601 56.714H155.744L150.643 52.2296ZM144.524 49.3561H152.138C154.804 49.3561 156.193 48.9787 156.193 47.5657C156.193 46.1358 154.835 45.7449 152.138 45.7449L144.524 45.7584V49.3561ZM173.887 42.885C180.762 42.885 184.893 45.4589 184.893 49.8215C184.893 54.1858 180.748 56.758 174.042 56.758H163.098V42.885H173.887ZM167.105 53.8693H173.702C178.389 53.8693 180.808 52.6662 180.808 49.8215C180.808 46.9785 178.374 45.7736 173.702 45.7736H167.105V53.8693ZM187.236 55.8104V52.7118L187.36 52.6509C190.211 53.6443 193.232 54.0809 197.379 54.0809C201.85 54.0809 203.744 53.4327 203.744 52.4699C203.744 49.6861 187.128 53.3735 187.128 46.767C187.128 43.924 190.55 42.4044 197.147 42.4044C200.446 42.4044 203.452 42.78 206.212 43.5179V46.4218L206.089 46.4522C203.175 45.6535 200.215 45.2473 197.209 45.2473C192.924 45.2473 191.121 45.7144 191.121 46.5724C191.121 49.3561 207.737 45.8041 207.737 52.304C207.737 55.4939 204.624 56.8799 197.147 56.8799C193.326 57 189.842 56.5634 187.236 55.8104Z" fill="#E8341D"/>
</svg>
