<svg width="115" height="59" viewBox="0 0 115 59" fill="none" xmlns="http://www.w3.org/2000/svg">
<path fill-rule="evenodd" clip-rule="evenodd" d="M0 58.3829H21.7807L21.1149 53.5433H0.726045L0 58.3829ZM3.08586 43.319C3.32788 32.9131 8.65221 1.08984 10.709 1.08984C12.7658 1.08984 19.7842 37.39 18.9971 52.4546H18.3321C18.0901 51.0025 14.2782 24.2005 10.5273 24.1402C7.32078 24.1402 3.63022 41.5043 3.08586 43.319Z" fill="#0C0E0F"/>
<path fill-rule="evenodd" clip-rule="evenodd" d="M8.7729 51.9101C11.7977 51.9101 14.2782 49.4303 14.2782 46.4047C14.2782 43.3792 11.7977 40.8994 8.7729 40.8994C5.74806 40.8994 3.26758 43.3792 3.26758 46.4047C3.26758 49.4303 5.74736 51.9101 8.7729 51.9101Z" fill="#E6BD3C"/>
<path fill-rule="evenodd" clip-rule="evenodd" d="M24.8662 28.4964C24.8662 25.4715 25.5923 21.7207 28.3148 18.6951C30.6142 16.2146 33.7597 15.0046 36.4822 14.3388C38.5397 13.8548 41.3829 13.6738 42.2303 13.6738C44.5894 13.6738 46.7675 14.0365 48.2196 14.5816C48.7036 14.7632 49.006 14.6419 49.7931 13.9769C49.9144 13.9165 50.1557 13.9165 50.3374 14.0975C50.4258 14.2204 50.4687 14.3702 50.4588 14.5212C49.4907 16.82 49.551 19.1188 49.7327 21.4183C49.7327 21.4786 49.5511 21.6 49.2487 21.6C49.0067 21.6 48.9457 21.4786 48.886 21.297C48.7043 20.2082 48.402 19.1188 48.0386 18.3928C47.5964 17.6326 47.023 16.9567 46.3452 16.3963C45.0145 15.3679 43.3204 14.8839 40.8399 14.8839C38.2984 14.8839 35.5766 16.2146 33.6405 18.6355C31.4623 21.358 30.7363 25.1089 30.7363 28.6781C30.7363 33.458 33.4588 41.4438 41.3843 41.4438C44.2884 41.4438 46.4056 39.9917 47.676 39.0237C49.0067 37.935 49.7938 36.3622 49.9747 35.6362C50.0351 35.5141 50.1564 35.4545 50.2778 35.5141C50.5198 35.8179 50.6405 35.9988 50.6405 36.1805C50.1564 38.6007 49.2487 40.7178 48.644 41.6858C48.3417 42.1692 48.16 42.1692 47.918 42.1692C46.4659 42.0485 44.5298 42.7746 41.0812 42.7746C29.4042 42.7746 24.8662 35.1508 24.8662 28.4964ZM59.2913 42.4112C56.7498 42.2892 54.1486 42.1685 51.4261 42.2295C51.1841 42.2295 51.0635 42.1685 51.0031 41.9868C50.9428 41.8051 50.8818 41.5035 50.9428 41.3218C52.8186 41.0791 53.363 40.7774 53.7256 38.5383C53.9677 36.2991 54.2097 32.5489 54.573 27.5276L55.1777 18.0287C55.2991 15.7902 54.6937 15.5482 52.0926 15.1245C52.0926 14.8215 52.1529 14.6405 52.2742 14.3985C52.3346 14.3382 52.3949 14.3382 52.5163 14.3382C52.6979 14.3382 55.1784 14.4595 56.6908 14.4595C57.7199 14.4595 58.8093 14.3992 59.837 14.3992C59.8981 15.1856 60.0797 16.0323 60.3814 16.6376C62.4985 21.72 66.3111 29.4034 69.0336 34.485C69.0932 34.6667 69.2749 34.5461 69.3359 34.485C72.0584 29.2821 75.5063 21.5986 77.7455 16.6376C77.9882 16.1536 78.0478 15.7299 78.2302 14.3992C80.4679 14.4595 82.8271 14.4595 85.7916 14.3388C85.9136 14.4602 85.9136 14.8229 85.7916 15.0046C83.2508 15.4886 83.0691 15.9123 82.9484 17.243C82.8874 18.8165 82.8874 21.3573 83.0081 27.3466C83.0691 31.4006 83.2508 36.4225 83.3707 38.2969C83.4318 40.2338 83.7334 40.5964 85.4892 41.0805C85.9129 41.2011 86.0336 41.4431 86.0336 41.8065C86.0336 41.9272 85.8519 41.9882 85.6709 41.9882H81.7377C80.6489 41.9882 77.6241 42.1089 75.6873 42.3509V41.7455C75.6873 41.5042 75.7483 41.3828 75.991 41.3828C77.9264 40.8995 77.9875 40.7178 78.1692 38.903C78.2898 37.7533 78.2898 35.5751 78.2302 19.6639C78.2302 19.4219 78.0471 19.3012 77.9875 19.4822C77.2614 20.5106 73.2685 29.7071 71.3927 34.0024C69.4559 38.419 68.7299 40.2934 68.5482 40.7178C68.0038 41.7455 67.8832 42.1089 67.3998 42.1089C67.2181 42.1089 66.9761 41.9882 66.7944 41.6255C66.6128 41.2628 65.524 39.2054 64.495 36.8456C60.6241 28.4964 57.9612 22.749 56.5092 19.6028C56.2068 23.5957 55.9648 29.4644 55.9038 33.0954C55.7831 37.512 55.9641 39.2657 56.0855 39.9917C56.2664 40.8384 57.0535 41.1415 58.6866 41.5049C59.1713 41.5645 59.1713 41.6255 59.231 41.7462L59.2913 42.4112Z" fill="black"/>
<path fill-rule="evenodd" clip-rule="evenodd" d="M100.311 13.7939C100.733 13.7939 100.916 13.9756 101.037 14.5803C102.307 18.2709 103.215 20.691 104.727 24.6229C106.179 28.3745 109.204 35.6342 109.87 37.0253C111.261 39.9898 111.563 40.8365 113.984 41.3809C114.104 41.4419 113.802 42.229 113.5 42.2886C109.507 42.229 108.66 42.229 107.208 42.229C105.817 42.229 104.123 42.4107 103.698 42.4107C103.517 42.4107 103.396 42.3496 103.336 42.2886C103.215 42.0473 102.973 41.6846 103.033 41.5626C105.211 40.8975 105.331 40.5952 105.03 38.9621C104.909 38.1751 103.336 34.3028 102.852 33.1531C102.549 32.488 102.428 32.3064 102.064 32.3064C100.431 32.2453 95.7125 32.1857 93.5343 32.3674C92.99 32.427 92.6876 32.7897 92.5053 33.2141C91.8402 35.0899 90.9325 37.5697 90.8722 39.2645C90.7515 40.5959 91.4165 40.7776 93.2327 41.1999C93.474 41.3219 93.2327 42.1076 92.748 42.1679C90.8125 42.1069 88.3314 42.1069 87.4847 42.1069C86.7586 42.1069 86.0922 42.1679 85.9119 42.1679C85.7302 42.1679 85.6692 42.1069 85.6082 41.9863C85.4265 41.7436 85.3058 41.3809 85.4265 41.3212C87.3633 40.5952 87.6046 40.3532 89.2377 36.5413C91.9962 30.1147 94.7388 23.6812 97.4655 17.2411C97.8017 16.4196 98.1244 15.5927 98.4336 14.7606C98.5542 14.5186 98.6763 14.2766 98.9169 14.1552C99.222 13.9756 99.7664 13.7939 100.311 13.7939ZM94.9261 30.5526H101.4C101.884 30.5526 101.884 30.1899 101.763 29.8266C100.311 25.41 99.4037 22.9898 98.3739 20.6307C98.2533 20.3887 97.8906 20.3887 97.7089 20.6307C96.1362 24.2602 95.5308 25.652 93.8977 30.0686C93.777 30.2503 94.1404 30.5526 94.9261 30.5526Z" fill="black"/>
<path fill-rule="evenodd" clip-rule="evenodd" d="M24.4425 27.709C24.4425 24.7445 25.1686 20.9936 27.891 17.9078C30.1898 15.4876 33.3367 14.2776 35.9982 13.6125C38.055 13.1285 40.9592 12.9475 41.8059 12.9475C44.1657 12.9475 46.2835 13.3102 47.7959 13.8552C48.2189 14.0369 48.5823 13.9156 49.3694 13.2499C49.49 13.1292 49.6717 13.1895 49.9137 13.3705C50.0344 13.5522 50.0344 13.6736 49.9741 13.7942C49.0663 16.093 49.1273 18.3315 49.3083 20.6913C49.3083 20.7516 49.1273 20.873 48.8243 20.873C48.5823 20.873 48.522 20.7516 48.4616 20.5699C48.2196 19.4812 47.9776 18.3918 47.5539 17.6658C47.1912 16.9397 46.6462 16.2747 45.8598 15.6693C44.5894 14.6409 42.8953 14.1569 40.4148 14.1569C37.8733 14.1569 35.1515 15.4876 33.155 17.9078C31.0372 20.6303 30.3112 24.3812 30.3112 27.8907C30.3112 32.731 33.0337 40.7168 40.9592 40.7168C43.8633 40.7168 45.9805 39.2647 47.2509 38.2967C48.522 37.208 49.3076 35.5742 49.5497 34.9092C49.61 34.7275 49.671 34.7275 49.852 34.7871C50.094 35.0908 50.155 35.2718 50.155 35.4535C49.732 37.8737 48.8243 39.9908 48.1586 40.9588C47.8556 41.4422 47.7349 41.4422 47.4929 41.4422C46.0408 41.2605 44.1047 42.0476 40.6568 42.0476C28.9798 42.0476 24.4425 34.4237 24.4425 27.7694V27.709ZM58.8669 41.6856C56.2657 41.5635 53.6639 41.4429 51.0024 41.5039C50.7604 41.5039 50.6398 41.4429 50.5787 41.2612C50.5184 41.0795 50.4581 40.7778 50.4581 40.5962C52.3942 40.3535 52.9386 40.0518 53.2409 37.8126C53.5433 35.5735 53.7249 31.8233 54.0876 26.741L54.693 17.3031C54.8747 15.0646 54.2693 14.8219 51.6071 14.3386C51.6609 14.108 51.7421 13.8847 51.8491 13.6736C51.9095 13.6132 51.9095 13.5522 52.0912 13.5522C52.2728 13.5522 54.7533 13.7339 56.2657 13.7339C57.2338 13.7339 58.3836 13.6736 59.4119 13.6736C59.4119 14.4599 59.6546 15.3066 59.8967 15.912C62.0138 20.9943 65.886 28.6778 68.5475 33.7594C68.6695 33.9411 68.8512 33.8204 68.9102 33.7594C71.6327 28.5564 75.0819 20.873 77.3197 15.912C77.5624 15.428 77.6234 15.0043 77.7434 13.6736C79.9825 13.7339 82.4027 13.6736 85.3672 13.5522C85.4268 13.7339 85.4268 14.0362 85.3672 14.2782C82.825 14.7623 82.5837 15.186 82.5226 16.5174C82.402 18.0298 82.402 20.6317 82.5837 26.621C82.6433 30.6742 82.825 35.6955 82.886 37.5713C83.0067 39.4471 83.3097 39.8708 85.0031 40.3548C85.4878 40.4755 85.5475 40.7175 85.5475 41.0809C85.5475 41.2015 85.3672 41.2626 85.1862 41.2626H81.314C80.2252 41.2626 77.199 41.3832 75.2636 41.5649V41.0206C75.2636 40.7792 75.3232 40.6579 75.5659 40.6579C77.5014 40.1745 77.5624 39.9929 77.683 38.1171C77.8647 37.0284 77.8647 34.7892 77.8051 18.9389C77.8051 18.6969 77.6234 18.5763 77.5014 18.7573C76.8363 19.7857 72.8434 28.9219 70.9676 33.2782C69.0322 37.6948 68.3062 39.5692 68.0635 39.9325C67.5801 41.0212 67.3984 41.3846 66.9747 41.3846C66.7931 41.3846 66.551 41.2029 66.3097 40.9013C66.128 40.5386 65.0989 38.4811 64.0102 36.1213C60.199 27.7721 57.5362 22.0248 56.0848 18.8183C55.7817 22.8715 55.4794 28.7402 55.4794 32.3101C55.358 36.7863 55.4794 38.4804 55.6611 39.2675C55.7817 40.1142 56.6291 40.4172 58.2629 40.7806C58.6852 40.7806 58.7462 40.9013 58.8073 41.0219L58.8669 41.6856Z" fill="#AF2D51"/>
<path fill-rule="evenodd" clip-rule="evenodd" d="M99.8864 13.0684C100.31 13.0684 100.431 13.25 100.612 13.8547C101.883 17.5453 102.791 19.9051 104.303 23.898C105.755 27.6489 108.781 34.9093 109.446 36.3004C110.777 39.2649 111.14 40.1116 113.559 40.656C113.681 40.717 113.379 41.5041 113.076 41.5637C109.022 41.5041 108.236 41.5041 106.724 41.5041C105.392 41.5041 103.639 41.6858 103.214 41.6858C103.102 41.6835 102.994 41.6401 102.912 41.5637C102.79 41.2614 102.549 40.9597 102.608 40.8377C104.786 40.1116 104.908 39.8703 104.605 38.2372C104.423 37.4502 102.912 33.5779 102.426 32.4282C102.124 31.7021 102.004 31.5815 101.641 31.5815C100.008 31.5204 95.2874 31.4601 93.1092 31.6425C92.5649 31.7021 92.2625 32.0648 92.0816 32.4892C91.4151 34.365 90.5074 36.8448 90.3874 38.5396C90.3264 39.871 90.9928 40.0527 92.8076 40.475C93.0489 40.597 92.7466 41.3827 92.3243 41.3827H85.4265C85.3058 41.3827 85.2448 41.3827 85.1241 41.2621C85.0021 41.0194 84.8814 40.6567 85.0021 40.597C86.8779 39.871 87.1816 39.629 88.8147 35.8171C91.5723 29.3901 94.3149 22.9567 97.0425 16.5169C97.4648 15.4885 97.8282 14.5204 98.0099 14.0364C98.1319 13.7944 98.2526 13.5524 98.4336 13.4317C98.7962 13.25 99.3413 13.0684 99.826 13.0684H99.8864ZM94.5024 29.827H100.975C101.399 29.827 101.46 29.4644 101.338 29.101C99.8857 24.6234 98.9786 22.2642 97.9502 19.9051C97.8282 19.6631 97.4059 19.6631 97.2838 19.9051C95.7111 23.5346 95.1057 24.9264 93.413 29.343C93.352 29.524 93.6543 29.827 94.4407 29.827H94.5024Z" fill="#AF2D51"/>
<path d="M24.3213 10.043H59.5334M78.3482 10.043H112.47M24.3213 44.7704H113.318" stroke="#2C6397" stroke-width="8.24877" stroke-miterlimit="2.613"/>
<path fill-rule="evenodd" clip-rule="evenodd" d="M31.1576 46.8877C31.3386 46.8877 31.3996 47.0097 31.4599 47.1914C31.9439 48.7642 32.3073 49.6712 32.8517 51.2454C33.396 52.7571 34.7878 55.9643 35.0298 56.4476C35.3321 57.1737 35.5742 57.5364 36.6026 57.7791C36.6026 57.7791 36.4812 58.2624 36.4209 58.3234C35.0298 58.2624 34.6664 58.2624 34.1221 58.2624C33.5777 58.2624 33.0937 58.3234 32.912 58.3234C32.8517 58.3234 32.8517 58.3234 32.7913 58.2624C32.7913 58.2028 32.67 57.8387 32.731 57.7791C33.5777 57.5364 33.6387 57.4164 33.4571 56.75C33.3967 56.5087 32.8517 55.1169 32.6707 54.6329C32.6103 54.4512 32.55 54.3305 32.3676 54.3305C31.1583 54.3305 29.7062 54.3902 28.7381 54.4512C28.4961 54.4512 28.4351 54.4512 28.3144 54.7535C28.1327 55.1162 27.5884 56.5683 27.5884 56.9927C27.5884 57.3554 27.8304 57.476 28.4961 57.7187C28.4961 57.8394 28.4358 58.2035 28.3754 58.2631C27.5287 58.2035 26.5607 58.2035 26.1973 58.2035C25.9553 58.2035 25.6529 58.2631 25.5926 58.2631C25.4719 58.2631 25.4719 58.2035 25.4719 58.2035C25.4109 58.0814 25.3506 57.7187 25.3506 57.6591C26.0766 57.476 26.3186 57.0537 26.7423 56.2666C27.2264 55.2986 29.1015 50.52 30.1306 48.2198C30.3122 47.7365 30.4329 47.4938 30.4932 47.1921C30.4932 47.1311 30.5536 47.0701 30.6146 47.0701C30.7339 47.009 30.9759 46.8877 31.1576 46.8877ZM29.1001 53.6038H30.3102C31.1576 53.6038 31.5806 53.6038 32.0646 53.5428C32.1859 53.5428 32.2463 53.4221 32.2463 53.3611C31.5806 51.5463 31.2179 50.5179 30.6728 49.1262C30.6728 49.0651 30.6125 49.0651 30.5515 49.1872C29.7048 51.1226 29.4628 51.667 28.8581 53.3618C28.7977 53.4817 28.9184 53.6038 29.1001 53.6038ZM43.4996 49.6705C43.56 49.6705 43.6203 49.8522 43.6203 50.0332C43.6203 50.0942 43.6203 50.0942 43.56 50.0942C43.0156 50.1539 42.8339 50.2149 42.8339 50.3355C42.8339 50.4576 42.8942 50.6393 42.9553 50.8799C43.6203 52.7557 44.5884 55.1758 45.0724 56.3263C45.0724 56.3859 45.1327 56.4469 45.193 56.3263C45.6167 55.5392 46.5848 53.4221 47.0085 52.454C47.0688 52.2724 47.0688 52.2113 47.0688 52.0914C46.7055 51.0637 46.5848 50.7599 46.4635 50.4583C46.3428 50.2156 46.2825 50.1546 45.6167 50.1546C45.5564 50.1546 45.5564 50.0949 45.5564 50.0339C45.6167 49.7315 45.6771 49.6712 45.7984 49.6712H48.3996C48.3996 49.6712 48.3996 50.0949 48.3392 50.0949C47.6132 50.2156 47.6132 50.2766 47.6735 50.5783C48.0972 51.9707 49.1859 54.6932 49.9127 56.3263C49.973 56.4469 49.973 56.3859 50.0333 56.3859C50.5777 55.1155 52.0298 51.728 52.2725 50.4576C52.2725 50.2149 52.1512 50.1539 52.0305 50.1539C51.8488 50.1539 51.6068 50.0942 51.4251 50.0942C51.3648 50.0942 51.3648 50.0332 51.4251 49.9736C51.4251 49.7905 51.4251 49.6095 51.5465 49.6095C51.6671 49.6095 52.5145 49.6705 52.8169 49.6705H53.7849C53.9659 49.6705 53.9659 49.6705 53.9659 49.7315L54.0269 50.0942C54.0269 50.0942 54.0269 50.1539 53.9659 50.1539C53.3009 50.0942 53.2406 50.2149 52.6955 51.4853C52.2718 52.3334 51.1831 54.9338 50.3357 56.9906C50.2754 57.2333 49.973 57.7167 49.7913 58.2014C49.7913 58.322 49.6707 58.322 49.6096 58.322C49.428 58.322 49.3676 58.261 49.3066 58.0793C49.2463 57.8366 49.1256 57.535 48.8836 56.9296C48.7019 56.2646 47.9759 54.4498 47.3712 52.9977C46.8268 54.2681 46.2825 55.2958 45.6167 56.8089C45.4263 57.2577 45.2247 57.7016 45.0121 58.1403C45.0121 58.261 44.9517 58.322 44.9517 58.322C44.8304 58.3817 44.77 58.3817 44.6487 58.3817C44.6173 58.3797 44.5878 58.3664 44.5655 58.3441C44.5433 58.3219 44.53 58.2924 44.528 58.261C44.4677 58.0197 44.2257 57.3533 43.863 56.3852C43.5003 55.4179 42.8949 53.7848 41.8665 51.1219C41.5039 50.2752 41.4429 50.1539 40.7778 50.0942C40.6572 50.0942 40.6572 50.0332 40.6572 50.0332C40.7175 49.9736 40.7778 49.7905 40.8389 49.7309C40.8389 49.6698 40.8992 49.6698 41.0205 49.6698L43.4996 49.6705ZM63.9482 49.4888C64.1312 49.4888 64.1312 49.5499 64.1909 49.6705C64.5536 50.9409 64.8573 51.6073 65.2796 52.8167C65.7033 53.9665 66.7317 56.4463 66.9127 56.8096C67.1554 57.354 67.3364 57.5967 68.1234 57.7777C68.1831 57.7777 68.0624 58.1404 68.0014 58.2014H66.2477C65.824 58.2014 65.401 58.261 65.3399 58.261C65.2789 58.261 65.2789 58.2014 65.2193 58.2014C65.2193 58.1404 65.1582 57.8976 65.1582 57.8373C65.8233 57.657 65.8843 57.535 65.7026 57.0516C65.6416 56.8089 65.2789 55.7812 65.1582 55.3575C65.0972 55.2369 65.0362 55.1758 64.8559 55.1758C63.9468 55.1758 62.8581 55.1758 62.0724 55.2369C61.8907 55.2369 61.8907 55.2965 61.7686 55.4782C61.648 55.7209 61.2243 56.8706 61.2243 57.1723C61.2243 57.4739 61.406 57.596 61.9503 57.7777C61.9503 57.8373 61.8907 58.1403 61.8297 58.1403H59.5912C59.5316 58.0197 59.4705 57.7777 59.5316 57.7167C60.0759 57.535 60.2576 57.2333 60.5593 56.6279C60.9219 55.9019 62.4351 52.2724 63.1611 50.4576C63.2818 50.0949 63.4024 49.9132 63.4634 49.6705C63.4634 49.6095 63.4634 49.6095 63.5245 49.6095C63.6458 49.5499 63.8275 49.4888 63.9482 49.4888ZM62.3754 54.5712C62.4364 54.5712 62.7381 54.6322 63.3435 54.6322C63.9475 54.6322 64.3115 54.5712 64.6749 54.5712C64.7956 54.5712 64.7956 54.5115 64.7956 54.3895C64.2512 52.9984 64.0085 52.2113 63.5862 51.1836C63.5862 51.1226 63.5252 51.1226 63.5252 51.2447C62.8588 52.6968 62.6771 53.1191 62.1937 54.3895C62.1937 54.5115 62.2548 54.5712 62.3754 54.5712ZM75.6849 49.7912C75.6849 49.7315 75.6849 49.7315 75.7459 49.6705C76.4109 49.6705 77.0163 49.6705 77.5606 49.6095C78.2271 49.5499 78.5883 49.5499 78.8921 49.5499C79.6778 49.5499 80.4648 49.6705 81.1902 50.1539C81.7956 50.5776 82.0979 51.244 82.0979 51.848C82.0979 52.877 81.2512 53.5421 80.7679 53.8444C80.6458 53.9054 80.6458 53.9665 80.6458 54.0261C80.7068 54.2688 81.0085 55.0552 81.6139 55.9019C82.2789 56.8699 82.8843 57.415 84.034 57.9594C84.1547 58.0204 84.1547 58.08 84.1547 58.141C84.1547 58.2617 84.0951 58.4434 84.0951 58.4434C82.8843 58.3227 82.0376 57.9601 81.2505 57.234C80.6451 56.6897 80.2228 55.9636 79.7984 55.1765C79.4961 54.6322 79.2541 54.5115 78.528 54.5115C78.2257 54.5115 77.9837 54.5115 77.9226 54.5712C77.802 54.5712 77.7409 54.6322 77.7409 54.7528C77.7409 55.6606 77.7409 56.3859 77.802 57.1134C77.802 57.3547 77.8616 57.4157 77.9226 57.4746C78.0433 57.5967 78.6487 57.7174 78.9503 57.7784C78.9503 57.838 78.8907 58.0807 78.8907 58.141H76.8942C76.4095 58.141 76.1682 58.2021 76.0461 58.2021C75.8645 58.2021 75.8645 58.2021 75.8645 58.141C75.8048 58.08 75.7438 57.8373 75.7438 57.7173C76.1065 57.6577 76.4088 57.5967 76.4698 57.4746C76.6515 57.2333 76.6515 56.1446 76.6515 54.5705V53.0587V50.7592C76.5905 50.3355 76.5905 50.2759 75.7438 50.0942L75.6849 49.7912ZM80.8885 51.9097C80.8885 50.8806 80.1014 50.0949 78.9517 50.0949C78.589 50.0949 78.2271 50.0949 77.9843 50.2156C77.9233 50.2766 77.8623 50.3362 77.8623 50.4583C77.8027 50.821 77.7416 51.486 77.7416 52.6364C77.7416 53.9068 77.8027 53.9678 77.8623 54.0275H78.286C79.0731 54.0275 79.9191 53.9068 80.3435 53.4235C80.6465 52.9984 80.8885 52.454 80.8885 51.9097ZM99.765 53.9061C99.765 54.6322 99.4023 55.7819 98.4946 56.6897C97.5869 57.5364 96.9815 57.7784 96.2554 58.0211C95.5904 58.2028 95.1057 58.2028 94.198 58.2028C93.4719 58.2028 92.2015 58.1417 91.8999 58.1417H90.9318C90.8708 58.1417 90.8708 57.7791 90.8708 57.718C91.5372 57.5364 91.6579 57.4157 91.6579 57.1737C91.7189 56.146 91.7189 53.9678 91.7189 52.3937V50.5789C91.6578 50.3362 91.4762 50.2766 90.9318 50.1552C90.8708 50.1552 90.8708 50.0956 90.8708 50.0346L90.8111 49.6719H92.4442C93.3519 49.6109 93.8353 49.6109 94.5017 49.6109C95.4094 49.6109 97.1021 49.7329 98.3129 50.8217C99.2817 51.667 99.765 52.7557 99.765 53.9061ZM94.4407 50.0949C94.017 50.0949 93.1703 50.2156 92.9886 50.3362C92.9886 50.3973 92.9276 50.4583 92.9276 50.64C92.8679 51.1843 92.8679 52.3937 92.8679 53.4831C92.8679 55.4199 92.8679 56.6903 93.0482 57.3554C93.0482 57.4164 93.1092 57.476 93.2313 57.537C93.5336 57.6591 93.9573 57.7187 94.3796 57.7187C94.985 57.7187 95.8317 57.5981 96.7388 57.0537C97.8275 56.3277 98.3719 55.1779 98.3719 53.8465C98.3719 52.4554 97.7679 51.5484 97.1625 51.0033C96.2547 50.2163 95.166 50.0956 94.501 50.0956L94.4407 50.0949ZM106.843 58.4434C106.843 58.4434 106.843 58.3824 106.783 58.3227C106.722 58.2617 106.661 58.08 106.661 57.899C106.661 57.234 106.541 56.5676 106.48 55.9636C106.419 55.8416 106.419 55.8416 106.48 55.7819H106.783C106.904 55.7819 106.904 55.7819 106.965 55.9026C107.025 56.1453 107.086 56.4469 107.328 56.7493C107.75 57.3547 108.598 57.838 109.506 57.838C110.654 57.838 111.441 57.1133 111.441 56.0843C111.441 55.6009 111.26 55.2376 110.836 54.8749C110.595 54.6932 110.292 54.5122 109.263 54.0878C108.236 53.7251 107.69 53.4228 107.267 52.9381C107.024 52.6357 106.783 52.0914 106.783 51.7287C106.783 50.7606 107.267 50.2156 107.872 49.9139C108.174 49.7322 108.961 49.4902 109.808 49.4902C110.231 49.4902 110.835 49.5512 111.078 49.5512C111.26 49.6109 111.38 49.6109 111.441 49.6109C111.501 49.6109 111.622 49.4902 111.743 49.3696C111.865 49.3085 112.047 49.3696 112.106 49.3696C112.046 50.0956 112.046 50.701 112.228 51.4257C112.228 51.4867 112.228 51.5477 112.167 51.5477C112.106 51.6087 111.924 51.6684 111.804 51.6684C111.743 51.7294 111.743 51.6684 111.743 51.6087C111.622 51.185 111.502 50.701 111.139 50.398C110.835 50.1552 110.291 49.9756 109.565 49.9756C108.598 49.9756 107.932 50.5796 107.932 51.3667C107.932 51.7294 108.113 51.9721 108.294 52.2744C108.598 52.5768 109.021 52.8188 109.989 53.1822C110.896 53.6059 111.502 53.8472 111.985 54.2709C112.468 54.7542 112.65 55.2389 112.65 55.8436C112.65 56.8117 112.167 57.5377 111.502 57.9011C110.896 58.2048 109.687 58.3248 109.324 58.3248C108.734 58.3305 108.145 58.2696 107.568 58.1431H107.327C107.266 58.2042 107.144 58.2638 107.084 58.3248C107.023 58.3844 106.964 58.4455 106.903 58.4455H106.843V58.4434Z" fill="#2C6397"/>
<path fill-rule="evenodd" clip-rule="evenodd" d="M67.3371 0C68.8502 0 69.5762 1.27041 69.5762 2.42015C69.5762 3.9936 68.2448 5.02129 67.4577 5.62668C67.2164 5.80836 67.2164 5.86869 67.4577 5.92902C68.7281 6.2917 69.6359 7.44144 69.6359 9.07521C69.6359 11.8587 66.6727 14.7622 64.0099 15.67C63.6472 15.7913 63.1022 15.973 62.8005 15.973C62.3158 15.973 61.8324 15.7913 61.5897 15.5493C61.3484 15.3073 61.2874 15.0049 61.4081 14.7026C61.5301 14.4606 61.7118 14.2186 61.9524 13.9765C62.2561 13.7338 62.4968 13.6735 62.7395 13.8552C63.1022 14.0972 63.6472 14.3392 64.4932 14.3392C66.7927 14.3392 67.7004 11.6167 67.7004 9.86228C67.7615 8.28953 66.9134 7.20012 65.5819 7.20012C65.2245 7.19351 64.8712 7.27673 64.5542 7.44214C64.2519 7.56349 64.0709 7.20012 64.3129 7.07946C66.0056 6.1114 67.7615 5.32502 67.7615 3.26755C67.7615 2.05748 67.2171 1.39176 66.2484 1.39176C65.0986 1.39176 64.4336 2.42015 64.1909 2.84385C64.0092 3.08587 63.7075 3.02554 63.8282 2.72319C64.1909 1.87579 65.5223 0 67.3371 0Z" fill="black"/>
<path fill-rule="evenodd" clip-rule="evenodd" d="M75.3225 3.93257C75.3835 2.54081 74.7781 1.51242 73.387 1.51242C72.1776 1.51242 71.5112 2.66147 71.1479 3.44854C71.0272 3.75089 70.7852 3.5692 70.8455 3.26686C71.0868 2.17814 72.4183 0 74.6567 0C76.5325 0 77.3182 1.63378 77.3182 2.84385C77.3182 4.65931 76.4105 5.6877 75.4438 6.65576L72.1159 10.1646C71.8732 10.4066 71.7533 10.5273 72.0549 10.5883C72.3586 10.6487 72.7213 10.709 73.2657 10.7693C73.9307 10.8296 75.5034 11.0113 76.4715 11.0113C77.1975 11.0113 77.7419 10.951 78.1656 10.7083C78.4069 10.5266 78.5879 10.7686 78.3473 10.9503C77.6212 11.616 77.0159 12.4024 75.0194 12.4024C74.2323 12.4024 73.3863 12.3421 72.6603 12.281C71.6922 12.1604 70.5418 12.039 69.9974 12.039C69.6951 12.039 69.3934 12.0994 69.2118 12.1597C68.969 12.2804 68.727 12.0994 69.0301 11.8573C69.4524 11.494 70.1188 11.0099 70.6028 10.5869C73.0847 8.46983 75.3225 5.86869 75.3225 3.93257ZM79.7391 4.17459C79.7391 4.4166 79.6184 4.96096 79.4977 5.74734C79.4977 5.80767 79.5574 5.80767 79.6184 5.74734C79.9811 5.02129 80.7681 4.23492 80.9498 4.11426C81.1315 3.9936 81.4942 3.63023 81.7355 3.63023C82.0392 3.63023 82.0392 4.4166 81.8575 5.02129C81.7355 5.62668 81.6148 6.35203 81.4339 7.07807C81.3728 7.62243 81.4339 7.68276 81.7362 7.44075C81.8583 7.38042 81.9789 7.25906 82.0399 7.13771C82.1606 7.07738 82.2216 7.13771 82.1606 7.25906C81.5552 8.10646 80.8902 8.65082 80.7695 8.65082C80.6475 8.65082 80.5268 8.34778 80.7085 7.68276C80.8292 7.01774 81.0108 6.17034 81.1322 5.50463C81.2529 4.83961 81.2529 4.47624 81.0101 4.47624C80.7078 4.47624 80.0428 5.4443 79.7397 5.92833C79.4984 6.35203 79.3771 6.65437 79.3174 6.89639C79.2564 7.19873 79.1954 7.62243 79.0747 7.98511C79.0137 8.22712 78.9527 8.34778 78.893 8.40881C78.832 8.46914 78.5304 8.71115 78.4083 8.71115C78.3487 8.71115 78.3487 8.59049 78.3487 8.40881C78.7114 7.07807 78.832 6.11001 78.9527 5.26261C79.0137 4.77858 78.9527 4.71825 78.7724 4.77858C78.6503 4.83891 78.4686 5.0206 78.2877 5.14126C78.228 5.26261 78.167 5.14126 78.228 5.08093C78.5304 4.5969 79.3764 3.62884 79.5581 3.62884C79.7397 3.62884 79.7391 3.99359 79.7391 4.17459ZM85.5467 3.69056C85.6077 3.69056 85.6077 3.69056 85.6077 3.63023C85.7298 3.1462 85.7894 2.54081 85.9115 1.57275C85.9711 1.21008 85.9711 1.14975 85.8505 1.14975H85.1854C85.0634 1.14975 85.1244 1.02839 85.1854 1.02839C85.7298 0.846707 86.3338 0.605385 86.5765 0.423007C86.6361 0.362676 86.7582 0.362678 86.8192 0.362678C86.8788 0.362678 86.8788 0.54436 86.8192 0.785682C86.5765 1.93543 86.3955 2.84246 86.2138 3.75019C85.9115 5.56565 85.7901 6.59404 85.7305 7.44075C85.7305 7.62243 85.7901 7.74379 85.8511 7.74379C85.9122 7.74379 86.2748 7.50177 86.5162 7.25976C86.5772 7.1384 86.6978 7.25976 86.6368 7.38042C86.2755 7.86445 85.4885 8.65152 85.2458 8.65152C85.1861 8.65152 84.9434 8.53016 85.0031 7.68346C85.0641 7.32078 85.1251 6.95741 85.1861 6.7154C85.1861 6.59404 85.1251 6.59404 85.0641 6.65507C84.8214 7.1391 84.2174 7.86514 83.9143 8.16749C83.7326 8.4095 83.431 8.65152 83.2493 8.65152C82.947 8.65152 82.766 8.10715 82.766 7.44144C82.766 6.35272 83.0683 5.38466 83.6737 4.65862C84.0364 4.17459 84.7014 3.63023 85.1868 3.63023C85.3054 3.63023 85.4261 3.63023 85.5467 3.69056ZM83.793 7.80481C84.0967 7.80481 84.8207 6.77642 85.0634 6.29239C85.1854 5.99005 85.2451 5.86869 85.3061 5.50602C85.3671 5.14334 85.4268 4.77997 85.4268 4.59829C85.4878 4.47762 85.4878 4.4166 85.3671 4.4166C85.2451 4.29525 85.0031 4.23492 84.7617 4.23492C84.3991 4.23492 84.2174 4.35558 84.0357 4.59759C83.793 4.83961 83.4913 5.74734 83.4913 6.83606C83.4906 7.44144 83.6113 7.80481 83.793 7.80481Z" fill="black"/>
</svg>
