<svg width="262" height="55" viewBox="0 0 262 55" fill="none" xmlns="http://www.w3.org/2000/svg">
<path d="M16.4839 5.47002L22.3769 21.9072L14.3657 44.1934C13.2251 47.3888 14.2842 50.8008 16.7555 52.913C15.6964 52.0193 14.8545 50.8549 14.3385 49.501L0.461471 10.7776C-1.0593 6.55319 1.30333 1.89555 5.70271 0.43327C6.59888 0.135398 7.54936 0 8.44553 0C11.9759 0 15.289 2.11219 16.4839 5.47002ZM50.1853 21.8259L50.1582 21.9072L42.1741 44.1934C41.5767 45.8723 41.5767 47.5783 42.0655 49.1489L36.3083 33.118L44.3195 10.8046C44.9713 8.93617 44.9169 6.98646 44.2109 5.28046C44.2652 5.3617 44.2923 5.41586 44.3195 5.4971L49.0448 18.7118L50.1853 21.8259Z" fill="#75C4DC"/>
<path d="M80.7094 54.5377C76.31 56 71.449 53.7254 69.9282 49.501L65.6375 37.559L74.4362 12.0774L85.9778 44.2205C87.4986 48.4178 85.1088 53.0755 80.7094 54.5377Z" fill="#DED249"/>
<path d="M30.3881 44.1935L22.3769 21.9072L14.3657 44.1935C13.2251 47.3889 14.2842 50.8008 16.7555 52.913C16.9184 53.0484 17.1085 53.1838 17.2715 53.3192C17.4615 53.4275 17.6245 53.5629 17.8146 53.6713C18.0047 53.7796 18.1948 53.8879 18.412 53.9962C18.5478 54.0774 18.7108 54.1316 18.8465 54.2128C18.9552 54.267 19.0909 54.3212 19.2267 54.3482C19.3897 54.4024 19.5255 54.4565 19.6612 54.5107C19.7156 54.5378 19.7699 54.5649 19.8513 54.5649C21.5894 55.1065 23.3545 55.0794 24.9839 54.5649C25.0383 54.5649 25.0926 54.5378 25.174 54.5107C25.3098 54.4565 25.4728 54.4295 25.6085 54.3482C25.7715 54.2941 25.9073 54.2399 26.0431 54.1857C26.1788 54.1316 26.3146 54.0774 26.4504 53.9962C26.6405 53.8879 26.8306 53.7796 27.0479 53.6713C27.2108 53.5629 27.4009 53.4546 27.5638 53.3463C27.7539 53.2109 27.9169 53.0755 28.0798 52.913C30.4696 50.8008 31.5287 47.3618 30.3881 44.1935Z" fill="#4CA3CB"/>
<path d="M28.297 10.7772L36.3082 33.0906L30.4152 49.4735C30.3066 49.7714 30.1436 50.0151 30.0079 50.2859C30.9312 48.4445 31.1213 46.2511 30.3881 44.166L22.3768 21.8797L28.2698 5.44259C28.3241 5.30719 28.3785 5.17179 28.4328 5.06348C27.7267 6.85071 27.6181 8.85457 28.297 10.7772Z" fill="#75C4DC"/>
<path d="M44.2112 5.25338C44.2112 5.2263 44.2112 5.22631 44.184 5.19923C44.1026 4.95552 43.9939 4.73888 43.8853 4.52225C43.7224 4.22437 43.5323 3.9265 43.3422 3.62862C43.315 3.57447 43.2607 3.52031 43.2336 3.43907C43.1521 3.30368 43.0435 3.19535 42.9348 3.05996C42.9077 3.0058 42.8805 2.97872 42.8534 2.92456C42.7176 2.78916 42.5546 2.59961 42.4189 2.46422L42.3645 2.41006C42.2831 2.30174 42.1744 2.2205 42.0658 2.13926C41.9572 2.03095 41.8214 1.92263 41.6856 1.84139C41.5227 1.70599 41.3597 1.5706 41.1696 1.46228C40.9524 1.32688 40.708 1.16441 40.4636 1.05609C40.3006 0.974853 40.1377 0.866538 39.9748 0.812379C39.7032 0.676983 39.4045 0.568669 39.1057 0.460351C39.0786 0.433272 39.0514 0.43327 39.0243 0.43327C38.7527 0.352033 38.4811 0.297869 38.1824 0.216631H38.1281C37.5035 0.0812346 36.8789 0 36.2543 0C35.9284 0 35.6025 0.0270826 35.2766 0.0541619C34.9508 0.0812412 34.6249 0.1354 34.299 0.189558C34.0818 0.243717 33.8645 0.297871 33.6744 0.379109C33.6201 0.379109 33.5386 0.406191 33.4843 0.43327C33.1584 0.541588 32.8597 0.649903 32.561 0.812379C32.4524 0.866538 32.3166 0.9207 32.2079 1.00194C32.0993 1.0561 31.9635 1.13733 31.8549 1.21857C31.529 1.40812 31.2031 1.62476 30.8773 1.86847C30.823 1.89555 30.7958 1.92263 30.7686 1.94971L30.66 2.05803H30.6329C30.4699 2.19343 30.307 2.32882 30.1712 2.46422C29.7095 2.89749 29.3293 3.41199 29.0035 3.95358C28.7862 4.30561 28.5961 4.68472 28.4332 5.06383C27.6999 6.82399 27.5913 8.82786 28.2702 10.7505L36.2814 33.0638L44.2927 10.7505C44.9716 8.90909 44.9173 6.95938 44.2112 5.25338ZM59.2017 46.793L58.9844 47.4159L58.8486 47.795L58.3055 49.2843L58.2512 49.4739C58.224 49.528 58.1969 49.5822 58.1697 49.6634L58.0068 50.0696C57.9525 50.205 57.871 50.3404 57.7895 50.4758C57.7352 50.6112 57.6537 50.7466 57.5723 50.8549C57.4365 51.0716 57.3007 51.2882 57.1378 51.4777C57.0835 51.559 57.002 51.6402 56.9205 51.7215C56.8934 51.7756 56.8662 51.8027 56.839 51.8298C56.8119 51.8839 56.7847 51.911 56.7576 51.9381C56.6761 52.0464 56.5675 52.1547 56.486 52.2089L56.0787 52.6151H56.0515L55.8342 52.8317C55.7528 52.8859 55.6441 52.9671 55.5627 53.0484C55.3997 53.1838 55.2368 53.2921 55.0467 53.4275C54.8838 53.5358 54.6937 53.6441 54.5036 53.7524C54.3135 53.8607 54.1234 53.969 53.9333 54.0503H53.9061C53.5802 54.2128 53.2815 54.3482 52.9285 54.4565C52.6298 54.5377 52.3582 54.646 52.0595 54.6731H52.0323C51.9508 54.7002 51.8422 54.7273 51.7336 54.7273C51.6521 54.7543 51.5706 54.7543 51.4892 54.7814C51.462 54.8085 51.4349 54.8085 51.4349 54.8085C51.3806 54.8085 51.3534 54.8356 51.2719 54.8356C51.2176 54.8627 51.1633 54.8627 51.109 54.8627C51.0004 54.8897 50.8646 54.8897 50.7559 54.8897C50.2943 54.9439 49.8598 54.9439 49.4253 54.8897C49.2623 54.8627 49.1266 54.8627 48.9636 54.8356C48.8821 54.8356 48.8007 54.8085 48.7192 54.8085C48.5291 54.7544 48.3662 54.7273 48.2032 54.7002C48.0946 54.6731 47.9588 54.646 47.8502 54.619C47.6872 54.5648 47.5243 54.5106 47.3614 54.4836C47.1441 54.4023 46.9269 54.3482 46.7096 54.2398C46.5195 54.1586 46.3294 54.0503 46.1122 53.969H46.085L45.9221 53.8878C45.8406 53.8607 45.732 53.8066 45.6777 53.7524C45.6233 53.7253 45.569 53.6712 45.5147 53.6441H45.4876C45.4604 53.617 45.4061 53.5899 45.3789 53.5629C45.3246 53.5358 45.2975 53.5087 45.2703 53.4816C45.1888 53.4275 45.0802 53.3733 44.9716 53.2921C44.8901 53.2379 44.8086 53.1837 44.7272 53.1025C44.6457 53.0483 44.5371 52.9671 44.4556 52.8859C44.2927 52.7505 44.1297 52.6151 43.9939 52.4526C43.9668 52.4255 43.9396 52.3714 43.9125 52.3443C43.9125 52.3443 43.9125 52.3172 43.8853 52.3172C43.8853 52.3172 43.8582 52.3172 43.8582 52.2901C43.8582 52.263 43.8582 52.2631 43.831 52.2631L43.8038 52.236L43.7495 52.1818C43.6681 52.1006 43.5866 52.0464 43.5323 51.9381C43.478 51.8839 43.4508 51.8298 43.3693 51.7756C43.315 51.7215 43.2879 51.6673 43.2607 51.6402C43.2064 51.5861 43.1792 51.5319 43.1249 51.4507C43.0435 51.3694 42.9891 51.2611 42.9348 51.1799C42.8534 51.0716 42.7719 50.9362 42.7176 50.8279C42.7176 50.8279 42.7176 50.8008 42.6904 50.8008C42.6633 50.7466 42.6361 50.6925 42.5818 50.6112C42.5546 50.5571 42.5275 50.5029 42.5003 50.4217C42.4189 50.2863 42.3374 50.1509 42.2831 50.0155L42.1201 49.6093C42.093 49.5551 42.0658 49.501 42.0387 49.4197C42.0115 49.3656 41.9843 49.3114 41.9572 49.2302C41.93 49.2031 41.93 49.176 41.93 49.1489C41.93 49.1219 41.9029 49.1218 41.9029 49.0948V49.1489C41.4141 47.5783 41.4141 45.8723 42.0115 44.1934L49.9956 21.9072L50.0227 21.8259L50.0499 21.853L57.4365 42.4333L58.0611 44.1934L59.2017 46.793Z" fill="#4CA3CB"/>
<path d="M72.1555 8.3675C72.1555 8.93617 72.1012 9.53191 71.9654 10.1006L65.8551 27.8646L64.0628 33.0909L63.2753 35.3927L63.1123 35.8801L62.4877 37.6944L62.4062 37.9652L61.2657 41.1605L59.935 44.8162L59.9078 44.7892V44.7621L51.1091 19.3346L51.0819 19.2805L55.9701 5.68665L56.0516 5.47002C56.2688 4.8472 56.5676 4.25145 56.9478 3.70987C57.1107 3.49323 57.2465 3.30367 57.4094 3.08704C57.6538 2.78917 57.9254 2.49129 58.2241 2.24758H58.2513L58.7401 1.84139C58.903 1.70599 59.066 1.59768 59.2561 1.46228C59.3375 1.40812 59.419 1.38104 59.4733 1.32688C59.6906 1.19149 59.935 1.05609 60.1794 0.920695C60.2337 0.893615 60.3152 0.839458 60.3966 0.812379C60.5053 0.75822 60.5867 0.731141 60.6954 0.676983C60.9126 0.568665 61.1299 0.487427 61.3471 0.40619C61.6459 0.324952 61.9446 0.216638 62.2161 0.189558C62.4334 0.1354 62.6235 0.108314 62.8408 0.0812346H62.8679C63.0852 0.0541553 63.2753 0.027081 63.4925 0.027081C63.7098 1.65239e-06 63.9542 0 64.1714 0C64.3615 0 64.5516 1.65239e-06 64.7417 0.027081C64.7689 1.65239e-06 64.7689 0.027081 64.7689 0.027081C65.3935 0.0812396 65.9909 0.216636 66.5884 0.43327C69.983 1.62476 72.1555 4.87427 72.1555 8.3675Z" fill="#DED249"/>
<path d="M59.9074 44.8161L59.2013 46.7929L58.2237 44.1933L57.5991 42.4332L50.2125 21.8529L50.1853 21.8258L51.0815 19.3074L51.1086 19.3345L59.8802 44.762V44.7891L59.9074 44.8161ZM133.393 2.32872H129.374L124.513 17.0599L118.674 2.32872H114.954L117.126 7.82582L113.325 17.4931L108.029 2.32872H103.657L112.863 26.2127L119 12.5105L124.432 26.1585L133.393 2.32872ZM145.071 12.7813C143.876 11.7252 142.355 11.1836 140.481 11.1836C139.096 11.1836 137.82 11.5086 136.679 12.1314C135.539 12.7813 134.615 13.6208 133.936 14.704C133.258 15.7871 132.905 16.9786 132.905 18.3055C132.905 19.6866 133.203 20.9322 133.801 22.0154C134.398 23.0985 135.267 23.938 136.381 24.5608C137.494 25.1566 138.852 25.4815 140.427 25.4815C141.214 25.4815 142.002 25.3461 142.844 25.0753C143.686 24.8045 144.446 24.4525 145.125 24.0192L143.496 21.3655C143.061 21.6904 142.572 21.9341 142.083 22.1237C141.595 22.3132 141.052 22.3945 140.508 22.3945C139.368 22.3945 138.417 22.0154 137.657 21.2572C137.494 21.0947 137.358 20.9051 137.222 20.7156L147.488 17.2494C147.08 15.3539 146.293 13.8374 145.071 12.7813ZM136.489 18.143C136.489 16.9245 136.842 15.9225 137.521 15.1643C138.2 14.4061 139.123 14.027 140.237 14.027C141.16 14.027 141.866 14.2707 142.382 14.731C142.844 15.1643 143.197 15.6788 143.414 16.2475L136.516 18.7117C136.516 18.5221 136.489 18.3326 136.489 18.143ZM150.937 0.541485H154.548V25.1566H150.937V0.541485ZM159.355 0.541485H162.967V25.1566H159.355V0.541485ZM179.967 12.0231C178.989 11.4815 177.903 11.1836 176.735 11.1836C175.54 11.1836 174.454 11.3732 173.531 11.7523C172.635 12.1314 171.902 12.5918 171.358 13.1604V0.514404H167.801V25.1295H171.413V23.3423C171.929 23.9109 172.499 24.3983 173.205 24.7775C174.047 25.2378 175.079 25.4815 176.274 25.4815C177.523 25.4815 178.664 25.1836 179.723 24.5879C180.782 23.9922 181.624 23.1798 182.275 22.0966C182.927 21.0134 183.226 19.7136 183.226 18.1972C183.226 16.7349 182.927 15.4622 182.33 14.4061C181.732 13.3771 180.972 12.5918 179.967 12.0231ZM179.017 20.3906C178.664 21.0405 178.175 21.5279 177.55 21.9071C176.925 22.2862 176.247 22.4757 175.486 22.4757C174.481 22.4757 173.612 22.232 172.906 21.7175C172.2 21.203 171.711 20.5531 171.413 19.7407V16.7891C171.657 15.9496 172.173 15.2726 172.906 14.7852C173.64 14.2978 174.509 14.0541 175.486 14.0541C176.247 14.0541 176.925 14.2436 177.55 14.5956C178.175 14.9748 178.664 15.4622 179.017 16.085C179.37 16.7078 179.56 17.439 179.56 18.2513C179.56 19.0096 179.37 19.7407 179.017 20.3906ZM197.999 12.7813C196.804 11.7252 195.283 11.1836 193.41 11.1836C192.025 11.1836 190.748 11.5086 189.608 12.1314C188.467 12.7813 187.544 13.6208 186.865 14.704C186.186 15.7871 185.833 16.9786 185.833 18.3055C185.833 19.6866 186.132 20.9322 186.729 22.0154C187.327 23.0985 188.196 23.938 189.309 24.5608C190.422 25.1566 191.78 25.4815 193.355 25.4815C194.143 25.4815 194.93 25.3461 195.772 25.0753C196.614 24.8045 197.374 24.4525 198.053 24.0192L196.424 21.3655C195.989 21.6904 195.501 21.9341 195.012 22.1237C194.523 22.3132 193.98 22.3945 193.437 22.3945C192.296 22.3945 191.346 22.0154 190.585 21.2572C190.422 21.0947 190.287 20.9051 190.151 20.7156L200.416 17.2494C200.009 15.3539 199.194 13.8374 197.999 12.7813ZM189.418 18.143C189.418 16.9245 189.771 15.9225 190.45 15.1643C191.128 14.4061 192.052 14.027 193.165 14.027C194.089 14.027 194.795 14.2707 195.311 14.731C195.772 15.1643 196.125 15.6788 196.342 16.2475L189.445 18.7117C189.445 18.5221 189.418 18.3326 189.418 18.143ZM203.865 11.7794H207.477V25.1295H203.865V11.7794ZM205.739 5.0908C205.223 5.0908 204.761 5.28036 204.327 5.63239C203.892 6.0115 203.675 6.44477 203.675 7.01344C203.675 7.5821 203.892 8.04245 204.327 8.39448C204.761 8.74651 205.223 8.90899 205.739 8.90899C206.255 8.90899 206.716 8.74651 207.124 8.39448C207.531 8.04245 207.748 7.5821 207.748 7.01344C207.748 6.47185 207.531 6.0115 207.124 5.63239C206.716 5.25328 206.255 5.0908 205.739 5.0908ZM221.055 11.2378C219.779 11.2378 218.665 11.5086 217.742 12.0773C216.846 12.6189 216.194 13.3229 215.76 14.2165L215.515 11.8065H212.256V25.1566H215.868V19.2533C215.868 17.791 216.221 16.5995 216.9 15.6788C217.606 14.731 218.475 14.2707 219.589 14.2707C220.349 14.2978 220.892 14.5144 221.272 14.9206C221.625 15.3268 221.815 15.8684 221.843 16.5183V25.1566H225.454V15.2455C225.427 14.0541 225.02 13.0792 224.178 12.3481C223.363 11.5898 222.331 11.2378 221.055 11.2378ZM241.531 11.7794L241.26 13.2958C240.825 12.7001 240.173 12.1856 239.277 11.8065C238.354 11.4003 237.322 11.1836 236.127 11.1836C234.932 11.1836 233.792 11.4815 232.732 12.1044C231.673 12.7272 230.804 13.5666 230.153 14.6498C229.501 15.733 229.175 16.9786 229.175 18.3867C229.175 19.7407 229.474 20.9322 230.098 22.0154C230.723 23.0985 231.538 23.938 232.57 24.5608C233.601 25.1837 234.742 25.4815 235.964 25.4815C237.376 25.4815 238.544 25.1836 239.494 24.615C240.309 24.1276 240.879 23.5318 241.26 22.8548V25.1566C241.232 26.2397 240.852 27.1063 240.065 27.7291C239.277 28.3519 238.245 28.6769 236.942 28.6769C235.991 28.6769 235.177 28.4873 234.498 28.1082C233.819 27.7291 233.167 27.2688 232.542 26.7001L230.424 29.1643C230.94 29.6247 231.51 30.0579 232.108 30.4641C232.705 30.8703 233.384 31.1953 234.172 31.4661C234.959 31.7368 235.91 31.8722 236.996 31.8722C238.544 31.8722 239.902 31.5744 241.07 30.9786C242.237 30.3829 243.188 29.5976 243.84 28.5956C244.518 27.5937 244.844 26.4835 244.844 25.2378V11.8065L241.531 11.7794ZM239.685 21.7987C238.951 22.2862 238.055 22.5299 237.023 22.5299C236.236 22.5299 235.53 22.3403 234.905 21.9883C234.28 21.6092 233.764 21.1218 233.384 20.4719C233.004 19.8219 232.814 19.0908 232.814 18.2784C232.814 17.466 233.004 16.7349 233.384 16.1121C233.764 15.4893 234.28 15.0018 234.905 14.6498C235.53 14.2978 236.236 14.1082 237.023 14.1082C238.055 14.1082 238.951 14.3519 239.712 14.8664C240.472 15.3809 240.988 16.0308 241.26 16.8432V19.7678C240.934 20.6343 240.418 21.3113 239.685 21.7987Z" fill="#75C4DC"/>
<path d="M113.27 30.0852L103.195 53.6442H106.834L109.007 48.3908H117.208L119.272 53.6442H123.536L113.46 30.0852H113.27ZM110.31 45.2496L113.216 38.2089L115.986 45.2496H110.31ZM137.956 47.6326L134.86 40.4565H131.791L132.687 42.4062L130.515 47.3618L127.473 40.4565H123.997L130.08 54.4295L133.937 45.5475L138.2 54.4295L144.202 40.4565H140.753L137.956 47.6326ZM156.911 42.2438C156.449 41.6209 155.879 41.0794 155.173 40.619C154.413 40.1316 153.381 39.8608 152.077 39.8608C150.909 39.8608 149.823 40.1587 148.818 40.7273C147.814 41.296 146.999 42.1354 146.374 43.2186C145.75 44.3018 145.451 45.5745 145.451 47.0368C145.451 48.5803 145.75 49.8531 146.347 50.8821C146.945 51.9111 147.732 52.6693 148.737 53.1838C149.742 53.6983 150.882 53.9691 152.132 53.9691C152.892 53.9691 153.571 53.8608 154.195 53.6171C154.793 53.3734 155.309 53.1026 155.743 52.7776C156.178 52.4527 156.504 52.1548 156.748 51.884C156.802 51.8028 156.857 51.7486 156.911 51.6945V53.6442H160.469V40.4836H157.183L156.911 42.2438ZM155.499 50.3405C154.847 50.8279 154.032 51.0445 153.082 51.0445C152.376 51.0445 151.724 50.855 151.1 50.503C150.475 50.1509 149.986 49.6364 149.606 49.0136C149.226 48.3908 149.036 47.6596 149.036 46.8473C149.036 46.0349 149.226 45.3308 149.579 44.708C149.932 44.0852 150.393 43.5977 150.991 43.2728C151.588 42.9208 152.24 42.7583 152.946 42.7583C153.897 42.7583 154.739 43.002 155.445 43.5165C156.151 44.0039 156.64 44.6538 156.884 45.4391V48.3366C156.612 49.2032 156.151 49.8801 155.499 50.3405ZM170.164 41.621C169.566 42.1625 169.077 42.8124 168.697 43.5436L168.426 40.4565H165.248V53.6442H168.779V48.0117C168.779 47.1993 168.996 46.4411 169.403 45.7099C169.811 44.9788 170.381 44.383 171.114 43.9498C171.847 43.5165 172.689 43.3269 173.694 43.4082L173.884 39.8879C173.45 39.8879 172.879 40.0503 172.2 40.3482C171.494 40.619 170.815 41.0523 170.164 41.621ZM187.408 41.8647C186.892 41.2418 186.24 40.7544 185.426 40.4295C184.557 40.0774 183.633 39.8879 182.683 39.8879C181.379 39.8879 180.184 40.1587 179.152 40.7002C178.093 41.2418 177.279 42.0542 176.654 43.0832C176.029 44.1122 175.731 45.385 175.731 46.8473C175.731 48.3095 176.002 49.5552 176.6 50.6384C177.17 51.7215 177.958 52.5339 178.908 53.1297C179.886 53.6983 180.999 53.9962 182.248 53.9962C183.416 53.9962 184.448 53.7525 185.371 53.2921C186.159 52.8859 186.811 52.4256 187.381 51.884V53.6712H190.966V29.3811H187.408V41.8647ZM183.362 51.0175C182.656 51.0175 182.004 50.8279 181.379 50.4488C180.755 50.0697 180.266 49.5823 179.886 48.9324C179.505 48.2825 179.315 47.5784 179.315 46.8202C179.315 46.0078 179.505 45.3037 179.886 44.6809C180.266 44.0581 180.755 43.5707 181.379 43.2186C182.004 42.8666 182.656 42.677 183.362 42.677C184.339 42.677 185.208 42.9208 185.942 43.4353C186.675 43.9498 187.164 44.5997 187.381 45.385V48.2012C187.082 49.0678 186.593 49.7447 185.914 50.2592C185.208 50.7467 184.366 51.0175 183.362 51.0175ZM201.828 45.6828C201.339 45.5204 200.878 45.3579 200.389 45.2225C199.9 45.0871 199.52 44.8705 199.221 44.6267C198.922 44.383 198.76 44.0581 198.76 43.6248C198.76 43.2186 198.95 42.9208 199.33 42.65C199.71 42.4062 200.199 42.2979 200.742 42.2979C201.149 42.325 201.611 42.4333 202.1 42.6229C202.589 42.8124 203.05 43.0832 203.403 43.4353L204.761 41.3231C204.109 40.8086 203.43 40.4295 202.67 40.2128C201.91 39.9962 201.041 39.8879 200.063 39.8879C198.95 39.8879 197.999 40.1045 197.266 40.5107C196.533 40.9169 195.99 41.4585 195.637 42.0813C195.283 42.7041 195.121 43.3811 195.121 44.0581C195.121 44.9517 195.392 45.737 195.962 46.4411C196.533 47.1451 197.375 47.6596 198.515 48.0117C199.004 48.1471 199.493 48.3095 199.954 48.472C200.416 48.6345 200.796 48.824 201.068 49.0678C201.339 49.3115 201.502 49.6364 201.502 50.0426C201.502 50.53 201.285 50.9091 200.878 51.1258C200.443 51.3424 199.954 51.4507 199.357 51.4507C198.868 51.4507 198.325 51.3153 197.728 51.0445C197.157 50.7738 196.56 50.3676 195.99 49.826L194.496 51.8028C195.121 52.4797 195.881 52.9672 196.777 53.3463C197.673 53.6983 198.651 53.8879 199.656 53.8879C200.851 53.8879 201.855 53.6712 202.67 53.2651C203.458 52.8318 204.055 52.2902 204.435 51.6132C204.815 50.9362 205.006 50.178 205.006 49.3656C205.006 48.3366 204.707 47.5513 204.082 46.9827C203.566 46.4411 202.779 46.0078 201.828 45.6828ZM222.413 49.4469C223.065 48.6345 223.608 47.8221 224.015 46.9827C224.423 46.1432 224.667 45.2767 224.667 44.383C224.667 43.5707 224.477 42.8395 224.097 42.1625C223.717 41.4856 223.173 40.944 222.494 40.5107C221.816 40.0774 221.028 39.8879 220.078 39.8879C218.964 39.8879 218.041 40.1045 217.253 40.5378C216.466 40.971 215.895 41.5126 215.488 42.1896C215.081 42.8666 214.891 43.5977 214.891 44.356C214.891 44.6809 214.945 45.0871 215.081 45.5745C215.216 46.062 215.407 46.4952 215.678 46.9014C215.95 47.3076 216.248 47.6325 216.601 47.8221L218.149 46.4411C217.905 46.1703 217.688 45.8724 217.552 45.4933C217.416 45.1413 217.335 44.7351 217.335 44.2747C217.335 43.9768 217.416 43.679 217.579 43.3811C217.742 43.0832 217.986 42.8124 218.339 42.5958C218.693 42.3792 219.1 42.2708 219.643 42.2708C220.077 42.2708 220.485 42.3521 220.838 42.5146C221.191 42.677 221.49 42.9478 221.707 43.2728C221.924 43.5977 222.033 44.0581 222.033 44.5726C222.033 45.2496 221.843 45.9536 221.462 46.6848C221.082 47.4159 220.593 48.1741 219.942 48.9324C219.29 49.6906 218.557 50.503 217.742 51.3424C216.927 52.1548 216.085 53.0213 215.216 53.9149H224.966V51.5049H220.621C221.245 50.855 221.843 50.1509 222.413 49.4469ZM235.557 40.7002C234.661 40.1587 233.683 39.8879 232.57 39.8879C231.429 39.8879 230.397 40.1045 229.501 40.5919C228.605 41.0794 227.926 41.8376 227.437 42.8666C226.948 43.8956 226.704 45.2496 226.704 46.9285C226.704 48.4449 226.948 49.7177 227.464 50.7738C227.98 51.8298 228.686 52.6151 229.555 53.1567C230.424 53.6983 231.429 53.9691 232.57 53.9691C233.683 53.9691 234.688 53.6983 235.557 53.1838C236.426 52.6693 237.132 51.884 237.648 50.8279C238.164 49.7718 238.408 48.472 238.408 46.9014C238.408 45.385 238.164 44.1122 237.648 43.0562C237.132 42.0271 236.453 41.2418 235.557 40.7002ZM235.475 49.3115C235.258 50.0155 234.905 50.5842 234.416 50.9904C233.927 51.3966 233.303 51.5861 232.542 51.5861C231.782 51.5861 231.157 51.3695 230.696 50.9904C230.234 50.6113 229.854 50.0155 229.637 49.3115C229.419 48.6074 229.311 47.795 229.311 46.9285C229.311 46.0078 229.419 45.2225 229.637 44.5184C229.854 43.8144 230.207 43.2728 230.696 42.8666C231.185 42.4604 231.782 42.2708 232.542 42.2708C233.303 42.2708 233.927 42.4604 234.416 42.8666C234.905 43.2728 235.258 43.8144 235.475 44.4914C235.693 45.1683 235.801 45.9807 235.801 46.8743C235.828 47.795 235.693 48.6074 235.475 49.3115ZM247.451 49.4469C248.103 48.6345 248.646 47.8221 249.054 46.9827C249.461 46.1432 249.705 45.2767 249.705 44.383C249.705 43.5707 249.515 42.8395 249.135 42.1625C248.755 41.4856 248.212 40.944 247.533 40.5107C246.854 40.0774 246.066 39.8879 245.116 39.8879C244.003 39.8879 243.079 40.1045 242.292 40.5378C241.504 40.971 240.934 41.5126 240.526 42.1896C240.119 42.8666 239.929 43.5977 239.929 44.356C239.929 44.6809 239.983 45.0871 240.119 45.5745C240.255 46.062 240.445 46.4952 240.717 46.9014C240.988 47.3076 241.287 47.6325 241.64 47.8221L243.188 46.4411C242.943 46.1703 242.726 45.8724 242.59 45.4933C242.455 45.1413 242.373 44.7351 242.373 44.2747C242.373 43.9768 242.455 43.679 242.618 43.3811C242.78 43.0832 243.025 42.8124 243.378 42.5958C243.731 42.3792 244.138 42.2708 244.681 42.2708C245.116 42.2708 245.523 42.3521 245.876 42.5146C246.229 42.677 246.528 42.9478 246.745 43.2728C246.963 43.5977 247.071 44.0581 247.071 44.5726C247.071 45.2496 246.881 45.9536 246.501 46.6848C246.121 47.4159 245.632 48.1741 244.98 48.9324C244.328 49.6906 243.595 50.503 242.78 51.3424C241.966 52.1548 241.124 53.0213 240.255 53.9149H250.004V51.5049H245.659C246.311 50.855 246.881 50.1509 247.451 49.4469ZM257.554 51.5591C258.151 50.855 258.749 50.1509 259.292 49.4739C259.943 48.6616 260.487 47.8492 260.894 47.0097C261.301 46.1703 261.546 45.3037 261.546 44.4101C261.546 43.5977 261.356 42.8666 260.975 42.1896C260.595 41.5126 260.052 40.971 259.373 40.5378C258.694 40.1045 257.907 39.915 256.956 39.915C255.843 39.915 254.92 40.1316 254.132 40.5649C253.344 40.9981 252.774 41.5397 252.367 42.2167C251.959 42.8937 251.769 43.6248 251.769 44.383C251.769 44.708 251.824 45.1142 251.959 45.6016C252.095 46.089 252.285 46.5223 252.557 46.9285C252.828 47.3347 253.127 47.6596 253.48 47.8492L255.028 46.4681C254.784 46.1973 254.566 45.8995 254.431 45.5204C254.295 45.1683 254.213 44.7621 254.213 44.3018C254.213 44.0039 254.295 43.7061 254.458 43.4082C254.621 43.1103 254.865 42.8395 255.218 42.6229C255.571 42.4063 255.979 42.2979 256.522 42.2979C256.956 42.2979 257.364 42.3792 257.717 42.5416C258.07 42.7041 258.368 42.9749 258.586 43.2999C258.803 43.6248 258.912 44.0852 258.912 44.5997C258.912 45.2767 258.721 45.9807 258.341 46.7119C257.961 47.443 257.472 48.2012 256.82 48.9594C256.169 49.7177 255.436 50.53 254.621 51.3695C253.806 52.1819 252.964 53.0484 252.095 53.942H261.844V51.532L257.554 51.5591Z" fill="#DED249"/>
</svg>
