<svg width="166" height="54" viewBox="0 0 166 54" fill="none" xmlns="http://www.w3.org/2000/svg">
<path d="M166 48.587C166 49.2983 165.876 50.0027 165.636 50.6598C165.396 51.3169 165.044 51.9138 164.6 52.4166C164.156 52.9193 163.629 53.3179 163.049 53.5896C162.469 53.8613 161.847 54.0007 161.22 54H4.78642C3.51852 54.0015 2.30201 53.4321 1.40442 52.417C0.506824 51.4019 0.00165237 50.0242 0 48.587V5.42007C0.00165162 3.98217 0.506623 2.60379 1.40404 1.58757C2.30145 0.571354 3.51795 0.000373234 4.78642 0H161.219C161.846 -2.42084e-08 162.468 0.140204 163.048 0.412606C163.628 0.685007 164.155 1.08427 164.599 1.58759C165.043 2.09091 165.395 2.68842 165.635 3.34601C165.875 4.00359 165.999 4.70836 165.999 5.42007L166 48.587Z" fill="#252525"/>
<path d="M41.6512 26.5288C41.61 21.9765 45.402 19.7618 45.5753 19.6587C43.4278 16.5471 40.0992 16.122 38.9294 16.0881C36.1338 15.7957 33.422 17.7505 31.9978 17.7505C30.5453 17.7505 28.3523 16.1163 25.9887 16.1643C22.9471 16.2109 20.1017 17.961 18.5412 20.6785C15.3205 26.2195 17.7225 34.3623 20.8081 38.8411C22.3516 41.036 24.1552 43.4838 26.516 43.3977C28.8255 43.3044 29.6883 41.9358 32.4754 41.9358C35.2369 41.9358 36.0471 43.3977 38.4547 43.3426C40.9334 43.3044 42.494 41.1392 43.9835 38.9259C45.7672 36.4131 46.4835 33.9357 46.512 33.8086C46.4551 33.7888 41.6995 31.9837 41.6512 26.5288ZM37.1031 13.1417C38.3453 11.5979 39.1952 9.49759 38.9593 7.36621C37.1614 7.44531 34.9129 8.6021 33.6181 10.112C32.4726 11.4425 31.4492 13.6233 31.7136 15.6742C33.7332 15.8239 35.8069 14.6615 37.1031 13.1417Z" fill="white"/>
<path d="M72.3205 39.496H69.9895L68.7127 35.5393H64.2747L63.0584 39.496H60.7891L65.1871 26.0253H67.9029L72.3205 39.496ZM68.3278 33.8792L67.1732 30.3617C67.051 30.0024 66.8211 29.1562 66.4845 27.8241H66.4434C66.3079 28.397 66.0913 29.2432 65.7947 30.3617L64.6595 33.8792H68.3278ZM83.6086 34.5199C83.6086 36.1719 83.1539 37.4777 82.2435 38.4362C81.4286 39.2896 80.4155 39.7157 79.2075 39.7157C77.9029 39.7157 76.9648 39.2572 76.3952 38.3381V43.4346H74.2069V32.9753C74.2069 31.9378 74.1792 30.8739 74.1259 29.7827H76.0503L76.1725 31.3223H76.2135C76.9433 30.1623 78.0507 29.5823 79.5369 29.5823C80.6988 29.5823 81.6687 30.0348 82.4447 30.9407C83.2196 31.8487 83.6086 33.0411 83.6086 34.5199ZM81.3793 34.5989C81.3793 33.6535 81.1638 32.8741 80.7306 32.2596C80.2575 31.6209 79.6221 31.3011 78.8257 31.3011C78.2858 31.3011 77.7952 31.4792 77.3569 31.8305C76.9176 32.1847 76.6302 32.6473 76.4958 33.2202C76.4357 33.4345 76.4016 33.655 76.3942 33.8772V35.4978C76.3942 36.2033 76.6138 36.7995 77.0531 37.2874C77.4924 37.7732 78.0631 38.0172 78.7651 38.0172C79.5893 38.0172 80.2308 37.7024 80.6896 37.0778C81.1494 36.4513 81.3793 35.6253 81.3793 34.5989ZM94.9368 34.5199C94.9368 36.1719 94.4821 37.4777 93.5717 38.4362C92.7557 39.2896 91.7437 39.7157 90.5346 39.7157C89.2301 39.7157 88.292 39.2572 87.7223 38.3381V43.4346H85.5341V32.9753C85.5341 31.9378 85.5064 30.8739 85.453 29.7827H87.3775L87.4996 31.3223H87.5407C88.2694 30.1623 89.3769 29.5823 90.8641 29.5823C92.0249 29.5823 92.9948 30.0348 93.7728 30.9407C94.5467 31.8487 94.9368 33.0411 94.9368 34.5199ZM92.7064 34.5989C92.7064 33.6535 92.4899 32.8741 92.0567 32.2596C91.5836 31.6209 90.9503 31.3011 90.1538 31.3011C89.6139 31.3011 89.1233 31.4792 88.683 31.8305C88.2437 32.1847 87.9574 32.6473 87.8229 33.2202C87.7562 33.4875 87.7203 33.7051 87.7203 33.8772V35.4978C87.7203 36.2033 87.9409 36.7995 88.3782 37.2874C88.8175 37.7722 89.3881 38.0172 90.0922 38.0172C90.9175 38.0172 91.5589 37.7024 92.0167 37.0778C92.4765 36.4513 92.7064 35.6253 92.7064 34.5989ZM107.602 35.7174C107.602 36.8643 107.196 37.7965 106.388 38.5162C105.499 39.3017 104.258 39.6955 102.667 39.6955C101.198 39.6955 100.019 39.4161 99.1306 38.8563L99.6366 37.0576C100.596 37.6184 101.65 37.8977 102.798 37.8977C103.623 37.8977 104.265 37.7135 104.722 37.3481C105.181 36.9817 105.413 36.4918 105.413 35.8804C105.413 35.3328 105.221 34.8742 104.844 34.5007C104.466 34.1282 103.84 33.781 102.96 33.4622C100.569 32.5825 99.3718 31.296 99.3718 29.6036C99.3718 28.4982 99.7946 27.5933 100.638 26.8857C101.482 26.1792 102.601 25.8259 103.993 25.8259C105.235 25.8259 106.271 26.0395 107.093 26.4657L106.544 28.2249C105.77 27.8119 104.897 27.6054 103.92 27.6054C103.148 27.6054 102.542 27.7927 102.109 28.1652C101.745 28.4982 101.56 28.9041 101.56 29.3859C101.56 29.9173 101.77 30.3587 102.189 30.7049C102.553 31.0237 103.216 31.3709 104.174 31.7434C105.35 32.2111 106.215 32.7556 106.768 33.3812C107.325 34.0067 107.602 34.7872 107.602 35.7174ZM114.856 31.4023H112.444V36.1182C112.444 37.3177 112.869 37.916 113.721 37.916C114.112 37.916 114.436 37.8836 114.693 37.8158L114.753 39.4545C114.322 39.6135 113.754 39.6934 113.051 39.6934C112.187 39.6934 111.512 39.4333 111.024 38.913C110.539 38.3927 110.294 37.5212 110.294 36.2944V31.3982H108.858V29.7787H110.294V28.0002L112.444 27.3605V29.7787H114.856V31.4023ZM125.717 34.5594C125.717 36.0525 125.284 37.2783 124.42 38.2368C123.515 39.2238 122.312 39.7157 120.813 39.7157C119.366 39.7157 118.215 39.243 117.357 38.2986C116.499 37.3522 116.07 36.1597 116.07 34.7214C116.07 33.2162 116.513 31.9833 117.397 31.0247C118.283 30.0651 119.475 29.5853 120.975 29.5853C122.42 29.5853 123.581 30.0591 124.46 31.0045C125.299 31.9216 125.717 33.1059 125.717 34.5594ZM123.449 34.609C123.449 33.7193 123.254 32.9561 122.863 32.3173C122.404 31.546 121.747 31.1604 120.896 31.1604C120.019 31.1604 119.347 31.546 118.889 32.3173C118.497 32.9561 118.302 33.7324 118.302 34.6495C118.302 35.5403 118.497 36.3055 118.889 36.9422C119.363 37.7135 120.023 38.0992 120.878 38.0992C121.714 38.0992 122.37 37.7054 122.844 36.923C123.246 36.2691 123.449 35.5008 123.449 34.609ZM132.833 31.6806C132.605 31.6401 132.374 31.6201 132.143 31.6209C131.373 31.6209 130.778 31.9064 130.359 32.4813C129.996 32.9874 129.813 33.6272 129.813 34.3995V39.496H127.625V32.8417C127.627 31.822 127.606 30.8024 127.561 29.7837H129.467L129.547 31.6422H129.608C129.84 31.0035 130.203 30.4882 130.702 30.1026C131.159 29.7656 131.713 29.5831 132.284 29.5823C132.486 29.5823 132.669 29.5965 132.831 29.6218L132.833 31.6806ZM142.619 34.1798C142.625 34.5079 142.598 34.8357 142.539 35.1587H135.975C135.999 36.1182 136.317 36.8531 136.927 37.3592C137.48 37.8107 138.196 38.0374 139.074 38.0374C140.046 38.0374 140.933 37.8856 141.73 37.5789L142.073 39.076C141.141 39.4768 140.041 39.6762 138.771 39.6762C137.244 39.6762 136.045 39.2329 135.173 38.3482C134.303 37.4625 133.866 36.2721 133.866 34.7811C133.866 33.3174 134.272 32.0977 135.084 31.1249C135.933 30.0864 137.082 29.5671 138.527 29.5671C139.947 29.5671 141.021 30.0864 141.751 31.1249C142.329 31.9479 142.619 32.9682 142.619 34.1798ZM140.533 33.6201C140.548 32.9793 140.404 32.4277 140.108 31.961C139.729 31.3598 139.146 31.0602 138.365 31.0602C137.65 31.0602 137.067 31.3527 136.623 31.9398C136.259 32.4064 136.042 32.9672 135.976 33.618L140.533 33.6201Z" fill="white"/>
<path d="M62.5581 19.0732C61.8738 19.0732 61.2818 19.04 60.7891 18.9838V11.6052C61.4782 11.4994 62.1747 11.4473 62.872 11.4493C65.6935 11.4493 66.9928 12.8289 66.9928 15.0778C66.9928 17.6718 65.4581 19.0732 62.5581 19.0732ZM62.9712 12.3954C62.5904 12.3954 62.2662 12.4183 61.9973 12.4734V18.0824C62.1427 18.1053 62.4219 18.1156 62.8143 18.1156C64.663 18.1156 65.7154 17.0697 65.7154 15.111C65.7154 13.3644 64.7634 12.3954 62.9712 12.3954ZM71.0422 19.1294C69.452 19.1294 68.4215 17.9493 68.4215 16.3473C68.4215 14.6775 69.4739 13.4871 71.1322 13.4871C72.6993 13.4871 73.7528 14.611 73.7528 16.259C73.7528 17.9493 72.667 19.1294 71.0422 19.1294ZM71.0883 14.3656C70.2148 14.3656 69.6551 15.1775 69.6551 16.3129C69.6551 17.4264 70.2263 18.2383 71.0768 18.2383C71.9272 18.2383 72.4985 17.3702 72.4985 16.2899C72.4985 15.189 71.9388 14.3656 71.0883 14.3656ZM82.8208 13.5984L81.1187 19.0067H80.0097L79.3046 16.658C79.1293 16.0836 78.9833 15.5006 78.8673 14.9115H78.8442C78.7553 15.5009 78.5869 16.0915 78.408 16.658L77.6579 19.0067H76.5374L74.9357 13.5984H76.1785L76.7947 16.1695C76.9401 16.7819 77.0625 17.3599 77.164 17.9058H77.1871C77.2759 17.4505 77.4213 16.8817 77.6348 16.181L78.408 13.5995H79.3935L80.1332 16.1259C80.3121 16.7383 80.4575 17.3392 80.5705 17.9069H80.6029C80.6813 17.3507 80.8048 16.7601 80.9721 16.1259L81.6334 13.5995L82.8208 13.5984ZM89.0869 19.0067H87.8775V15.9012C87.8775 14.9447 87.5083 14.4654 86.7801 14.4654C86.0635 14.4654 85.5707 15.0778 85.5707 15.7899V19.0067H84.3614V15.1443C84.3614 14.6661 84.3498 14.1534 84.3164 13.5972H85.3803L85.4369 14.4321H85.4703C85.7958 13.8541 86.4558 13.4871 87.1955 13.4871C88.338 13.4871 89.088 14.3553 89.088 15.7681L89.0869 19.0067ZM92.4219 19.0067H91.2114V11.1167H92.4219V19.0067ZM96.8312 19.1294C95.2422 19.1294 94.2106 17.9493 94.2106 16.3473C94.2106 14.6775 95.263 13.4871 96.9201 13.4871C98.4883 13.4871 99.5408 14.611 99.5408 16.259C99.5419 17.9493 98.4549 19.1294 96.8312 19.1294ZM96.8762 14.3656C96.0027 14.3656 95.443 15.1775 95.443 16.3129C95.443 17.4264 96.0154 18.2383 96.8636 18.2383C97.7152 18.2383 98.2852 17.3702 98.2852 16.2899C98.2864 15.189 97.7279 14.3656 96.8762 14.3656ZM104.309 19.0067L104.221 18.384H104.189C103.82 18.8851 103.281 19.1294 102.598 19.1294C101.623 19.1294 100.93 18.4505 100.93 17.5376C100.93 16.2028 102.095 15.5124 104.111 15.5124V15.4126C104.111 14.7005 103.731 14.3438 102.981 14.3438C102.444 14.3438 101.973 14.478 101.559 14.7452L101.313 13.955C101.816 13.6431 102.444 13.4871 103.182 13.4871C104.603 13.4871 105.321 14.2326 105.321 15.7246V17.7165C105.321 18.2624 105.345 18.6856 105.4 19.0078L104.309 19.0067ZM104.143 16.3129C102.8 16.3129 102.126 16.6363 102.126 17.4035C102.126 17.9711 102.473 18.2487 102.955 18.2487C103.57 18.2487 104.143 17.7819 104.143 17.1477V16.3129ZM111.194 19.0067L111.137 18.1386H111.104C110.756 18.7945 110.172 19.1294 109.357 19.1294C108.044 19.1294 107.073 17.9826 107.073 16.3691C107.073 14.6775 108.08 13.486 109.456 13.486C110.184 13.486 110.7 13.7303 110.991 14.2211H111.015V11.1167H112.225V17.5491C112.225 18.0721 112.238 18.5617 112.27 19.0067H111.194ZM111.015 15.8243C111.015 15.0674 110.51 14.4218 109.741 14.4218C108.844 14.4218 108.296 15.2119 108.296 16.3243C108.296 17.4149 108.865 18.1615 109.717 18.1615C110.477 18.1615 111.015 17.5044 111.015 16.7257V15.8243ZM119.9 19.1294C118.311 19.1294 117.281 17.9493 117.281 16.3473C117.281 14.6775 118.333 13.4871 119.99 13.4871C121.559 13.4871 122.611 14.611 122.611 16.259C122.612 17.9493 121.526 19.1294 119.9 19.1294ZM119.945 14.3656C119.073 14.3656 118.513 15.1775 118.513 16.3129C118.513 17.4264 119.085 18.2383 119.934 18.2383C120.786 18.2383 121.356 17.3702 121.356 16.2899C121.358 15.189 120.798 14.3656 119.945 14.3656ZM129.115 19.0067H127.904V15.9012C127.904 14.9447 127.535 14.4654 126.807 14.4654C126.09 14.4654 125.599 15.0778 125.599 15.7899V19.0067H124.388V15.1443C124.388 14.6661 124.377 14.1534 124.343 13.5972H125.407L125.464 14.4321H125.497C125.821 13.8541 126.483 13.486 127.221 13.486C128.364 13.486 129.115 14.3541 129.115 15.767V19.0067ZM137.252 14.4998H135.921V17.1259C135.921 17.7945 136.154 18.1282 136.625 18.1282C136.838 18.1282 137.017 18.1053 137.162 18.0721L137.195 18.9849C136.961 19.0744 136.647 19.1191 136.257 19.1191C135.304 19.1191 134.734 18.5961 134.734 17.2269V14.4998H133.94V13.5984H134.734V12.6075L135.921 12.2509V13.5972H137.252V14.4998ZM143.654 19.0067H142.446V15.9241C142.446 14.9562 142.078 14.4665 141.348 14.4665C140.722 14.4665 140.138 14.8897 140.138 15.7463V19.0067H138.929V11.1167H140.138V14.3656H140.162C140.543 13.7761 141.094 13.486 141.798 13.486C142.95 13.486 143.654 14.3759 143.654 15.7899V19.0067ZM150.213 16.5915H146.584C146.607 17.6156 147.289 18.1936 148.299 18.1936C148.835 18.1936 149.329 18.1042 149.765 17.9379L149.953 18.7728C149.439 18.9952 148.833 19.1065 148.128 19.1065C146.426 19.1065 145.418 18.0377 145.418 16.3805C145.418 14.7222 146.45 13.4757 147.992 13.4757C149.382 13.4757 150.255 14.4998 150.255 16.0468C150.262 16.2294 150.249 16.4122 150.213 16.5915ZM149.104 15.7349C149.104 14.9 148.681 14.3105 147.907 14.3105C147.213 14.3105 146.663 14.9115 146.585 15.7349H149.104Z" fill="white"/>
</svg>
