<svg width="592" height="202" viewBox="0 0 592 202" fill="none" xmlns="http://www.w3.org/2000/svg">
<path opacity="0.3" d="M584.5 0.990303C584.065 0.651201 583.436 0.729686 583.097 1.16561L577.571 8.26935C577.232 8.70527 577.31 9.33355 577.746 9.67266C578.182 10.0118 578.811 9.93327 579.15 9.49735L584.062 3.18292L590.376 8.09493C590.812 8.43403 591.44 8.35555 591.779 7.91963C592.119 7.48371 592.04 6.85543 591.604 6.51632L584.5 0.990303ZM400.238 105.484L400.196 106.483L400.238 105.484ZM193.773 163.151L194.496 162.46L194.47 162.433L194.442 162.408L193.773 163.151ZM287.772 199.761L287.851 200.758L287.772 199.761ZM367.336 145.234L368.332 145.143L368.325 145.065L368.306 144.989L367.336 145.234ZM253.253 86.0055L253.454 85.0258L253.253 86.0055ZM-2.87066 102.624C-3.38926 102.814 -3.65569 103.388 -3.46575 103.907C-3.27581 104.425 -2.70143 104.692 -2.18283 104.502L-2.87066 102.624ZM582.894 1.90357C586.492 30.7024 583.976 57.9916 559.305 77.2755C534.51 96.6562 487.117 108.155 400.28 104.485L400.196 106.483C487.093 110.155 535.135 98.7061 560.536 78.8512C586.062 58.8996 588.503 30.6656 584.879 1.65565L582.894 1.90357ZM400.28 104.485C291.989 99.9086 234.782 109.475 207.308 122.736C193.566 129.369 187.06 137.029 185.539 144.498C184.015 151.986 187.57 158.913 193.104 163.894L194.442 162.408C189.237 157.723 186.162 151.465 187.499 144.898C188.84 138.312 194.689 131.048 208.178 124.537C235.167 111.51 291.931 101.908 400.196 106.483L400.28 104.485ZM193.05 163.842C206.204 177.614 243.535 204.267 287.851 200.758L287.693 198.764C244.201 202.208 207.421 175.992 194.496 162.46L193.05 163.842ZM287.851 200.758C315.401 198.576 336.105 191.605 349.642 181.719C363.205 171.813 369.594 158.95 368.332 145.143L366.34 145.325C367.526 158.3 361.573 170.528 348.463 180.103C335.326 189.698 315.023 196.6 287.693 198.764L287.851 200.758ZM368.306 144.989C368.04 143.937 367.904 142.707 367.585 140.997C367.277 139.352 366.823 137.437 365.959 135.309C364.225 131.038 360.882 126.012 353.949 120.551C340.131 109.666 311.965 96.9893 253.454 85.0258L253.053 86.9852C311.496 98.9347 339.276 111.538 352.712 122.122C359.406 127.395 362.518 132.15 364.106 136.061C364.903 138.024 365.326 139.799 365.619 141.364C365.899 142.864 366.084 144.363 366.367 145.479L368.306 144.989ZM253.454 85.0258C206.521 75.4297 149.618 77.2079 100.91 82.6813C52.2118 88.1536 11.5659 97.3365 -2.87066 102.624L-2.18283 104.502C12.0329 99.2953 52.4953 90.1343 101.133 84.6688C149.761 79.2044 206.422 77.4509 253.053 86.9852L253.454 85.0258Z" fill="#555555"/>
</svg>
