<svg width="126" height="50" viewBox="0 0 126 50" fill="none" xmlns="http://www.w3.org/2000/svg">
<path d="M104.841 26.3914C104.739 31.8915 105.957 34.8046 110.606 34.8046C115.247 34.8046 115.913 29.8421 115.913 26.0657C115.913 22.287 115.032 18.6186 110.156 18.6186C107.165 18.6186 104.956 20.8856 104.841 26.3914ZM95.4366 49.3752V12.1449H104.956V13.6551C104.956 15.6695 105.789 14.8388 106.46 14.0538C106.573 13.9226 108.694 11.3898 113.473 11.3898C118.236 11.3898 125.647 14.6262 125.647 26.0658C125.647 34.9144 121.226 41.388 113.59 41.388C109.383 41.388 106.95 39.7723 106.394 39.1203C105.837 38.4772 105.064 38.365 105.064 39.1203V49.3751L95.4366 49.3752ZM21.8578 0.0615234H32.1483V26.3914C32.1483 30.9205 30.1544 40.4194 15.8837 40.4194C1.61136 40.4194 0.0629883 31.5659 0.0629883 26.6057V21.7503H10.0214V26.4961C10.0214 29.4093 12.0135 32.1058 15.7731 32.1058C19.5343 32.1058 21.8578 30.0564 21.8578 26.6057V0.0615234ZM53.6689 22.3974C53.6689 19.6968 52.123 17.1074 48.5824 17.1074C45.1525 17.1074 43.9345 19.4791 43.9345 22.3974H53.6689ZM47.59 11.0659C55.6713 11.0659 62.7491 14.0863 62.7491 28.0071H43.6099C43.6099 32.4315 45.4889 34.2664 48.808 34.2664C52.128 34.2664 53.2336 31.6746 53.2336 31.6746H62.6409C62.6409 35.6687 56.9974 41.0641 48.4759 40.9569C38.7423 40.9569 33.9838 33.9425 33.9838 26.7121C33.9838 19.4791 38.1853 11.0659 47.59 11.0659ZM84.2654 22.3974C84.2654 19.6968 82.7178 17.1074 79.1772 17.1074C75.7491 17.1074 74.5284 19.4791 74.5284 22.3974H84.2654ZM78.1866 11.0659C86.267 11.0659 93.343 14.0863 93.343 28.0071H74.2047C74.2047 32.4315 76.0853 34.2664 79.4071 34.2664C82.7237 34.2664 83.8309 31.6746 83.8309 31.6746H93.2382C93.2382 35.6687 87.5938 41.0641 79.075 40.9569C69.3362 40.9569 64.5777 33.9425 64.5777 26.7121C64.5777 19.4791 68.7843 11.0659 78.1866 11.0659ZM119.346 44.9119C119.346 43.4374 120.577 42.2395 122.094 42.2395C123.606 42.2395 124.834 43.4374 124.834 44.9119C124.834 46.3839 123.606 47.5892 122.094 47.5892C120.577 47.5892 119.346 46.3839 119.346 44.9119ZM119.029 44.9119C119.029 46.5617 120.399 47.9008 122.094 47.9008C123.778 47.9008 125.155 46.5617 125.155 44.9119C125.155 43.2621 123.778 41.923 122.094 41.923C120.399 41.923 119.029 43.2621 119.029 44.9119Z" fill="white"/>
</svg>
