<svg width="43" height="53" viewBox="0 0 43 53" fill="none" xmlns="http://www.w3.org/2000/svg">
<path d="M38.0532 16.9811L18.3365 2.51423C16.6199 1.25429 14.5876 0.494794 12.4653 0.320091C10.3431 0.145389 8.21397 0.562314 6.31437 1.52457C4.41477 2.48683 2.81905 3.95676 1.70439 5.77113C0.58974 7.58551 -0.000221229 9.67332 2.15032e-05 11.8027V40.7364C-0.0040961 42.8667 0.583215 44.9563 1.69654 46.7725C2.80987 48.5887 4.40551 50.0602 6.30575 51.0232C8.20599 51.9861 10.3362 52.4026 12.4592 52.2264C14.5822 52.0501 16.6146 51.288 18.33 50.0249L38.0575 35.5581C39.5169 34.4886 40.7037 33.0902 41.5218 31.4765C42.3398 29.8627 42.7661 28.0789 42.7661 26.2696C42.7661 24.4603 42.3398 22.6764 41.5218 21.0627C40.7037 19.4489 39.5169 18.0506 38.0575 16.9811H38.0532ZM34.2095 30.3169L14.4929 44.7837C13.7448 45.3334 12.859 45.6649 11.9339 45.7414C11.0087 45.8179 10.0805 45.6364 9.25231 45.217C8.42413 44.7977 7.72846 44.1569 7.24258 43.3659C6.75671 42.5749 6.49967 41.6647 6.50002 40.7364V11.8027C6.49008 10.8731 6.74314 9.95957 7.23001 9.16755C7.71687 8.37554 8.41771 7.73728 9.25169 7.3264C9.95778 6.96387 10.7395 6.77308 11.5332 6.76957C12.5969 6.77481 13.6309 7.12027 14.4842 7.7554L34.2009 22.2222C34.8367 22.6883 35.3538 23.2976 35.7103 24.0008C36.0667 24.7039 36.2525 25.4812 36.2525 26.2696C36.2525 27.0579 36.0667 27.8352 35.7103 28.5384C35.3538 29.2416 34.8367 29.8509 34.2009 30.3169H34.2095Z" fill="white"/>
</svg>
