<svg width="142" height="143" viewBox="0 0 142 143" fill="none" xmlns="http://www.w3.org/2000/svg">
<g clip-path="url(#clip0_756_101)">
<path d="M48.7233 12.794L43.92 5.34527L44.9231 5.02842L48.7234 11.1304L48.803 11.1053L48.4421 3.91696L49.5567 3.56491L53.3888 9.65685L53.4685 9.63171L53.0757 2.45345L54.0789 2.13661L54.4238 10.9936L53.4047 11.3154L49.5541 5.38693L49.4905 5.40705L49.7424 12.4722L48.7233 12.794Z" fill="white"/>
<path d="M59.4099 9.77845L58.33 9.92276L60.3171 0.999122L61.3803 0.857036L65.64 8.94592L64.5601 9.09023L61.0617 2.26936L60.9952 2.27824L59.4099 9.77845ZM59.3647 6.40241L63.7175 5.82075L63.8396 6.73451L59.4868 7.31617L59.3647 6.40241Z" fill="white"/>
<path d="M66.7932 1.18583L66.7782 0.26408L73.2138 0.159594L73.2287 1.08135L70.5305 1.12516L70.6548 8.78409L69.6157 8.80096L69.4914 1.14203L66.7932 1.18583Z" fill="white"/>
<path d="M82.2977 3.72106L81.2651 3.60376C81.2378 3.29982 81.1605 3.02676 81.0334 2.78458C80.909 2.54272 80.7473 2.33316 80.5481 2.1559C80.352 1.97618 80.1279 1.83264 79.8758 1.72528C79.6238 1.61792 79.3561 1.54815 79.073 1.51599C78.5567 1.45734 78.0742 1.53467 77.6255 1.74797C77.1795 1.96159 76.8041 2.30834 76.4994 2.78824C76.1975 3.26844 76.0046 3.87772 75.9207 4.61606C75.8369 5.3544 75.8882 5.99143 76.0748 6.52713C76.2642 7.06315 76.5522 7.48527 76.9389 7.79349C77.3284 8.10202 77.7813 8.28561 78.2976 8.34426C78.5807 8.37643 78.8572 8.36847 79.1269 8.32039C79.3966 8.27231 79.647 8.18408 79.8781 8.05569C80.1123 7.92485 80.3171 7.75552 80.4925 7.54772C80.671 7.33745 80.8075 7.08867 80.902 6.80139L81.9345 6.91869C81.8073 7.34565 81.6215 7.71955 81.377 8.04041C81.1325 8.36126 80.8439 8.62509 80.5111 8.83189C80.1787 9.03592 79.8152 9.17879 79.4208 9.26049C79.0291 9.34252 78.6181 9.35909 78.1879 9.31021C77.4607 9.2276 76.8341 8.97648 76.3082 8.55686C75.7823 8.13724 75.3942 7.58145 75.1438 6.88949C74.8934 6.19752 74.8193 5.40188 74.9215 4.50254C75.0236 3.60321 75.2742 2.84445 75.6734 2.22628C76.0725 1.6081 76.5754 1.15353 77.182 0.862565C77.7886 0.5716 78.4555 0.467425 79.1827 0.550041C79.613 0.598917 80.0097 0.707251 80.373 0.875043C80.7391 1.04315 81.0611 1.26529 81.339 1.54146C81.6172 1.81486 81.8395 2.13532 82.0058 2.50285C82.1725 2.86759 82.2697 3.27366 82.2977 3.72106Z" fill="white"/>
<path d="M83.7742 9.96297L86.0412 1.686L87.0435 1.96061L86.0339 5.64645L90.4471 6.85564L91.4567 3.1698L92.4589 3.44442L90.1919 11.7214L89.1896 11.4468L90.2036 7.74477L85.7904 6.53558L84.7764 10.2376L83.7742 9.96297Z" fill="white"/>
<path d="M106.664 9.83351L102.631 17.3858L101.746 16.9131L100.798 8.7851L100.724 8.74571L97.5576 14.6754L96.6432 14.187L100.676 6.63465L101.561 7.10739L102.517 15.258L102.59 15.2974L105.765 9.35289L106.664 9.83351Z" fill="white"/>
<path d="M114.03 20.1055C113.48 20.8239 112.874 21.3452 112.214 21.6695C111.553 21.9938 110.888 22.1244 110.218 22.0614C109.549 21.9984 108.923 21.7442 108.343 21.2988C107.762 20.8534 107.354 20.3154 107.119 19.6848C106.885 19.0542 106.838 18.3778 106.98 17.6557C107.122 16.9336 107.468 16.2134 108.019 15.4951C108.569 14.7767 109.175 14.2554 109.835 13.9311C110.496 13.6068 111.161 13.4762 111.831 13.5392C112.501 13.6022 113.126 13.8564 113.707 14.3018C114.287 14.7472 114.695 15.2852 114.93 15.9158C115.164 16.5464 115.211 17.2228 115.069 17.9449C114.927 18.667 114.581 19.3872 114.03 20.1055ZM113.232 19.4935C113.685 18.9038 113.967 18.3304 114.081 17.7734C114.197 17.2181 114.168 16.7079 113.993 16.2428C113.82 15.7794 113.527 15.3896 113.115 15.0734C112.703 14.7572 112.249 14.5749 111.755 14.5266C111.263 14.48 110.762 14.5839 110.254 14.8383C109.748 15.0944 109.269 15.5173 108.817 16.1071C108.365 16.6968 108.081 17.2693 107.965 17.8246C107.851 18.3817 107.88 18.8919 108.053 19.3553C108.228 19.8204 108.522 20.211 108.934 20.5272C109.346 20.8434 109.799 21.0249 110.291 21.0715C110.785 21.1198 111.286 21.0159 111.792 20.7597C112.3 20.5053 112.78 20.0833 113.232 19.4935Z" fill="white"/>
<path d="M115.238 26.9985L120.125 19.5739L120.822 20.3659L116.764 26.3247L116.819 26.3875L123.266 23.1443L124.041 24.0244L120.005 30.0083L120.06 30.0711L126.485 26.8028L127.182 27.5948L119.198 31.4993L118.49 30.6947L122.368 24.7601L122.324 24.7098L115.946 27.8032L115.238 26.9985Z" fill="white"/>
<path d="M128.414 38.1813L130.052 37.3313L128.424 36.4618L128.838 35.7649L130.391 36.7734L130.326 34.9227L131.137 34.926L131.044 36.7698L132.615 35.8031L133.011 36.5033L131.374 37.3533L133.002 38.2228L132.588 38.9197L131.035 37.9112L131.1 39.7619L130.289 39.7586L130.382 37.9148L128.811 38.8815L128.414 38.1813Z" fill="white"/>
<path d="M129.321 48.4192L136.766 43.5481L137.091 44.5529L130.991 48.4082L131.017 48.488L138.229 48.0779L138.59 49.1945L132.5 53.0817L132.526 53.1614L139.728 52.7195L140.052 53.7243L131.165 54.1294L130.835 53.1086L136.761 49.204L136.74 49.1402L129.651 49.44L129.321 48.4192Z" fill="white"/>
<path d="M132.421 59.1025L132.266 58.0241L141.209 59.9204L141.361 60.9822L133.316 65.3239L133.161 64.2456L139.946 60.6779L139.936 60.6115L132.421 59.1025ZM135.796 59.023L136.422 63.3697L135.509 63.5011L134.884 59.1544L135.796 59.023Z" fill="white"/>
<path d="M141.085 66.3564L142.007 66.3339L142.164 72.7683L141.242 72.7909L141.176 70.0931L133.519 70.2803L133.493 69.2414L141.151 69.0542L141.085 66.3564Z" fill="white"/>
<path d="M138.711 81.8709L138.817 80.8371C139.12 80.8065 139.392 80.7262 139.633 80.5965C139.874 80.4695 140.081 80.3054 140.256 80.1043C140.434 79.9063 140.575 79.6806 140.68 79.4274C140.784 79.1741 140.851 78.9058 140.88 78.6223C140.933 78.1054 140.85 77.6238 140.632 77.1774C140.414 76.7337 140.063 76.3622 139.579 76.0628C139.096 75.7661 138.485 75.5799 137.745 75.5041C137.006 75.4284 136.37 75.4867 135.836 75.6791C135.302 75.8744 134.883 76.167 134.579 76.5571C134.275 76.95 134.097 77.4048 134.044 77.9217C134.015 78.2052 134.026 78.4815 134.077 78.7507C134.128 79.0199 134.219 79.2694 134.35 79.499C134.483 79.7317 134.655 79.9346 134.864 80.1078C135.077 80.284 135.327 80.4177 135.615 80.5091L135.509 81.5429C135.081 81.4203 134.705 81.2386 134.381 80.9976C134.058 80.7567 133.791 80.471 133.58 80.1405C133.373 79.8103 133.226 79.4484 133.14 79.0549C133.054 78.6641 133.032 78.2534 133.077 77.8226C133.151 77.0945 133.395 76.4652 133.809 75.9348C134.223 75.4043 134.774 75.0101 135.464 74.7522C136.153 74.4942 136.947 74.4114 137.848 74.5037C138.748 74.5959 139.51 74.8383 140.132 75.2306C140.755 75.623 141.215 76.1208 141.513 76.7242C141.81 77.3276 141.922 77.9933 141.847 78.7214C141.803 79.1522 141.699 79.5501 141.535 79.9152C141.371 80.2831 141.153 80.6076 140.88 80.8885C140.609 81.1697 140.291 81.3954 139.926 81.5658C139.563 81.7364 139.158 81.8381 138.711 81.8709Z" fill="white"/>
<path d="M132.503 83.439L140.828 85.5848L140.568 86.5929L136.861 85.6373L135.717 90.0759L139.424 91.0315L139.164 92.0395L130.84 89.8937L131.1 88.8857L134.823 89.8454L135.967 85.4068L132.244 84.447L132.503 83.439Z" fill="white"/>
<path d="M132.968 106.394L125.331 102.446L125.793 101.551L133.941 100.489L133.979 100.414L127.983 97.314L128.461 96.389L136.098 100.337L135.636 101.232L127.466 102.302L127.427 102.376L133.439 105.484L132.968 106.394Z" fill="white"/>
<path d="M122.651 113.81C121.927 113.266 121.4 112.666 121.069 112.009C120.737 111.352 120.6 110.688 120.656 110.018C120.712 109.347 120.959 108.719 121.398 108.134C121.838 107.548 122.371 107.135 122.999 106.893C123.627 106.652 124.303 106.599 125.026 106.733C125.75 106.867 126.473 107.206 127.197 107.749C127.921 108.292 128.449 108.893 128.78 109.55C129.111 110.207 129.249 110.871 129.193 111.541C129.137 112.212 128.889 112.84 128.45 113.425C128.011 114.011 127.477 114.424 126.849 114.665C126.221 114.907 125.546 114.96 124.822 114.826C124.099 114.692 123.375 114.353 122.651 113.81ZM123.255 113.005C123.849 113.451 124.425 113.728 124.983 113.836C125.54 113.946 126.05 113.911 126.513 113.732C126.974 113.554 127.361 113.257 127.673 112.842C127.984 112.426 128.162 111.971 128.205 111.476C128.246 110.983 128.137 110.484 127.878 109.978C127.616 109.474 127.188 109 126.594 108.554C126 108.108 125.424 107.83 124.868 107.719C124.31 107.611 123.8 107.646 123.338 107.824C122.875 108.004 122.488 108.301 122.176 108.717C121.864 109.133 121.688 109.587 121.646 110.08C121.603 110.575 121.712 111.074 121.974 111.578C122.233 112.083 122.66 112.559 123.255 113.005Z" fill="white"/>
<path d="M115.802 115.066L123.288 119.844L122.506 120.552L116.497 116.581L116.435 116.637L119.765 123.034L118.897 123.82L112.863 119.872L112.801 119.928L116.156 126.302L115.375 127.01L111.362 119.086L112.156 118.368L118.139 122.159L118.188 122.115L115.008 115.784L115.802 115.066Z" fill="white"/>
<path d="M104.741 128.459L105.604 130.097L106.466 128.457L107.168 128.868L106.166 130.433L108.023 130.356L108.024 131.169L106.174 131.088L107.154 132.659L106.454 133.061L105.591 131.424L104.729 133.063L104.027 132.652L105.029 131.087L103.172 131.165L103.17 130.351L105.021 130.432L104.041 128.861L104.741 128.459Z" fill="white"/>
<path d="M94.5026 129.42L99.4505 136.814L98.4491 137.149L94.5309 131.09L94.4514 131.116L94.9363 138.324L93.8237 138.697L89.8737 132.648L89.7942 132.675L90.3109 139.872L89.3095 140.207L88.8122 131.324L89.8295 130.984L93.7952 136.868L93.8587 136.847L93.4853 129.76L94.5026 129.42Z" fill="white"/>
<path d="M83.8692 132.606L84.9458 132.439L83.1445 141.402L82.0844 141.566L77.6577 133.568L78.7343 133.401L82.3736 140.148L82.4399 140.138L83.8692 132.606ZM83.9844 135.98L79.6446 136.652L79.5036 135.741L83.8434 135.069L83.9844 135.98Z" fill="white"/>
<path d="M76.6945 141.356L76.7267 142.277L70.2943 142.502L70.2621 141.58L72.959 141.486L72.6917 133.831L73.7303 133.795L73.9976 141.45L76.6945 141.356Z" fill="white"/>
<path d="M61.1319 139.235L62.1711 139.329C62.2056 139.633 62.2896 139.905 62.4229 140.146C62.5533 140.385 62.7206 140.592 62.9247 140.765C63.1257 140.941 63.354 141.08 63.6096 141.182C63.8651 141.284 64.1354 141.347 64.4203 141.373C64.9399 141.42 65.4225 141.331 65.8679 141.106C66.3106 140.881 66.6792 140.525 66.9738 140.036C67.2657 139.547 67.445 138.93 67.5119 138.187C67.5788 137.444 67.5123 136.806 67.3124 136.273C67.1098 135.739 66.8108 135.322 66.4154 135.022C66.0172 134.721 65.5583 134.548 65.0387 134.501C64.7538 134.475 64.4765 134.49 64.2068 134.544C63.9372 134.599 63.6879 134.693 63.459 134.828C63.227 134.964 63.0254 135.139 62.8542 135.352C62.68 135.567 62.5488 135.82 62.4607 136.111L61.4215 136.017C61.5392 135.585 61.7169 135.206 61.9548 134.878C62.1927 134.55 62.4763 134.279 62.8054 134.063C63.1343 133.851 63.4958 133.699 63.8898 133.607C64.2811 133.516 64.6932 133.49 65.1262 133.529C65.8581 133.595 66.4929 133.832 67.0306 134.241C67.5683 134.65 67.9709 135.198 68.2385 135.887C68.506 136.576 68.599 137.373 68.5176 138.278C68.4361 139.183 68.2023 139.951 67.8162 140.58C67.43 141.21 66.9359 141.678 66.3338 141.985C65.7317 142.291 65.0648 142.411 64.3328 142.345C63.8998 142.306 63.499 142.207 63.1304 142.047C62.759 141.887 62.4306 141.671 62.1452 141.401C61.8595 141.133 61.6289 140.816 61.4533 140.451C61.2775 140.089 61.1704 139.684 61.1319 139.235Z" fill="white"/>
<path d="M59.5202 132.927L57.427 141.25L56.4192 140.996L57.3513 137.29L52.9138 136.174L51.9816 139.88L50.9739 139.626L53.0671 131.304L54.0749 131.557L53.1386 135.28L57.5762 136.396L58.5124 132.674L59.5202 132.927Z" fill="white"/>
<path d="M36.6433 133.659L40.488 125.986L41.3871 126.437L42.5489 134.557L42.6239 134.594L45.6426 128.57L46.5716 129.036L42.7269 136.708L41.8278 136.257L40.6585 128.115L40.5836 128.078L37.5574 134.117L36.6433 133.659Z" fill="white"/>
<path d="M29.0362 123.492C29.5701 122.759 30.1639 122.222 30.8176 121.88C31.4713 121.539 32.1343 121.392 32.8069 121.439C33.4794 121.485 34.1121 121.724 34.7049 122.156C35.2977 122.588 35.7194 123.117 35.97 123.743C36.2207 124.369 36.2839 125.045 36.1597 125.772C36.0355 126.499 35.7064 127.229 35.1725 127.962C34.6385 128.696 34.0447 129.233 33.391 129.574C32.7374 129.915 32.0743 130.063 31.4018 130.016C30.7292 129.969 30.0966 129.73 29.5038 129.298C28.911 128.866 28.4892 128.337 28.2386 127.711C27.988 127.086 27.9247 126.409 28.0489 125.682C28.1731 124.955 28.5022 124.225 29.0362 123.492ZM29.8507 124.085C29.4124 124.687 29.1431 125.269 29.0429 125.83C28.9404 126.389 28.9825 126.899 29.1693 127.361C29.3538 127.821 29.6564 128.204 30.0773 128.511C30.4981 128.817 30.9568 128.989 31.4534 129.025C31.9477 129.059 32.4464 128.943 32.9493 128.676C33.45 128.407 33.9195 127.971 34.3579 127.369C34.7963 126.767 35.0667 126.187 35.1692 125.627C35.2694 125.067 35.2272 124.556 35.0428 124.096C34.856 123.635 34.5522 123.25 34.1314 122.944C33.7105 122.637 33.2529 122.467 32.7586 122.432C32.2621 122.396 31.7634 122.512 31.2627 122.781C30.7598 123.049 30.2891 123.484 29.8507 124.085Z" fill="white"/>
<path d="M27.7483 116.607L23.0797 124.156L22.3617 123.385L26.2441 117.323L26.1871 117.262L19.843 120.681L19.0453 119.825L22.9049 113.737L22.8479 113.676L16.5266 117.12L15.8086 116.349L23.6683 112.226L24.3977 113.009L20.6938 119.043L20.7393 119.092L27.019 115.824L27.7483 116.607Z" fill="white"/>
<path d="M14.3093 105.656L12.6895 106.539L14.3348 107.375L13.9346 108.08L12.3618 107.104L12.4643 108.952L11.6538 108.965L11.7094 107.12L10.158 108.118L9.74775 107.426L11.3675 106.544L9.72217 105.707L10.1224 105.002L11.6952 105.979L11.5927 104.13L12.4032 104.117L12.3476 105.962L13.899 104.964L14.3093 105.656Z" fill="white"/>
<path d="M13.0116 94.914L5.69477 99.9759L5.34443 98.9797L11.3427 94.9681L11.3149 94.8891L4.11543 95.4853L3.72616 94.3785L9.71333 90.3352L9.68552 90.2562L2.49717 90.884L2.14682 89.8879L11.0208 89.2533L11.3767 90.2653L5.55405 94.3217L5.5763 94.385L12.6557 93.9021L13.0116 94.914Z" fill="white"/>
<path d="M9.92283 85.1095L10.1056 86.1836L1.11685 84.5174L0.936876 83.4599L8.8683 78.9131L9.05108 79.9872L2.35965 83.7277L2.3709 83.7938L9.92283 85.1095ZM6.55061 85.2756L5.81385 80.9463L6.72265 80.7916L7.45941 85.1209L6.55061 85.2756Z" fill="white"/>
<path d="M1.06689 78.0239L0.146129 78.0691L-0.169351 71.6404L0.751415 71.5952L0.883687 74.2906L8.53442 73.915L8.58535 74.9529L0.934623 75.3285L1.06689 78.0239Z" fill="white"/>
<path d="M3.01489 62.4322L2.93177 63.4714C2.62794 63.5089 2.35675 63.5955 2.11818 63.731C1.87983 63.8638 1.67513 64.0329 1.50405 64.2385C1.33041 64.4411 1.19397 64.6706 1.09475 64.9269C0.995526 65.1833 0.934519 65.4539 0.911727 65.7388C0.870167 66.2584 0.963813 66.7397 1.19267 67.1825C1.42175 67.6225 1.78195 67.9873 2.27329 68.2769C2.76484 68.5636 3.38217 68.7367 4.12525 68.7962C4.86834 68.8556 5.50532 68.7829 6.03621 68.578C6.56732 68.3702 6.98092 68.0674 7.27704 67.6693C7.57337 67.2685 7.74232 66.8083 7.78388 66.2887C7.80667 66.0038 7.78946 65.7269 7.73224 65.458C7.67503 65.1892 7.5782 64.941 7.44176 64.7136C7.30275 64.4832 7.12614 64.2835 6.91192 64.1146C6.69514 63.9426 6.44115 63.814 6.14995 63.7289L6.23307 62.6897C6.6654 62.803 7.0465 62.9769 7.37637 63.2113C7.70623 63.4457 7.9804 63.7263 8.19886 64.0531C8.41452 64.3796 8.56991 64.7392 8.66501 65.132C8.76033 65.522 8.79067 65.9335 8.75604 66.3665C8.69749 67.0984 8.46664 67.735 8.06349 68.2763C7.66033 68.8176 7.11604 69.2252 6.43062 69.4993C5.74519 69.7734 4.94992 69.8743 4.04481 69.8018C3.1397 69.7294 2.37058 69.5034 1.73744 69.1238C1.1043 68.7442 0.631738 68.2552 0.319745 67.6567C0.00775191 67.0582 -0.118973 66.393 -0.0604308 65.661C-0.0257969 65.228 0.0695693 64.8266 0.225668 64.4567C0.38199 64.0841 0.59396 63.7538 0.861579 63.466C1.1264 63.1779 1.44028 62.9444 1.80322 62.7654C2.16336 62.5861 2.56725 62.4751 3.01489 62.4322Z" fill="white"/>
<path d="M9.24693 60.7484L0.894336 58.7782L1.13283 57.7667L4.85235 58.6441L5.90251 54.1904L2.18299 53.313L2.42149 52.3015L10.7741 54.2718L10.5356 55.2832L6.79976 54.402L5.7496 58.8557L9.48543 59.7369L9.24693 60.7484Z" fill="white"/>
<path d="M8.1694 37.9683L15.8928 41.659L15.4604 42.5641L7.38578 43.8753L7.34975 43.9507L13.4138 46.8485L12.967 47.7838L5.24364 44.0931L5.67602 43.1879L13.7729 41.8689L13.809 41.7935L7.72982 38.8885L8.1694 37.9683Z" fill="white"/>
<path d="M18.2883 30.1603C19.0259 30.6849 19.5686 31.2715 19.9164 31.92C20.2642 32.5685 20.4187 33.2286 20.3798 33.9003C20.341 34.572 20.1095 35.2061 19.6853 35.8026C19.2612 36.3991 18.7383 36.826 18.1167 37.0831C17.495 37.3403 16.8209 37.411 16.0943 37.2952C15.3676 37.1795 14.6355 36.8593 13.898 36.3346C13.1604 35.81 12.6177 35.2234 12.2699 34.5749C11.9221 33.9264 11.7676 33.2663 11.8065 32.5946C11.8453 31.9229 12.0768 31.2888 12.501 30.6923C12.9251 30.0958 13.448 29.669 14.0696 29.4118C14.6913 29.1546 15.3654 29.0839 16.092 29.1997C16.8187 29.3154 17.5508 29.6356 18.2883 30.1603ZM17.7055 30.9799C17.1 30.5492 16.5169 30.2869 15.9563 30.1933C15.3972 30.0973 14.8885 30.1451 14.43 30.3366C13.9732 30.5259 13.5943 30.8323 13.2932 31.2558C12.9921 31.6792 12.8263 32.139 12.7958 32.635C12.767 33.1287 12.8888 33.625 13.1613 34.1239C13.4354 34.6206 13.8752 35.0843 14.4808 35.515C15.0863 35.9457 15.6686 36.2091 16.2276 36.3051C16.7883 36.3988 17.297 36.351 17.7538 36.1617C18.2122 35.9701 18.592 35.6626 18.8931 35.2391C19.1942 34.8157 19.3592 34.3571 19.3881 33.8634C19.4185 33.3674 19.2967 32.871 19.0226 32.3744C18.7501 31.8754 18.3111 31.4106 17.7055 30.9799Z" fill="white"/>
<path d="M25.1139 28.7386L17.5037 24.1785L18.2639 23.4498L24.3774 27.2451L24.4377 27.1872L20.9307 20.8936L21.7754 20.084L27.913 23.8561L27.9734 23.7983L24.4423 17.5278L25.2025 16.7991L29.434 24.5978L28.6617 25.3381L22.5799 21.7209L22.5316 21.7671L25.8862 27.9984L25.1139 28.7386Z" fill="white"/>
<path d="M35.861 15.1954L34.9593 13.5933L34.1486 15.2446L33.4406 14.8554L34.3923 13.2745L32.5517 13.4021L32.5276 12.5945L34.3667 12.6245L33.3511 11.0921L34.0349 10.6736L34.9366 12.2758L35.7473 10.6245L36.4553 11.0137L35.5036 12.5946L37.3442 12.4669L37.3683 13.2746L35.5292 13.2446L36.5448 14.777L35.861 15.1954Z" fill="white"/>
</g>
<defs>
<clipPath id="clip0_756_101">
<rect width="142" height="142" fill="white" transform="translate(0 0.28125)"/>
</clipPath>
</defs>
</svg>
